<svg version="1.2" xmlns="http://www.w3.org/2000/svg" viewBox="0 0 750 500" width="750" height="500"><defs><clipPath clipPathUnits="userSpaceOnUse" id="cp1"><path d="m0 0h750v500h-750z"/></clipPath><clipPath clipPathUnits="userSpaceOnUse" id="cp2"><path d="m0 0h750v500h-750z"/></clipPath><clipPath clipPathUnits="userSpaceOnUse" id="cp3"><path d="m177.85 247.26q-0.91 1.32-2.39 2.53c-2.42 1.95-5.48 3.01-8.56 3.37-3.64 0.41-7.51-0.17-10.46-2.33-5.72-4.19-4.17-13.54-4.14-19.76 0.01-0.34-0.01-0.72-0.27-0.96-0.24-0.23-0.64-0.27-1-0.3-9.09-0.91-12.1-9.91-11.36-17.06 0.6-5.82 2.5-11.64 4.77-17.2 0.53-1.29 1.13-2.62 2.24-3.6 1.85-1.63 7.78-3.68 10.27-4.57 4.64-1.67 9.07-0.42 13.26 1.22 5.61 2.19 10.22 6.63 11.09 12.25 0.38 2.46 0.08 5.01-0.22 7.52-0.94 7.87-1.88 15.8-1.58 23.74 0.21 5.53 1.41 10.76-1.65 15.15z"/></clipPath><clipPath clipPathUnits="userSpaceOnUse" id="cp4"><path d="m0 0h750v500h-750z"/></clipPath><clipPath clipPathUnits="userSpaceOnUse" id="cp5"><path d="m316.12 193.21c1.64-3.16 1.71-6.74-0.77-10.75-2.21-3.58-2.51-6.73-5.76-9.39-3-2.46-6.64-4.18-10.51-4.66-11.52-1.41-19.07 8.28-20.21 18.86-0.46 4.28-0.91 8.63-0.42 12.93 0.41 3.58 2.22 6.23 3.96 9.36 0.4 0.72 0.81 1.45 1 2.26 0.17 0.71 0.17 1.46 0.16 2.19-0.01 3.16-0.04 6.34-0.59 9.46-0.19 1.09-0.22 2.39-0.6 3.42-0.12 0.34-1.87 2.99-2.27 2.72 4.8 3.22 9.99 6.24 15.73 6.84 4.83 0.51 9.73-0.74 14.1-2.86 2.41-1.16 4.79-2.69 6.01-5.06 0.09-0.18 0.18-0.37 0.15-0.57-0.05-0.28-0.3-0.46-0.53-0.62-2.36-1.75-2.78-4.44-3.43-7.11-0.4-1.67-0.68-3.35-0.97-5.03-0.22-1.29-0.99-2.76-0.74-4.08 0.13-0.69 0.56-1.29 0.96-1.88 2.6-3.88 4.16-8.43 4.53-13.08 0.08-0.98-0.25-2.08 0.2-2.95z"/></clipPath><clipPath clipPathUnits="userSpaceOnUse" id="cp6"><path d="m0 0h750v500h-750z"/></clipPath><clipPath clipPathUnits="userSpaceOnUse" id="cp7"><path d="m475.63 189.7q-0.02-3.21 0.09-6.45c0.23-6.92 0.18-14.01-3.31-20.2-3.52-6.26-9.84-7.86-16.87-6.77-6.04 0.94-8.45 3.04-10.38 8.37-2.46 6.76-3.69 12.94-3.67 20.18 0.01 3.51 0.18 7.14 1.72 10.3 1.53 3.16 5.14 5.79 8.65 5.52-0.75 6.09-1.44 15.62 5.07 18.16 5.85 2.29 18.47 1.97 19.59-6.3 0.14-1.01 0.07-2.03 0-3.05-0.45-6.66-0.85-13.18-0.89-19.76z"/></clipPath><clipPath clipPathUnits="userSpaceOnUse" id="cp8"><path d="m0 0h750v500h-750z"/></clipPath><clipPath clipPathUnits="userSpaceOnUse" id="cp9"><path d="m589.12 234.76c-0.07 4.5-0.95 9.17-3.68 12.74 9.27 4.09 20.27 3.97 29.45-0.3-3.9-2.98-5.18-8.42-4.79-13.34 0.15-1.97 0.52-3.93 0.53-5.91 0-4.05-3.08-9.14-7.08-10.46-1.63-0.54-3.41-0.42-5.09-0.08-2.56 0.52-5.09 1.59-6.92 3.46-3.67 3.75-2.35 9.2-2.42 13.89z"/></clipPath><clipPath clipPathUnits="userSpaceOnUse" id="cp10"><path d="m0 0h750v500h-750z"/></clipPath><clipPath clipPathUnits="userSpaceOnUse" id="cp11"><path d="m338.47 294.5c0.93-7.34 0.66-14.75 0.76-22.14 0.04-3.01 0.17-6.04 0.01-9.04q-7.85 2.62-15.43 5.93c-4.43 1.93-8.84 4.07-12.54 7.18-10.83 9.11-16.3 24.19-21.16 37.04-10.6 28.05-17.4 58.13-22.92 87.59-0.95 5.07-1.81 10.44 0.04 15.25 2.73 7.12 10.63 10.93 18.17 12.05 2.97 0.44 6.05 0.57 8.9-0.35 6.88-2.21 10.45-9.64 12.92-16.44 6.96-19.23 9.26-39.65 13.9-59.47 4.57-19.53 14.86-37.64 17.35-57.6z"/></clipPath></defs><style>.a{fill:#bcc5d3}.b{fill:#121013}.c{fill:#6c78cb}.d{fill:none;stroke:#121013;stroke-linecap:round;stroke-linejoin:round}.e{fill:#e79e8b}.f{fill:#b66754}.g{fill:#d9c468}.h{fill:#fff}.i{fill:#ad8b50}.j{fill:#9d5b34}.k{fill:none;stroke:#1a2732;stroke-linecap:round;stroke-linejoin:round}.l{fill:#5a3870}.m{fill:#48181e}.n{fill:#818caa}.o{fill:none;stroke:#000;stroke-linecap:round;stroke-linejoin:round}.p{fill:none;stroke:#dc8a72;stroke-linecap:round;stroke-linejoin:round}.q{fill:#d79280}.r{fill:#97afbd}.s{fill:#894d2f}.t{fill:#bd6a75}.u{fill:#95a167}</style><g clip-path="url(#cp1)"><path class="a" d="m413.4 422c-87.1-2.9-174.9 14.8-261.2 2.3-32.5-4.8-66.5-15.1-87.3-40.4-12-14.6-18.5-32.9-21.8-51.4-3.5-20-3.4-40.5 0.3-60.4 4.5-24.1 17.6-45.6 20.7-69.4 2.8-20.9 16.7-36.3 36.2-44.4 19.1-7.9 40.3-8.4 61-9.4 20.6-1 41.9-2.6 60.1-12.4 28.7-15.3 45-48.2 74-63.1 24.3-12.4 53.4-10.1 80.2-4.8 26.8 5.2 53.6 13.2 80.9 10.9 15.7-1.3 31.1-6.1 46.9-6.4 25.2-0.6 50.5 10.7 67 29.9 12.8 15 21.3 35.3 39.2 43.5 11 5.1 23.7 4.6 35.4 7.7 23.4 6.1 41.2 26.1 50.8 48.2 18.5 42.7 14.6 89.7 9 134.6-12.3 145.1-195.3 88.3-291.4 85z"/></g><g clip-path="url(#cp2)"><path class="b" d="m186.2 692.5c-5.4 1.2-11.1 1.9-15.7 4.9-3 1.9-5.2 4.3-5.5 8-0.1 0.8 0 1.8 0.7 2.4 0.5 0.4 1.2 0.4 1.9 0.4 5.2 0 10.2-0.6 15.4-0.6 9.3 0.1 18.7 0.4 28 0.2 17-0.3 14.5-1 15.5-3.4 0.7-1.7 0.6-3.6 0.4-5.5q-1.2-12.3-2.5-24.6c-0.7-7.1-1.7-14.8-6.9-19.6-3.2-2.9-7.6-3.7-11.1-0.8-3.2 2.6-3.3 7.8-3.2 11.8 0.1 4 0.6 8 0.1 11.9-1.3 8.9-9.1 13.1-17.1 14.9z"/><path class="b" d="m93.6 692.5c-5.3 1.2-11 1.9-15.7 4.9-2.9 1.9-5.2 4.3-5.5 8-0.1 0.8 0.1 1.8 0.7 2.4 0.6 0.4 1.3 0.4 2 0.4 5.1 0 10.2-0.6 15.4-0.6 9.3 0.1 18.6 0.4 28 0.2 17-0.3 14.5-1 15.5-3.4 0.7-1.7 0.5-3.6 0.3-5.5q-1.2-12.3-2.4-24.6c-0.7-7.1-1.7-14.8-6.9-19.6-3.2-2.9-7.6-3.7-11.1-0.8-3.3 2.6-3.4 7.8-3.3 11.8 0.2 4 0.7 8 0.2 11.9-1.3 8.9-9.2 13.1-17.2 14.9z"/><path class="c" d="m164.3 367.4h-37.5c-8.4 21.9-8.4-1.5-14.4 21.1-2.9 10.7-10.9 62.8-12.7 73.7-1.7 11-2.7 22.2-3.2 33.4-1.1 22.3-2.8 48.9-2.8 71.2 0.1 37.8 1.8 77.2 0.3 111.1 6.1 1.2 39.5 1.8 53.8-0.3 1.1-0.2 1.9-1.2 1.9-2.3-1-20.4 6.1-196.1 9.8-216.7 4.9-26.9 12.1-29.7 8.8-56.9-1.3-11.1-0.5-23.4-4-34.3z"/><path class="c" d="m222.3 439.1c0.6-7.5 0.9-15-0.3-22.8-1.6-10.8-5.6-21.2-11.5-30.4-4.2-6.4-9.5-12.4-16.6-15.2-6.5-2.7-14.1-2.3-20.6 0.5-23.4 10-19.2 41.1-20.1 61.9-0.8 16.2 6.6 63.5 8.4 80.1 6.9 64.3 18.1 111.6 22.2 165.7 7 0.3 14.4-0.4 21.4-0.8 7.7-0.5 22.1-1.3 29.5-3.5 2.3-0.8 0.1-28.8 0-32.1-0.4-10.8-1.2-21.6-2.1-32.3-1.8-22.1-4.3-44.1-5.7-66.2-0.8-11.8-3.3-23.5-4.1-35.3-1.1-16.8-3.1-33.2-2.2-50.1 0.3-6.6 1.1-13.1 1.7-19.5z"/><path fill-rule="evenodd" class="d" d="m157 480.9c-1-28.2-1.6-32.3-2.6-60.5"/><path class="e" d="m240.1 376.2c3.8 10.1 7.3 20.5 8.8 31.3 0.6 4.3 1.5 9.4 0.7 13.7-1 5.2-3.8 10.7-5.6 15.8-0.7 2-0.8 6.5 2.4 4.8 1.1-0.6 2.4-8.5 4.8-4.7 0.3 0.6 0.4 1.4 0.5 2.1 0.5 3.6 0.4 7.3 0.9 10.9 0.3 2.9 0.4 5.8 1.5 8.4 1 2.7 3.3 5.1 6.2 5.2 2.6 0.1 5-1.7 6.3-4 1.3-2.2 1.6-4.9 1.9-7.5 1.2-10.5 0.9-21.2 0.9-31.8 0-21.7-5-61.7-8.9-77.7-2.7-11.3-6.1-22.5-10.1-33.4-3.4-9.7-6.2-19.8-12.5-28.1-4-5.4-9.4-10-15.8-12.1-3.7-1.1-7.9-1.4-11 0.8-3 2.1-4.2 6-4.6 9.6-1.7 13.7 4.5 26.9 10.3 39.4q11.1 24.4 20.5 49.5 1.4 3.9 2.8 7.8z"/><path class="e" d="m84.5 144.4c-1.5 4.3-2 8.9-4 13.1-0.8 1.6-1.8 3.2-2.4 4.9-1.5 3.8-0.9 7.4-0.4 11.2-7.7-0.7-15.2-2.1-22.7-3.9 0.6-12.5-0.7-25 0.1-37.6 0.2-2.2 0.2-4.2 0.5-6.4 0.3-1.8 0.6-3.6 1.6-5.1 2-2.5 2.6 0.5 2.4 2.2-0.3 2.6-0.6 5.1-0.5 7.7 0 0.9 0.4 4.4-0.5 4.8q0.6-0.3 1.3-0.5 0.1-1.2 0.2-2.3c0.7-4.6 1.6-9 3-13.3 0.3-0.8 0.6-1.6 1.4-1.8 0.7-0.2 1.5 0.4 1.8 1.2 0.7 2.2-0.4 5.5-0.8 7.7-0.4 2.3-0.8 4.6-1.1 6.9q0 0.6-0.1 1.1 1 0 2 0.1 1.3-7.6 3-15.2c0.2-1 1-1.8 2.1-1.7 1 0.1 2 1.1 1.8 2.1q-1.7 7.6-3.1 15.1c0.7 0.1 1.5 0.3 2.3 0.5 0.5-4.3 1.3-8.6 2.2-12.9 0.2-0.9 1.7-2.9 2.7-1.6 0.4 0.5 0.4 1.2 0.3 1.8-0.1 5.9-1.5 11.7-1.9 17.7-0.1 1.8-1.1 3.8-0.2 5.6 0.9 1.7 2.7 2.4 3.5 0.3 0.9-2.5 1.8-5.1 3.3-7.2 0.6-1 2.5-3.8 3.5-1.4 0.3 0.8 0.1 1.7-0.2 2.6-0.6 1.4-0.6 2.8-1.1 4.3z"/><path class="e" d="m150.7 255.9c-10.4-4.8-41.3-18.7-51.8-23.5-4.8-2.3-9.8-4.6-13-8.8-6-7.9-6.3-21.2-6.9-30.7-0.6-10-1.6-20-1.5-30q0-0.8 0.1-1.6c-7 0.9-14 1.5-21.1 1.3-1.4 6.4-3.2 12.7-4.2 19.2-1.9 12.7-2.8 25.6-1.8 38.5 1.1 13.8 2.8 28.5 12 38.9 3.8 4.3 8.6 7.6 13.5 10.6 9.8 6.1 19.9 11.7 30.3 16.6q5.5 2.6 11.1 5c5 2.2 10.3 4.2 15.8 4 8.9-0.3 17.6-9.6 19.7-17.9 3.9-15.3 9.8-16-2.2-21.6z"/><path class="f" d="m150.7 255.9c-8.1-3.8-31.4-14.3-45.1-20.5-0.2 2.9-1 5.9-2 8.7-3 8.1-8.1 16.2-15 21.6-3.1 2.4-6.6 4.3-10.3 5.5 9 5.6 18.4 10.7 28 15.2q5.5 2.6 11.1 5c5 2.2 10.3 4.2 15.8 4 8.9-0.3 17.6-9.6 19.7-17.9 3.9-15.3 9.8-16-2.2-21.6z"/><path class="g" d="m160.1 254.5q-0.3-3.1-1.1-6c-0.3-1.3-0.7-2.7-1.5-3.7-1.9-2.4-5.4-2.5-8.4-2.5-7.3 0-32.8-6.7-37.7-7.4q-1.7 3.7-3.4 7.6c-5.4 12.6-13.3 26-16.3 39.5 10.3 5.7 20.5 11.7 30.9 17.1 7.2 3.8 15 1.1 21.5-3.7 13.1-9.7 16-25.7 16-40.9z"/><path class="g" d="m193.1 429.1c-29.1-0.3-64.5 0.7-93.5-2.3 2-22.1 10-71.5 12.3-93.6 1.1-10.5 2.2-21 3.6-31.5 1-7.5 3.9-16 3.9-23.5 1.6-7.4 4.1-14.6 8.5-20.8 5.6-8 13.1-12.4 22.6-13.1 6-0.5 11.9-0.7 17.8-1 4-0.1 8.1-0.3 11.8 1 6.1 2 10.4 7.2 13.8 12.6 9.3 15.1 14.2 33.9 17.5 51.2 5.8 31.5 16.1 90 18.9 121.8-8.9 0.2-28.3-0.7-37.2-0.8z"/><path class="g" d="m238 307.7q8.5-2.7 16.9-5.3c-7-17.1-4.2-35.9-18.1-47.9-8.2-7-30.2-10-40.9-12-6.7-1.3-22.8-2.9-28.1 2.6-7.5 7.7 4.8 15.7 8.4 21.4 3.8 5.9 6.6 12.8 8.8 19.4 1.8 5.1 6 9.7 8.8 14.5 3.4 6 6.3 12.2 8.8 18.6q17.7-5.7 35.4-11.3z"/><path class="e" d="m177.4 246.5c-2 2.5-4.6 4.6-7.6 5.9-5.1 2.1-11.5 1.6-15.6-2.1-0.9-0.8-1.7-1.7-2.1-2.7-0.5-1.2-0.5-2.6-0.5-3.9 0.2-4.3 0.7-8.3 0.7-12.6 0-0.4 0-0.8-0.3-1-0.2-0.2-0.6-0.3-1-0.3-17 0-9.9-26.4-8.9-35.5 0.3-2 0.6-4.1 2-5.5 1.8-1.6 4.5-1.4 6.9-1.4 4.4 0.2 8.9-0.5 13.3-0.1 7.5 0.6 15.8 5.6 17 13.5 0.4 2.5 0.1 5.1-0.2 7.6-1.1 9-2.2 18.1-1.4 27.1 0.4 4.4 1.3 6.2-1.4 9.9q-0.4 0.6-0.9 1.1z"/><path class="b" d="m182.5 195c-1.3-8-10.4-16.6-18.9-15.1-2.2 0.4-4.2 1.4-6.4 2.1-2.3 0.9-4.7 1.3-7.2 1.4-4.1 0.2-8.7 0.4-10.6 4.6-1 2.1-0.9 4.6 0.1 6.6 0.2 0.3 0.5 0.7 0.9 0.8 0.3 0.1 0.6 0 0.9-0.1 1.4-0.3 2.9-0.4 4.3-0.2 1.1 0.2 2.1 0.6 3.2 0.7 1.9 0.4 3.9 0.1 5.8 0.2 6.7 0.3 4.6 6 9.3 8.4 1.4 0.7 2.1 0 3.1 1.7 1.8 3.2 0.2 7.6 1.7 11.1 1.2 2.7 6 8.3 9.3 8 4.8-0.5 3-12.3 3.3-15.7 0.5-4.7 1.9-9.4 1.3-14q0-0.3-0.1-0.5z"/><path class="e" d="m170.6 202.2c-2.8-1-6.3 0.7-7.6 3.4-1.7 3.6-0.6 9.3 4.2 9.4 2.2 0.1 4.2-0.7 5.7-2.1 1.6-1.5 1.9-4 1.5-6-0.4-1.8-1.5-3.5-3.1-4.3q-0.3-0.2-0.7-0.4z"/><path class="h" d="m142 214.5c-0.2 1.7 0.9 3.6 2.5 4.7 1.7 1 3.7 1.1 5.3 0.4 1.6-0.6 2.8-1.9 3.5-3.5z"/><g clip-path="url(#cp3)"><path class="f" d="m158.2 226.8q0.7-0.5 1.5-0.9c0.8-0.4 1.7-0.7 2.4-0.3 0.9 0.4 1 1.7 0.7 2.7-1 3.7-5.4 5.3-8.9 5.9-1.1 0.1-3.5 0.4-4.3-0.6-1.1-1.5 1.3-3.7 2.6-3.9 0.9-0.2 1.9-0.1 2.8-0.5 0.8-0.3 1.4-0.9 2-1.4q0.6-0.5 1.2-1z"/></g><path fill-rule="evenodd" class="d" d="m213.9 315.6q-3.8-9.8-7.6-19.6"/><path fill-rule="evenodd" class="d" d="m251 322.6c1.4 2.3 2.4 4.9 2.8 7.6"/><path fill-rule="evenodd" class="d" d="m169.3 205.6c-1.9 0.2-3.5 1.7-3.9 3.6"/><path fill-rule="evenodd" class="d" d="m116.6 296.3c2.1-2.2 3.9-4.6 5.3-7.3"/><path class="b" d="m199.5 292.5q4.5 1.6 9 3.2 0.1 0.1 0.1 0.1c0 0.4 2.1 9.6 2.8 13.6-6.6-2.9-12.3-9.5-14-16.6 0.4-0.7 1.4-0.6 2.1-0.3z"/><path fill-rule="evenodd" class="d" d="m196.8 565c-2.8 0.5-5.8-0.7-7.6-2.8"/><path fill-rule="evenodd" class="d" d="m126.1 559.3q-4.3 0-8.6 0"/><path class="i" d="m103.3 270.2c6.3-2.7 12.5-5.8 18.6-9 5.6-2.9 11.1-5.9 16.2-9.5q1.7-1.3 3.4-2.7c2.1-2 4-4.3 5.5-6.8-9.2-0.9-31.1-6.6-35.6-7.3q-1.7 3.7-3.3 7.6c-4.4 10.1-10.3 20.7-14 31.5q4.6-1.8 9.2-3.8z"/><path class="i" d="m236.8 254.5c-8.2-7-30.2-10-40.9-12q-1-0.2-2.3-0.4 2.1 2.8 4.1 5.6c4.4 6.2 8.5 12.5 12.6 18.9q0.8 1.2 1.7 2.4c4.1 5.8 7.5 12 10.9 18.3q0.3 0.5 0.5 1 0.4 0.7 0.8 1.3c4.5 3.1 9.3 5.8 14.3 7.9 5.2 2.2 10.6 3.8 16.1 5l0.3-0.1c-7-17.1-4.2-35.9-18.1-47.9z"/><path class="i" d="m159.2 296.8q-0.3 0.2-0.6 0.3c-11.6 1.2-21.2 11.8-22.6 23.1-0.6 5.1 0.5 10.4 3.7 14.5 2.9 3.8 7.1 6.2 11.7 7.3 9.4 2.3 19.5-0.8 26.3-7.6 3.9-4 7.3-8.9 8.3-14.6 0.8-4.3-0.1-8.8-2.5-12.6-5.1-8-15.2-11-24.3-10.4z"/><path class="i" d="m167.1 419.1c-13.3-0.8-26.5-1-39.8-1.4-8.8-0.2-17.7-0.7-26.5-1.7-0.5 4-0.9 7.7-1.2 10.8 29 3 64.4 2 93.5 2.3 8.9 0.1 28.3 1 37.2 0.8-0.3-3.2-0.7-6.7-1.1-10.4-20.7 1.2-41.5 0.9-62.1-0.4z"/><path fill-rule="evenodd" class="d" d="m78.5 147.6q-2.8 1.3-5.1 3.6"/><path fill-rule="evenodd" class="d" d="m73.7 135.5c-2.6-1-5.5-1.3-8.3-1.1-2.7 0.2-5.5 0.8-8.2 1.5"/><path fill-rule="evenodd" class="d" d="m147.9 201.7q-1.3 3.1-2.6 6.1c-0.3 0.7-0.7 1.5-0.4 2.2 0.2 0.7 1.3 1.1 1.8 0.5"/></g><g clip-path="url(#cp4)"><path class="j" d="m386 206.7c-8.4 9.3-20.2 9.6-30.3 15.5-9.6 5.6-10.3 19.3-6.9 29.9 3.1 9.7 12.1 17.9 22.2 17.9 4 0 7.8-1.2 11.4-2.6 24.1-9.2 44.9-29.2 54.1-53.4 9.8-25.9 7.5-56.8 8.6-84 0.1-3.6 0.2-7.2 0.7-10.8 0.5-4.4 1.4-8.7 2.3-13q2.2-11.4 3.3-22.9c0.1-1.2 0.4-3.5-0.8-4.3-0.5-0.3-1.3 0-1.6 0.6-0.4 0.6-0.7 1.4-0.9 2.3-0.2 1.4-0.4 2.8-0.6 3.9-0.4 1.6-0.8 3.1-1.1 4.7-0.2 1.1-0.7 2.5-1.5 3.3-0.4 0.5-1.2 0.6-1.6 0.2-0.4-0.3-0.4-0.9-0.4-1.3 0.2-2.4 1.3-4.5 1.6-6.8 0.4-2.6 1-5.1 1.3-7.7 0.1-0.8 0.2-1.6 0-2.4-0.3-0.7-0.9-1.4-1.7-1.5-0.5-0.1-1.1 0.2-1.5 0.6-0.6 0.6-0.9 1.5-1 2.4q-0.9 4.2-1.8 8.3-0.5 2.1-0.9 4.2c-0.3 1-0.4 2.1-1.4 2.7-1.4 0.9-1.5-1.3-1.4-2 0.5-3.7 0.9-7.4 1.4-11.1 0.2-1.4 0.6-2.8 0.7-4.2 0-1.3-0.8-3.2-2.4-2.8-0.7 0.1-1.3 0.7-1.6 1.4-0.3 0.7-0.3 1.4-0.4 2.2-0.4 4.7-0.7 9.7-2 14.3-0.2 0.7-0.3 1.7-0.8 2.2-0.3 0.3-0.7 0.5-1.1 0.4-0.5-0.2-0.6-0.7-0.7-1.2-0.8-4.2-0.7-8.6-0.3-12.8 0.1-0.8 0.2-1.5-0.1-2.3-0.2-0.7-0.9-1.3-1.6-1.3-2.3 0.2-2.4 4.3-2.5 5.9q-0.1 4.3-0.4 8.7c-0.1 2.7 0.5 7.5-1.2 9.9-0.8 1.2-2.8 1.7-3.8 0.6-0.4-0.4-0.5-1.1-0.7-1.7-0.4-2.3-0.6-6.4-2.1-8.2-0.3-0.5-0.8-0.8-1.3-0.8-0.8 0-1.3 0.6-1.6 1.3-0.4 1.4 0.3 3.1 0.4 4.5 0.2 2 0.5 3.9 0.8 5.9 1.5 8.4 5.5 13.3 4.6 21.8-2.2 20.7-14.1 41.9-21.6 61.3-3 7.8-6.2 15.9-11.8 22.2z"/><path fill-rule="evenodd" class="k" d="m445.9 95c-5.6-2.3-11.9-2.7-17.6-1.2"/><path  d="m235.5 411.4c1.6-9 13.2-46.8 19.5-53.5 4.3-4.6 10.2-7.2 15.9-9.8 9-4 18.1-8 27.9-9.3 13.8-1.8 28.2 2.2 39.5 10.5 12.2 9 19.7 21.7 22.4 36.4 1.6 8.2 4.7 16.1 6 24.5 1.2 8.2 1.8 16.4 2.4 24.6 1.1 18.7 0.7 37.5 2.3 56.1 0.5 6.4 1.4 12.8 1.7 19.2 0.2 3.2 0.1 6.6-1.9 9.1-1 1.4-2.6 2.3-4.1 3.2-18.8 10.1-40.9 11-62.3 11.4 0-2.3 0-4.5 0-6.8 0.2-13.1-0.4-26.1 0.3-39.1 0.6-9.3-2.3-18.6-2.5-27.9-0.2-8.5-0.6-17-0.5-25.5 0-1.3-0.2-3.1-1.5-3.5-3.2-1.1-3 3.5-3 5.1 0 3.4-0.9 6.8-1.3 10.2-0.9 7.6-1.2 15.2-1.8 22.9-0.7 8.1-2.1 16.2-2.5 24.4q-0.6 12.7-0.7 25.4c-0.1 3.2 1.1 10-0.9 12.2-1.6 1.7-6.8 2.1-9.1 2.6-6.3 1.2-12 0.2-18.2 0.1-13.8-0.5-32.5 3.9-32.7-15.3-0.6-45.5-2.6-62.3 5.1-107.2z"/><path class="l" d="m278.7 235.3q0 0.4-0.2 0.8-0.1-0.2-0.3-0.3z"/><path class="m" d="m198.5 337.1q0 1.4 0 2.7c0.5 15.2 23 10.2 32.1 6.9 3.2-1.2 6.4-2.7 9.5-4.4 2.2-20.2 4.7-39.9 13.7-58.7 5.5-11.3 13.8-21.5 18.3-33.3q0.5-1.1 0.8-2.4c0.8-3.2 0.8-7-1.4-9.6-3.5-4-10-2.8-15-0.8-28.8 11.7-47.6 37.8-54.6 67.5-1.4 6-2.4 12.1-2.9 18.3-0.5 5.8-1.7 13.2-0.2 18.9 0.5 1.6 1.4 3.2 2.9 4.1"/><path class="n" d="m250.2 316c-14.4-5.6-41.5-16.2-55.4-23 8-9.9 29.9-44.5 40.5-51.3 3-2 6-3.6 9.2-5.1 14.6-7.1 31.1-11.1 47.3-10.3 1.2 0.1 2.4 0.2 3.6 0.5-1.1 5.4-4.9 11-8.1 15.4-2.5 3.4-5.3 6.7-8.1 9.8-4.5 5.1-8.7 10.5-13 15.7-1.5 1.8-11.9 44-16 48.3z"/><path class="n" d="m255.1 265.9c3.2-9.7 7.9-29.6 16-36.2 6.6-5.5 18.3-3.6 26.4-3.5 13 0.3 25.7 4 36 12.2 28.7 23.1 32 68.1 33 102.1 0.4 14.6 0.4 29.3 0.6 43.9-20.5-3.6-40.9-3.9-61.8-4.2-5.3 0-63.6-0.8-63.6-1.8-0.5-21 2.5-40.9 5.1-61.5 2.2-17.3 2.7-34 8.3-51z"/><path class="l" d="m327.6 235.3q0 0.4 0.2 0.8 0.2-0.2 0.4-0.3z"/><path class="n" d="m388.8 247.3c-5.3-11.7-10.6-23.3-16.2-34.9-9.6 2.8-61.2 16.8-61.7 14.4 1.2 5.4 4.9 11 8.2 15.4 2.5 3.4 5.2 6.7 8 9.8 4.5 5.1 8.7 10.5 13.1 15.7 6.2 7.4 0.8 18.3 11.6 16.8q1.6-0.3 3.9-0.9c13.9-4.1 27.4-9.7 40.1-16.8-2.4-6.5-4.7-13-7-19.5z"/><path class="j" d="m316.1 193.2c0.2-3.6 0.1-7.2-0.8-10.7-0.9-4.1-2.5-6.8-5.7-9.4-3-2.5-6.6-4.2-10.5-4.7-11.5-1.4-19.1 8.3-20.2 18.9-0.5 4.3-0.9 8.6-0.4 12.9 0.4 3.6 2.2 6.2 3.9 9.4 0.4 0.7 0.8 1.4 1 2.2 0.2 0.7 0.2 1.5 0.2 2.2 0 2.3 0.2 4.5 0 6.8-0.1 1.1-0.3 2.2-0.8 3.2-0.7 1.2-1.9 1.7-3.1 2.1q-0.2 0.1-0.5 0.2c0.7 0.4 1.3 1.2 1.8 1.8q1.1 1.1 2.1 2.2 1 1.1 2.1 2.1c0.3 0.4 0.8 0.9 1.2 1.2 2.8 1.5 6.4 2.5 9.4 2.9 4.9 0.5 9.8-0.8 14.1-2.9 1.1-0.5 8.4-5.1 6.3-6.8-0.2-0.1-0.4-0.2-0.6-0.2-1.3-0.3-2.4-1.3-3-2.5-0.6-1.2-0.9-2.5-1.2-3.8q-0.6-2.7-1.1-5.3c-0.8-3.6 1.2-5.6 2.7-8.6 1.7-3.2 2.6-6.7 2.9-10.2q0.1-1.5 0.2-3z"/><path  d="m278.2 192.3c-1.1 0.3-2.1-0.2-2.6-2.2-0.9-3.9-0.1-9 0.6-12.9 0.2-1.5 0.6-3.2 1.9-4.1 0.3-0.3 0.7-0.4 1-0.5 0.9-0.1 1.8 0.1 2.6 0 1-0.1 1.6-0.7 2.7 0 1 0.7 1.4 2 1.4 3.2 0 1.2-0.3 2.3-0.6 3.5q-0.9 3.6-1 7.3 0 0.6-0.3 1.2c-0.5 0.8-1.8 0.8-2.6 0.6-0.3 1.6-1.7 3.5-3.1 3.9z"/><path  d="m315.8 195.1c-1 0-1.8-0.8-2.2-2.2-0.5-2.1 0.2-5.1-1-6.9-0.3-0.4-0.6-0.7-0.9-1.1-1.4-1.9-1-4.5-1.5-6.8-0.4-1.4-1-2.7-1.5-4-0.5-1.3-0.8-2.7-0.5-4 0.8-3.6 4.2-2.4 6.2-0.6 3.2 2.9 5 7.4 5.5 11.6 0.3 2.7 0.3 14.4-4.1 14z"/><path class="j" d="m281.5 196.4c-1.4 1.2-4.4 0.8-5.7-0.4-0.9-0.8-1.4-2-1.8-3.2-0.4-1.1-0.7-2.3-0.6-3.5 0.3-3.8 4.1-7.1 7.8-4.8 3.3 2.1 3.3 6.1 2 9.4-0.4 0.9-0.9 1.9-1.7 2.5z"/><path class="o" d=""/><path class="o" d=""/><path class="j" d="m311.5 189.6c-0.2-2.2 0.4-4.5 2.6-5.6 1.4-0.6 3.1-0.5 4.4 0.4 1.3 0.9 2.1 2.4 2.4 4 0.2 1.6 0 3.2-0.4 4.7-0.2 0.8-0.4 1.5-1 2.1-1.2 1.4-4.2 1.9-5.6 0.7-1.6-1.3-2.2-4.3-2.4-6.3z"/><path fill-rule="evenodd" class="p" d="m294.8 171.8c0.1-1.7 0.7-3.4 1.7-4.9"/><path  d="m312.3 175.6q-0.3 0.1-0.6 0.1c-2.3 0.4-4.6-0.5-6.7-1.6-0.8-0.4-1.5-0.9-2.4-1.1-0.9-0.2-1.9-0.2-2.8-0.1-3.9 0.4-8 0.7-11.7 2-2.3 0.4-6.7 1.4-8.5-0.8-1.7-2.1-0.3-6.1 1.2-8 1.5-1.9 3.7-3.3 5.9-4.3 4.5-2.1 9.6-3.1 14.6-2.7 4.5 0.4 9.3 2.2 12.2 5.7 2.9 3.3 4.1 9.6-1.2 10.8z"/><path class="h" d="m303.8 203.1c-1.9 2.4-5 3.7-8.1 3.4-3-0.4-5.8-2.3-7.2-5"/><g clip-path="url(#cp5)"><path class="m" d="m283 211c1.3 1.2 2.7 2.5 4.4 3 1.3 0.3 2.6 0.1 3.8 0.1 2.3-0.1 4.7 0.1 6.8 1-0.2 0.6-0.7 1-1.3 1.2-0.6 0.2-1.2 0.3-1.8 0.5-0.7 0.2-1.4 0.5-2 0.8-3.2 1.3-6.8 0.8-10.1 0.1-0.6-0.1-1.2-0.4-1.3-0.9"/></g><path fill-rule="evenodd" class="k" d="m247.6 316.2q5.7-17.3 11.4-34.7"/><path fill-rule="evenodd" class="o" d="m296.4 185.5q0.9 4.3 1.7 8.6c0.1 0.6 0.2 1.3 0.2 1.9-0.1 0.6-0.3 1.2-0.8 1.6-0.5 0.4-1.2 0.5-1.7 0.1"/><path class="j" d="m198.3 328.6c0.6-2.5 1.6-5 3.4-6.9 4.7-4.8 10.4-5.9 16.9-5.4 2.4 0.1 4.8 0.4 7 1.2 2.7 1 4.9 2.7 6.9 4.8 5.1 5.2 6.8 11.2 8.4 18 1.1 4.6 1.7 9.4 2.9 14 3.4 12.6 8.2 25 11.2 37.7q-1.2 2.5-2.4 4.8c-3.8 7.6-8.9 14-14.7 19.8-12-13.3-22.3-28-30.6-43.9-6.3-12-9.7-23.8-9.6-37.4 0-2.2 0.2-4.5 0.6-6.7z"/><path fill-rule="evenodd" class="k" d="m257.2 386.9c-3.2 10-9.6 18.6-15.9 27-1.6 2.1-3.3 4.3-5.8 5.2"/><path fill-rule="evenodd" class="o" d="m317.2 185.9c-2.2 0.7-3.8 2.9-3.7 5.3"/><path fill-rule="evenodd" class="o" d="m278.4 187.6c0.4 0.2 0.9 0.3 1.3 0.6 1.2 0.7 1.6 2.4 0.8 3.6"/></g><g clip-path="url(#cp6)"><path class="q" d="m518.4 598.4c4.8 1 13.9 0.5 18.4-1.2q-1.4-51.8-2.8-103.7c-0.5-19.3-1-38.7-3.3-57.9-1.4-11.5-3.4-23-7.7-33.8-2.6-6.6-7.5-19.6-14.5-22.9-22.1-10.4-39-10.5-37.6 1.6 2.7 23.3 10.9 33.9 15.4 81.7 2.8 30.2 20.2 104.7 23.5 134.8 0 0.5 4.9 0.7 8.6 1.4z"/><path  d="m512.5 586.2q-2.2 0.1-4.3 0.3c-0.2 5.5-5.8 9-10.7 11.6q-13 6.8-25.6 14.4c-1.1 0.7-2.2 1.4-2.7 2.5-3.5 6.7 12.9 3.4 15.5 3.2 20.8-1.4 55.4-4.2 55.3-6.1-0.8-9.5-2.1-18.7-2.8-28.3q-12.3 1.5-24.7 2.4z"/><path class="q" d="m433.3 598.7c1.3 0.3 14.3 0.1 14.3 0.2 2.1-4.7 6.4-37.9 7.6-56.2 1.4-23.2 4.1-43.3 4.4-66.6 0.4-20.8-0.2-42.3-9.1-61.2-2.3-4.9-5.3-9.8-9.9-12.9-4.5-3.2-11-4.4-15.9-1.7-6.9 3.6-8 12.3-8.3 19.8-2.4 59.5 5.6 117.5 8.4 176.7 0 0.6 4.8 0.9 8.5 1.9z"/><path class="r" d="m472 470q-3.8-26.3-7.6-52.6c-0.7-5.2-1.6-10.6-2.4-15.9-1.4-9.8-2.6-19.8-2-29.4 0.7-12.9 0.2-26.3 3.6-39 1.2-4.6 3-9.2 6.7-12.1 5.9-4.7 14.7-0.1 20.7 2.5 6.5 2.8 12.1 7 16.6 12.4 9.4 11.2 13.4 25.9 17.7 39.6q3.2 10.5 6 21 5.4 20.4 9.1 41c4.2 23 6.9 46 6.3 69.5-0.1 1.3-0.2 2.8-1.1 3.8-1.1 1.1-2.7 1.1-4.1 1.2q-14.2 0.3-28.4 1.6c-7.8 0.6-20.8 7.3-28.3 3.9-11.1-5-11.3-36.9-12.8-47.5z"/><path class="r" d="m406.7 453.7c-0.2-7.9-0.3-15.9 0.2-23.9 1.7-25.9 3.8-54 15.1-77.8 1.9-4.1 4.1-8.1 7.4-11.2 5.5-5.1 13.3-7.2 20.9-7.2 4.5 0 9.2 0.7 13.2 2.8 2.9 1.5 6.2 4 7.5 7.1 1.3 2.8 0.3 5.3-0.1 8.3-1.2 8.9-4 18.8-3.1 27.7 0.9 9.4 1.5 18.8 1.6 28.2 0.4 35.9 0.5 71.1-3.6 106.8-4.8-3.3-11.2-1.9-17-1.5-13.9 1.1-28.2-3.7-41.7 0 2-19.9 0.2-39.6-0.4-59.3z"/><path  d="m460.1 197.5c-5.9-0.4-12.2-4.1-15.9-7.9-2.8-2.9-6-8.3-6.5-12.5-0.2-1.8 0.1-3.7 0.4-5.6 0.5-3.6 0.7-7.2 1.7-10.7 1-3.5 2.9-6.8 6-8.7 4.3-2.7 9-0.5 13.3 0.9 4.7 1.5 9.5 3.1 13.5 5.9 3.9 2.9 7.1 7.3 7.3 12.2 0.1 1.8-0.3 3.6-0.2 5.4 0 1.2 0.2 2.5 0 3.8-0.2 0.9-0.7 1.7-1.2 2.4q-2.3 3.9-5.1 7.5c-1.6 2.2-3.5 4.4-5.8 5.8-2.3 1.3-4.9 1.7-7.5 1.5z"/><path class="c" d="m504.3 365.8c-3.7-0.2-7.5-0.7-11.2-0.7-12.9-0.2-25.7 2.5-38.5 4.1-20.3 2.6-52.5 8-58.7-17.7-1.8-7.5-1.3-15.4-0.7-23.1 1.7-23.5 3.6-47.5 12.5-69.4 10.1-24.9 30.7-46.3 58.5-49 5.9-0.5 11.7 0 17.6 0q5.2 0.1 10.4 0.2c0.3 0 0.6 0 0.9 0.1q0.3 0.3 0.6 0.6c0.6 0.9 1.3 2.4 2.1 3 0.7 0.5 1.7 0.7 2.5 1q3 1.3 5.8 3.1 2.8 1.7 5.2 3.8c1.3 1.1 3.5 2.8 4.2 4.4 6.6 8.4 7.8 19.7 8.6 30.4 2.1 29.4 3.9 58.9 0.8 88.4-0.4 4.1-0.9 8.3-2.8 12-4.2 8.3-10.7 9.2-17.8 8.8z"/><path class="q" d="m441.2 169.3c0.8-2.1 1.8-4.1 3.3-5.8 6.6-7.3 21.4-7.4 27.4 0.4 4.1 5.3 4 13 3.8 19.4q-0.1 3.2-0.1 6.4 0.1 5.2 0.4 10.4 0.1 2.7 0.3 5.4c0 0.8 0 1.5 0.2 2.3 0.1 0.8 0.6 1.3 0.8 2.1 0.3 0.7 0.1 1.5-0.1 2.3-0.3 1.3-0.8 3.3-1.8 4.4-1 0.9-2.4 1.5-3.5 2.1q-2.1 0.9-4.1 1.9c-0.6 0.2-1.1 0.5-1.7 0.6-0.6 0.2-1.2 0.2-1.8 0.4-0.7 0.2-1.3 0.5-2 0.6-0.5 0-1 0-1.5-0.1-2.1-0.3-4.1-1.1-5.8-2.4-0.6-0.6-1.6-1.5-1.9-2.3-0.3-1.1-0.3-2.3-0.5-3.4-0.4-3.6-0.6-7.3-1-10.9-0.1-0.6-0.1-1.1-0.4-1.5-0.4-0.8-1.2-1-2-1.2q-1-0.3-1.9-0.9c-1.5-0.8-2.6-2.3-3.6-3.6-2.2-2.8-3.7-6.2-4.4-9.8-1-5.6-0.1-11.4 1.9-16.8z"/><path class="q" d="m469.9 181.5c0 3.4 2.7 6.2 6.1 6.2 3.4 0 6.1-2.8 6.1-6.2 0-3.4-2.7-6.1-6.1-6.1-3.4 0-6.1 2.7-6.1 6.1z"/><path fill-rule="evenodd" class="k" d="m475 178.7c1.3 0.2 2.6 1.2 3 2.5 0.4 1.3 0 2.8-1 3.7"/><g clip-path="url(#cp7)"><path  d="m447.1 205.9c1.8 0.7 3.8 0 5.6-0.9 2.7-1.4 5.2-3.3 6.6-6.1-2.5 1.2-5.2 1.9-7.9 1.9-1 0-2-0.1-3-0.2q-2.2-0.2-4.3-0.3"/></g><path  d="m473.9 154.9q-1.3-2.1-2.8-4.1c-0.9-1.2-2.1-2.5-3.6-2.7-1.5-0.2-3 1.1-2.6 2.6-0.7-1.9-2.6-5.1-4.1-6.4-1.3-1.1-3.2-1.6-4.7-0.9-1.5 0.8-2.3 2.9-1.4 4.3-0.8-1.3-1.5-2.6-2.7-3.4-1.1-0.9-2.8-1.3-4-0.6-1.9 1-2 3.6-1.6 5.6-0.2-1.2-2.9-2.5-3.9-2.9-1.7-0.5-3 0.8-3.4 2.5-0.3 1.4 0.1 3 1 4.2-1-0.8-2.7-0.4-3.4 0.6-0.8 1.1-0.8 2.6-0.1 3.7 0.7 1.1 1.9 1.8 3.2 2.1-1.3 1.4-2 3.3-1.9 5.2 0 1.1 0.4 2.3 1.4 2.7 1.1 0.4 2.2-0.2 3-1 0.9-1 1.4-1.7 2.6-2.2 1.1-0.5 2.6-1 3.4-2.1-0.6 0.8-0.2 2 0.7 2.5 0.9 0.5 2 0.4 2.8-0.1 0.9-0.4 1.6-1.1 2.3-1.8-0.6 1.6 1.1 3.4 2.9 3.3 1.7 0 3.1-1.3 4.1-2.8-0.8 1.3 0.5 3.1 2 3.4 1.5 0.3 3-0.4 4.3-1-0.3 0.6-0.3 1.4 0.1 2 0.5 0.5 1.3 0.7 1.9 0.5-1.4 2-1.9 4.7-1.4 7.1 0.1 0.9 0.5 1.9 1.1 2.5 1.6 1.7 3 0.7 3.9-0.7 1.2-1.8 2.8-1.3 4.7-1.9 1.8-0.5 1.3-3.2 1.3-4.8 0-5.5-2.1-10.7-5.1-15.4z"/><path fill-rule="evenodd" class="k" d="m412.9 378.5c-2.3-15 2.2-30 5-45 1.3-7.5 2.2-15.2 3.2-22.8 1.9-16.2 0.3-33.8 0-50.2"/><path  d="m421.9 590.1c-3 6.2-10.1 10.7-16.4 12.7-9.2 3-18.2 6.4-27.2 9.7-1 0.4-2 0.8-2.5 1.8-0.4 1 0.1 2.2 0.9 2.9 0.9 0.7 2 1 3.1 1.2 5.7 1.1 71-0.8 71-2.6q0-15 0-30-11.1 0.6-22.3 1.1c-1.8 0.1-3.8 0.2-5.5-0.6q-0.2 2-1.1 3.8z"/><path fill-rule="evenodd" class="k" d="m469.5 455.5c-0.3-5.4-0.8-10.8-1.2-16.1-0.5-6.1-2.1-11.2-3.3-17.1-2.9-13.4-2.8-27.4-7.8-40.3"/><path  d="m438 183q0.5 4.1 1 8.2c0.8 6.4 3.9 12.5 10.6 14.3 2.8 0.8 5.8 0.3 8.6-0.4 2.4-0.6 4.8-1.4 6.9-2.7 2.2-1.3 4-3.2 5.1-5.6 0.5-1.3 0.9-2.7 1.4-4.1 0.4-1.2 1.1-2.4 1.6-3.6 1.3-2.6 0.5-4.6 0.3-7.2-0.2-2.5-0.5-5.1 1-7.1 0.4-0.5 0.8-1.1 1-1.7 0.2-1-0.5-2-1.3-2.5-0.9-0.5-1.9-0.6-2.9-0.6-0.8 0-1.6 0-2.2 0.5-0.4 0.3-0.7 0.8-0.9 1.3-0.7 2.2 0.1 4.5 0 6.8 0 1.8-0.1 3.6-0.7 5.4-1.3 3.4-4.1 5.4-7.9 5-1.5-0.2-2.8-1-4.2-1.6-3.2-1.5-6.9-1.7-10.3-0.8-4.6 1.3-4.6 1.3-4.9-3.7q-0.1-3.6 0-7.2c0.1-1.9-0.1-4 0.5-5.8 0.2-0.6 0.4-1.2 0.3-1.8-0.1-0.6-0.6-1.2-1.2-1.1-0.4 0-0.8 0.3-1 0.7-0.1 0.4-0.2 0.8-0.2 1.2-0.6 4.8-1.2 9.2-0.6 14.1z"/><path fill-rule="evenodd" class="k" d="m450.7 172.3c0 2.2-1 4.2-1.6 6.2-0.1 0.6-0.3 1.3 0 1.8 0.4 1 1.6 1.2 2.6 1.2"/><path fill-rule="evenodd" class="k" d="m501.1 372.3c2.8 7.5 9.5 13.4 17.3 15.2"/><path class="q" d="m539.4 113.3q-0.3-0.1-0.7 0.1c-1.3 0.7 0.4 7.3 0.4 8.7 0.1 0.7 0.3 2.4-0.3 2.9-1.1 0.8-1.7-0.5-1.8-1.4q-0.7-5.7-1.3-11.4c-0.1-0.9-0.2-2.1-1-2.6-0.5-0.3-1.2-0.3-1.7 0.1-0.9 0.6-0.9 2-0.8 3.1q0.7 5.3 1.3 10.7c0.2 1.1 0.3 3.2-1.5 3-0.9-0.1-1.2-1.1-1.4-2-0.7-3.4-1.4-6.7-2.2-10.1-0.2-1.2-0.4-4.4-1.4-5.2-0.3-0.2-0.8-0.3-1.2-0.3-0.2 0-0.5 0-0.8 0.1-0.5 0.3-0.7 1-0.7 1.6 0 1.9 0.4 3.7 0.9 5.6q1.3 4.7 1.5 9.5c0.1 1.4-0.3 5-2.1 3.1-0.9-1-1.1-2.8-1.6-4q-1.5-4.1-3-8.1c-0.7-1.8-3.6-0.9-2.9 1q1.6 4.9 3 9.9c0.7 2.5 2.7 6.5 2 9-0.3 1.4-1.9 2.4-3.1 1.8-0.5-0.3-0.9-0.8-1.2-1.3-1.1-1.9-2.4-5.4-4.3-6.6-0.4-0.3-1-0.4-1.5-0.2-0.6 0.2-0.9 0.9-0.9 1.6 0 1.3 1.2 2.6 1.7 3.8 0.8 1.6 1.7 3.3 2.6 4.9 1.7 3.1 3.8 6.1 6.4 8.5 1.4 1.2 2.9 2.3 4.1 3.7 2.2 2.8 2.8 6.2 3.6 9.6q0.7 2.8 1.4 5.7c0.6 2.5 1.2 5.2 2.8 7.3 1.6 2.2 4.5 3.6 7 2.8 1.5-0.5 2.8-1.7 3.5-3.2 0.7-1.4 1-3 1.2-4.6 0.7-8.1-2-16.2-1.5-24.4 0.7-10.2-0.3-20.7-2.9-30.6-0.1-0.6-0.3-1.2-0.7-1.6-0.2-0.3-0.5-0.5-0.9-0.5z"/><path class="c" d="m572.7 218.9c-3-18.8-7.9-37.3-14.5-55.1-2.7-7.1-3.2-9.4-5.7-10.2q-1.5 0.2-3.1 0.5-5.1 0.7-10.3 1.5-9.7 2.6-19.4 4.9c-0.3 1.8 0.5 4.2 1.2 9.2 2.5 18.1 4.9 36.3 7.4 54.4 0.8 6.3 1.7 12.8 4.2 18.7 2.4 5.9 6.7 11.3 12.6 13.8 9 3.7 20.2-0.8 25.1-9.2 5-8.4 4.1-18.9 2.5-28.5z"/><path class="c" d="m485.9 210.6c-3.7 0.4-7.9 1.1-9.8 4.3-0.9 1.4-1.2 3.2-1.4 4.9-1.6 14.3-11.8 38.9 6.7 46.5 6.2 2.6 13.3 1.5 20 0.3q23.7-4 47.5-8c4-0.7 8-1.4 11.7-3.2 5.8-2.9 10-8.8 11-15.2 5.4-35.8-65.4-31.6-85.7-29.6z"/><path fill-rule="evenodd" class="k" d="m477.5 210c-0.5 2.6-1.1 5.5-3.2 7.4-0.7 0.7-1.7 1.2-2.6 1.6-3.2 1.6-6.6 3-10.1 3-5.2-0.1-10.4-4.6-9.6-10.1"/><path fill-rule="evenodd" class="k" d="m525.3 211.1c5.8 1.1 11.2 3.6 15.8 7.2"/><path fill-rule="evenodd" class="k" d="m524.5 130.5q8-3.1 16.2-4.8"/><path fill-rule="evenodd" class="k" d="m521 138.4c1.6 0 3.2 1.1 3.6 2.7"/></g><g clip-path="url(#cp8)"><path class="s" d="m697.5 227.7c-0.1-1.6-0.3-3.2-0.8-4.7-0.3-1-0.8-2-1.7-2.4-1.1-0.6-2.3 0.1-2.6 1.2-0.4-0.9-0.7-1.9-1.9-1.8-0.6 0.1-1.1 0.6-1.3 1.2-0.1-0.8-1.1-1.2-1.9-0.9-0.7 0.3-1.2 1.1-1.4 1.9 0.2-0.8-2-0.2-2.2-0.1-0.7 0.5-1.2 1.8-1.4 2.6-0.5 2.4-0.8 5.3-1 7.8-0.3 2.4 0.3 6.3-1.4 8.1-2.8 2.9-3.5-5.4-4.2-7.1-0.3-0.6-0.6-1.2-1.2-1.7-0.6-0.4-1.4-0.5-2-0.1-1.1 0.7 0 3.9 0.1 5 0.1 1.6 0.2 3.3 0.4 4.9 0.4 3.2 1.1 6.3 2.5 9.2 0.7 1.4 1.6 2.8 2.1 4.4 0.9 3 0.2 6-0.3 9q-0.4 2.6-0.7 5.1c-0.3 1.9-0.6 3.2 0.4 4.8 0.8 1.4 1.9 2.5 3.4 3.1 1.9 0.8 4.1 0.6 5.8-0.3 1.3-0.8 2.3-1.9 3.1-3.1 1.4-2.2 2.2-4.7 3-7.2 2-6.4 4-12.7 5-19.3 1-6.2 0.6-12.4 0.2-18.6q0-0.5 0-1z"/><path fill-rule="evenodd" class="o" d="m685.9 221.9c0.7 5.7 0.3 11.6-1 17.2"/><path fill-rule="evenodd" class="o" d="m689.1 221c1.1 5.5 1.1 11.3 0 16.8"/><path fill-rule="evenodd" class="o" d="m692.6 221.6c1.1 5.7 1.2 11.7 0.3 17.5"/><path fill-rule="evenodd" class="o" d="m694.9 240.3c-3.6-2.2-8.5-2.3-12.1-0.1"/><path  d="m604 238.4q8.4-0.6 16.8-2c4-0.6 8.2-1.5 11.1-4.3 3-2.7 4.1-7.9 1.3-10.8-1.9-1.9-4.7-2.2-7-3.6-5.3-3.3-2.9-8.5-4.9-13.2-2-4.7-7.4-8.6-11.9-10.7-9.5-4.7-21.8-4.4-29.6 3.3-3.5 3.4-5.8 7.9-9.6 11-4.3 3.6-10.1 4.8-15 7.6-4.8 2.9-8.9 8.9-6.4 13.9 1.9 3.8 6.6 5.2 10.8 6 14.6 2.8 29.5 3.7 44.4 2.8z"/><path class="t" d="m642.2 311.5c4.6 6.2 10 12 16.7 17.9 2.7 2.3 6.1 4.8 9.6 3.9 2.8-0.7 4.6-3.5 5.1-6.3 0.5-2.8-0.2-5.7-0.9-8.5-3.9-15.4-10.4-26.9-19.5-39.6-7.4-10.2-14.4-22.3-25.5-29-4.8-3-10.3-4.6-15.7-6.1 1.9 0.5 4.3 8.9 4.9 10.6 1.2 3.4 1.3 6.7 2.1 10.1 2.1 8.1 6.3 16 9.8 23.6 4 8.9 8.2 16.4 13.4 23.4z"/><path class="s" d="m547.2 506q-0.2 25 0 49.9c0.1 4.2 4 67.4 3.2 67.6 5.3-1 15.1 0.8 19.6-1.3 5.5-2.6 3.7-4.1 6.5-9.8 6-12.1 10.1-21.9 12.1-35.6q6.4-43.8 12.8-87.6c3.5-23.8 7-48.1 4.1-72-1-8.7-17.6-13.2-24.4-12.2-9.1 1.3-17 7.7-21.9 15.5-4.8 7.9-7 17.1-8 26.3-2.2 19.9-3.8 39.2-4 59.2z"/><path class="s" d="m611.7 444q-0.4-3.2-0.7-6.5c-1-8.5-1.7-18.1 3.8-24.7 6.8-8.5 23.3-8.6 32.9-5.3 8.5 3 9.5 6.5 11.6 15.2 4.2 17.3 5.6 35.6 7.2 53.2 2.1 21.9 24.9 145-18.8 137.7-3.8-0.6-7.1-2.9-9.8-5.7-8.4-8.9-10.2-22-11.6-34.2q-7.3-64.8-14.6-129.7z"/><path class="g" d="m665.5 397.9c-2.5-10.6-5.1-21.1-8.3-31.4-2.5-7.9-5.4-15.7-9-23.2q-0.8-0.8-1.6-1.6c6.2-5.4-3.7-21-6.6-26.1-9-16-15.3-33.4-22.3-50.4-2.7-6.6-5.7-13.3-10-19.1-1.2-1.6-2.6-3.2-4.5-3.8-7.9-2.5-14.8 1.9-20.7 6.9-2.3 1.9-4.6 3.8-6.5 6.1-6.2 7.7-7.1 18.3-7 28.2 0.1 18.6 2.5 37.1 4 55.6q0.1 1.9 0.3 3.8c-21.8 9.9-28.3 38.2-31.9 60.8q-2.7 16.7-4 33.6c-0.7 10-2.2 21.2-1.1 31.3 0.5 3.9-1.3 5.7 2.7 8 2.1 1.1 8-1 8.2-0.9 12.7 9.3 31.6 8.7 43.7-1.3 12 11.4 34.4 8.1 42.7-6.3 8.6 11.8 30.3 21.7 40.2 6.3 6.4-9.8 1.2-25.4-0.4-36.1q-3.1-20.4-7.9-40.4z"/><path class="t" d="m643.7 296.8c8.3 21.8 15.9 44.1 20.4 67 0.2 1 0.4 2.1 1.1 2.8 0.6 0.8 1.8 1.2 2.7 0.6-1 0.7-0.4 5.9-0.2 7q0.6 4 1.5 7.9 1.9 8.3 3.5 16.5 0.2 1 0.4 2c0.7 3.6-1.8 7-5.4 7.4q-0.5 0-0.9 0c-9.2 0.7-18.4-2.4-26.4-6.5-7.3-3.7-13.3-9-17.2-16.2-2.4-4.2-3.9-8.8-5.3-13.4v-0.1q-1.3-4.7-1.7-9.6-1.4-20.8-3.6-41.5c-0.9-8.2-1.8-16.4-3-24.5-1.3-8.2-2.6-16.3-3.8-24.5-1.1-8.1-0.4-10.7-0.9-18.9-0.1-2.1-2-9.8-2.1-11.9 25.8 1.3 33.4 36.2 40.9 55.9z"/><path class="t" d="m602.4 385.6c-4.4 13-12.7 24.8-24.8 30.9-4.9 2.6-10.4 4-15.8 5.2-6.8 1.4-14.6 2-19.7-2.5-5.8-4.9-5.6-13.7-4.8-21.2 3.3-27.6 12.2-53.4 14.4-81.1 1.7-21.3-2.2-42.1 7.2-61.3 3.9-8 16.2-11.9 27.9-13.6 5.2-0.8 9.9 3.2 10 8.4 0.6 16.3 2.1 32.5 4 48.7 3.1 26.6 9.9 52.9 3.6 79.7q-0.8 3.5-2 6.8z"/><path class="s" d="m526.3 345.7q1 2.3 2.2 4.4c2.6 5 5.9 9.6 9.2 14.3q6.4 9 12.9 18.1c0.3 0.6 0.8 1.1 1.4 1.4 0.8 0.3 1.7 0 2.4-0.4 6.7-3.1 9-10.2 11-16.7 0.1-0.2 0.1-0.3 0.1-0.5q-0.2-0.1-0.3-0.3-1.8-1.4-3.8-2.3c-3.4-1.5-5.5-2.5-7.8-5.4-3.2-4.1-4.9-9.1-7.5-13.6-2.6-4.7-5.8-9.1-9.8-12.6-2.1-1.7-4.7-3.3-7.3-2.7-2 0.5-3.6 2.2-4.3 4.2-0.6 1.9-0.6 4.1-0.2 6.1q0.6 3.2 1.8 6z"/><path class="t" d="m580.7 244c-3.9 0.3-7.8 0.9-11.5 2.3-2.5 1-4.8 2.3-7.3 3.4-7 3.2-14.7 4.6-21.6 8.3-7.4 3.9-14.7 8.7-21 14.3-8.8 7.7-15.8 18-16.9 29.6-0.7 8.4 1.7 16.7 4.9 24.5 4.3 10 10 19.4 17 27.8 2.3 2.7 3.3 4.7 7 5.5 8.1 1.8 27.3-2.7 24.4-14-4.2-16.1-9.6-31.8-16.1-47 10.9-3.8 21.2-9.3 31.4-14.7 6.3-3.3 12.7-6.7 17.6-11.7 3-3.1 5.4-6.7 7-10.6 1.4-3.4 3-9.2 1.8-12.9-1.7-4.9-6.7-5.3-11.2-5.1q-2.7 0.1-5.5 0.3z"/><path  d="m576.5 215.9c-0.9-2.2 1.9-6.4 3.1-8.1 3.2-4.7 6-11.3 12.1-12.3 5.2-0.9 11.8-0.3 16.2 2.8 4.1 2.8 8.1 4.8 5.6 10.5-0.9 2-2.4 3.7-4 5.1-4.1 3.6-9.4 5.8-14.7 6.4-5.4 0.6-10.9-0.3-15.9-2.4-1-0.5-2-1-2.4-2z"/><path class="s" d="m610 235.2c-0.2 3.5-0.7 7.7 2.8 9.7-0.8 2.4-2.7 4.3-5 5.4-2.3 1.1-4.9 1.5-7.4 1.5-4.6-0.1-9.4-1.7-12.6-5.1 0.3 0.3 1.2-1.6 1.3-1.8 0.2-0.9 0-1.7 0-2.6 0.1-1.7 0.3-3.4 0.4-5.1 0-4.7 0.1-9.5 0.4-14.2 1.7-3 6.2-5 9.1-5.6 6.5-1.3 10.7 3.5 11.2 8.9q0.1 0.6 0.1 1.1 0 0.9-0.1 1.7c-0.3 2.2-0.2 4.1-0.2 6.1z"/><path class="s" d="m613.7 214.4q0.4-0.1 0.8-0.1c2.4 0 4.3 1.9 4.3 4.3 0 2.3-1.9 4.3-4.3 4.3q-0.7 0-1.3-0.3 0.2-4.1 0.5-8.2z"/><g clip-path="url(#cp9)"><path class="m" d="m589.7 230c4.6 0.9 8.9 2.1 13.7 1.4 1.5-0.2 4.9-1.2 6.9-2.3 0 2.9-0.3 5.7-0.4 8.6-5.5 0.9-11.2 1.4-15.9-1.4-2.1-1.3-4.5-3.8-4.3-6.1z"/></g><path class="s" d="m614.6 219.6c-0.2 3.2-0.8 6.5-2.2 9.4-1.3 2.9-3.6 5.5-6.5 6.9-5.4 2.5-12.1 0.2-16-4.3-3.9-4.5-5.3-10.7-5.3-16.7-0.1-4.2 0.6-8.6 2.8-12.1 2.4-3.6 6.4-6.1 10.7-6.5 4.4-0.5 10.6 1.5 13.2 5.4 3.3 5 3.8 12 3.3 17.9z"/><path class="s" d="m580.1 218.6c0 2.4 1.9 4.3 4.2 4.3 2.4 0 4.3-1.9 4.3-4.3 0-2.3-1.9-4.2-4.3-4.2-2.3 0-4.2 1.9-4.2 4.2z"/><path fill-rule="evenodd" class="o" d="m583 216.2c1.1-0.3 2.3 0.5 2.8 1.5 0.5 1.1 0.3 2.4-0.2 3.4"/><path  d="m594.4 207.8c-0.6 0.8-1.3 1.6-2.3 2-1 0.5-2.4 0.6-3 1.5-0.3 0.4-0.4 0.9-0.5 1.3q-0.4 1.5-0.8 3.1c-0.8-0.6-1.7-1-2.6-1.2-0.8-0.1-1.6 0.1-2.3-0.1-1.6-0.4-3.7-2.3-3.7-3.9-0.1-1.2 0.7-2.3 1.4-3.3 1.6-2.3 3-4.8 4.6-7.1 1.6-2.3 3.6-4.4 6.1-5.7 1.1-0.5 3.6-1.6 4.8-1.4 1 0 1.9 0.4 2.8 0.5 0.9 0.1 1.8-0.1 2.7-0.1 3 0 6.5 2.7 8.8 4.5 2.6 1.9 5.1 3.9 6.8 6.7q1.5 2.5 1.6 5.3c0 0.6-0.4 5.1-0.2 5.1q-1.1-0.5-2.4-0.6c-0.6 0-1.4 0.2-1.8-0.3-0.5-0.4-0.7-1.4-1-2q-0.7-1.1-1.6-1.9c-1.4-1.2-3.2-1.9-4.6-3.1-1.5-1.3-2.5-3.1-2.8-5-0.1-0.5 0-2.4-0.6-2.6-0.2 0-0.8 0.3-1 0.3-0.4 0.2-0.9 0.2-1.3 0.3-1.9 0.6-3.6 1.8-4.7 3.4-0.8 1.1-1.3 2.3-1.9 3.5q-0.3 0.4-0.5 0.8z"/><path class="h" d="m607.1 226.4c-1.4 3.2-6.7 4-9.7 0.5"/><path class="o" d=""/><path fill-rule="evenodd" class="o" d="m601.8 213.5c0 1.6 0.6 3.2 1.1 4.8 0.2 0.9 1.2 3.8-0.7 2.9"/><path fill-rule="evenodd" class="o" d="m551.3 293.9c1.6-1 2.5-2.7 3.4-4.2q2.9-4.5 6.6-8.1"/><path fill-rule="evenodd" class="o" d="m550.3 327.4c1 6.7 4.7 12.8 5.3 19.6 0.2 3.1-0.4 6.7-3 8.5"/><path class="t" d="m660.4 285.2c3.3-7.9 6.3-18.6 14.3-23 3.8-2.1 8.2-2.3 12.5-2.2 2.4 0 5.1 0.2 7 1.7 2 1.7 2.7 4.5 3 7.1 0.6 6.3-0.4 12.6-1.7 18.7-1.3 5.9-2.5 11.8-4.1 17.6-1.5 5.4-3.7 10.4-5.6 15.6-1.6 4.5-3.9 9-8.1 11.5-6.1 3.5-12.8 3.9-18.6-0.5-4.3-3.3-6.8-8.4-7.6-13.6-1.7-11 3.4-19.8 7.5-29.7q0.7-1.6 1.4-3.2z"/><path fill-rule="evenodd" class="o" d="m631 271.7c4.4 15.6 13.9 29.4 19.3 44.8 1.5 4.4 2.8 7.6 4.2 12.1"/><path class="t" d="m582.4 242.9c0.4-0.5 0.8-1.1 1.3-1.5 0.1-0.1 0.2-0.2 0.5-0.4q0.3-0.2 0.7-0.4c1.1-0.7 2-1.5 2.8-2.4q0.6-0.6 1.2-1.2c0.1-0.1 0.2-0.1 0.5-0.3-0.3 0.2 4.6 5.9 5.1 6.4 1.8 2 3.7 4.1 4.9 6.6-1 3.4-1.5 7-2.9 10.3-0.8 1.8-2.2-0.9-2.9-1.7q-1.7-2-3.3-4c-1.6-1.9-3.2-3.8-4.7-5.7q-1.1-1.4-2.2-2.9c-0.2-0.3-0.9-1.8-1.6-2.1q0.4-0.4 0.6-0.7z"/><path class="t" d="m603.1 246.4q0.4-0.4 0.7-0.7c2.4-2.1 6.2-4.4 6.1-8 1.7 2.5 3.9 5.8 6.3 7.6-1.1 0.3-1.6 1.5-2.1 2.5-1 2-2.5 3.7-3.8 5.5-1.3 1.7-1.9 3.6-3.1 5.3-0.1 0.3-0.3 0.5-0.5 0.7-0.2 0.1-0.5 0.2-0.8 0.1-0.2-0.1-0.3-0.4-0.4-0.6-0.3-1 0-2-0.4-2.9-0.4-1.2-0.8-2.4-1.2-3.5-0.5-1.5-1.8-4-1.1-5.5q0.1-0.3 0.3-0.5z"/><path fill-rule="evenodd" class="o" d="m597.5 257c-0.5 1-1.6 3-2.2 4q-4.7-6-9.5-11.9c-1.5-1.8-3-3.8-3.5-6.1"/><path fill-rule="evenodd" class="o" d="m604.6 255.1c0.9 1.5 2.4 3.7 3.3 5.3q1-2.8 2-5.5c0.3-0.9 0.6-1.9 1.1-2.7 0.5-1.1 1.3-2 1.9-3.1 0.8-1.5 1.4-3.2 1.6-4.9"/><path  d="m613 290.3q0.2-0.6 0.7-1.1l0.4-0.4q0.6-0.3 1.3-0.3 0.5 0 0.9 0.2 0.4 0.2 0.8 0.5 0.3 0.3 0.5 0.8 0.2 0.4 0.2 0.9-0.1 0.3-0.1 0.6-0.2 0.6-0.6 1.1l-0.5 0.4q-0.6 0.3-1.2 0.3-0.5 0-1-0.2-0.4-0.2-0.7-0.5-0.4-0.3-0.5-0.8-0.3-0.4-0.2-0.9 0-0.3 0-0.6z"/><path  d="m615.6 307.8q0.1-0.6 0.6-1.1 0.3-0.2 0.5-0.4 0.6-0.3 1.3-0.3 0.5 0 0.9 0.2 0.5 0.2 0.9 0.5 0.3 0.4 0.5 0.8 0.2 0.5 0.2 1-0.1 0.3-0.1 0.7-0.2 0.6-0.6 1.1-0.3 0.2-0.6 0.4-0.5 0.3-1.2 0.3-0.5 0-1-0.2-0.5-0.2-0.8-0.5-0.4-0.4-0.5-0.8-0.2-0.5-0.2-1 0-0.3 0.1-0.7z"/><path  d="m618.9 325.2q0.2-0.7 0.6-1.2 0.3-0.2 0.6-0.4 0.6-0.3 1.3-0.3 0.5-0.1 1 0.2 0.5 0.1 0.8 0.5 0.4 0.4 0.6 0.9 0.2 0.4 0.2 1-0.1 0.3-0.1 0.6-0.2 0.7-0.7 1.2-0.2 0.2-0.5 0.4-0.6 0.4-1.3 0.4-0.6 0-1-0.3-0.5-0.1-0.9-0.5-0.3-0.4-0.5-0.8-0.2-0.5-0.2-1 0-0.4 0.1-0.7z"/><path  d="m622.4 343.8c3.2 0 3.3 5 0 5-3.2 0-3.2-5 0-5z"/><path  d="m622 365.4q0.1-0.2 0.2-0.4c0.4-0.8 1.3-1.2 2.1-1.1 2.1 0.2 2.7 3 0.9 4-1.7 1-3.7-0.7-3.2-2.5z"/><path  d="m510.6 295.1c-1.2 1-2.5 2.1-3.1 3.6-0.6 1.4-0.4 3.3 0.9 4.2"/><path  d="m670.7 327.9c-0.1 1.1-1.2 1.9-2.3 2-1.2 0.1-2.2-0.4-3.1-1.2"/><path fill-rule="evenodd" class="o" d="m659.2 287.6c0.4 6.1 1.9 12.7 3 18.7"/><path fill-rule="evenodd" class="o" d="m565.8 363c0.4 7.4-3.5 15-9.9 19-2.1 1.3-4.5 2.3-6.6 3.6"/><path fill-rule="evenodd" class="o" d="m651.3 352.6c0.2 1.5 0.5 3 1.1 4.5 1.6 3.8 4.9 6.7 8.6 8.5 2.1 1.1 4.4 1.8 6.8 2.2"/><path fill-rule="evenodd" class="o" d="m590.9 474.4c1.1-3.8 1.6-7.7 1.6-11.7"/><path fill-rule="evenodd" class="o" d="m633.9 468.2q-0.4-8.2-0.8-16.3"/><path fill-rule="evenodd" class="o" d="m547.2 475.7c0.2-6.9 0.9-13.7 2.2-20.5"/></g><g clip-path="url(#cp10)"><path class="q" d="m267.9 460.7c0.9-0.1 1.3-1.3 1.5-2.2q0.4-2.5 0.9-5c0.1-0.6 0.4-1.4 1-1.3 0.6 0 0.8 0.8 0.7 1.4q-0.1 4.7-0.1 9.3c-0.1 0.8-0.1 1.8 0.4 2.5 0.5 0.7 1.8 0.9 2.2 0.1 0.2-0.2 0.2-0.6 0.3-0.9q0.2-3 0.4-5.9c0-0.9-0.3-5.2 1.1-5 1.3 0.2 0.8 4.1 0.7 5-0.1 2.3-0.4 4.6 0 6.9 0 0.5 0.1 1 0.4 1.4 0.3 0.4 0.7 0.7 1.2 0.6 0.5 0 0.8-0.4 1-0.8 0.2-0.4 0.2-0.8 0.3-1.3q0.2-2.7 0.5-5.4c0.1-1.4-0.1-3.5 0.9-4.6 0.2-0.3 0.8-0.5 1.1-0.2 0.3 0.2 0.3 0.6 0.3 0.9q0.2 3.5 0.4 6.9c0.1 0.7 0.1 1.3 0.5 1.8 0.3 0.6 1.1 0.9 1.6 0.5 0.4-0.2 0.5-0.8 0.6-1.2 0.8-4.4 0.4-8.7 0.8-13 0.1-1 0.2-8.2 2-7.7 0.4 0.1 0.6 0.5 0.8 0.8 0.5 1.3 0.8 2.6 1.3 3.9 0.5 1.3 1.3 2.6 2.5 3.3 0.4 0.2 1.1 0.4 1.5 0 0.3-0.2 0.4-0.7 0.4-1.1-0.1-1.5-0.8-2.9-1.2-4.4-0.9-2.9-0.8-6.1-1.6-9.1-0.7-2.9-1.8-5.6-1.5-8.8 0.5-5 2.1-9.8 2.9-14.8 0.9-4.9 0.9-10.3-1.6-14.7-1.4-2.5-3.9-4.7-6.7-4.7-2.9-0.1-5.4 1.9-6.9 4.3-1.6 2.5-2.4 5.3-3.1 8.2-2 8.6-2.7 17.3-4.4 26-1.6 8.4-4.1 16.7-4.8 25.3 0 0.7-0.1 1.3 0.2 2 0.2 0.6 0.9 1.1 1.5 1z"/><path class="c" d="m441.4 502.3c1.9 14.2 7.4 34.6-7.7 43.7-6.2 3.7-13.8 4.2-21 3.4-7.7-0.8-16.1-3.4-19.9-10.2-1.8-3.2-2.3-6.8-2.9-10.4q-4.2-28.7-8.4-57.4c-1.7-11.8-0.8-37.4-11.1-44.4 2.6 42.2 6.9 84.5 9.9 126.7q-21.3 0.2-42.6 0.3c-1.7 0-3.4 0-4.7-1-1.2-1-1.7-2.5-2.1-4-12.9-45.5-20.1-92.5-21.4-139.3-0.8-32.1 10.7-63.3 46-67.9 16.8-2.1 34.9 4 47.4 16.3 13.4 13 19.9 31.3 24.5 49.2 6.5 25 10.7 51 12.4 76.7 0.5 6.7 0.8 12.4 1.6 18.3z"/><path fill-rule="evenodd" class="o" d="m372.8 394.4c0.9 3.2 1.5 6.6 1.5 10 0.1 1.7 0 3.4-0.9 4.9-0.8 1.5-2.5 2.6-4.1 2.3"/><path fill-rule="evenodd" class="o" d="m366.6 389c1.3 11.2 3.6 26.6 4.9 37.8"/><path class="u" d="m333.9 264.9q0.2-0.1 0.4-0.2c15.7-7.5 35.6-5.9 52.4-5 10.4 0.5 23.7 1.3 30.7 9.8 10.2 12.6 4.3 27.3 4.3 41.3 0 19.8 0.2 38.9-2.8 58.6-1 6.3-2.3 13-6.7 17.6-5.4 5.9-14.1 7.1-22.1 7.8-12.7 1-25.4 1.2-38.1 0.8-8.2-0.3-16.7-0.9-24.3-4.2-22.8-9.9-26.8-46.6-22.5-67.9 2.5-12.9 4.4-27.5 10.3-39.3 4.1-8.1 10.3-15.3 18.4-19.3z"/><path class="u" d="m338.5 294.5c0.9-7.3 0.6-14.8 0.7-22.1 0.1-3.1 0.2-6.1 0-9.1q-7.8 2.6-15.4 5.9c-4.4 2-8.8 4.1-12.5 7.2-10.9 9.1-16.3 24.2-21.2 37.1-10.6 28-17.4 58.1-22.9 87.6-1 5-1.8 10.4 0 15.2 2.8 7.1 10.7 10.9 18.2 12.1 3 0.4 6.1 0.5 8.9-0.4 6.9-2.2 10.5-9.6 12.9-16.4 7-19.3 9.3-39.7 13.9-59.5 4.6-19.5 14.9-37.6 17.4-57.6z"/><path  d="m391.7 230.9c0.5-3.7-0.7-7.4-2.2-10.8-1.3-2.9-2.8-5.7-5.1-7.9-6.1-5.9-17.8-5.4-24.5-0.7-4.7 3.3-9.3 5.6-6.5 12 1.1 2.3 2.8 4.3 4.7 6 2.9 2.5 6.4 4.5 10.1 5.7 2.6 0.9 4.7 2.8 7.5 3.1 1.9 0.3 3.8-0.1 5.7 0.1 5.3 0.5 9.6-1.6 10.3-7.5z"/><path class="q" d="m357.5 253.9q0.1 1.9 0.1 3.8c0 1.2 0 2.5-0.2 3.8-0.2 0.7-0.4 1.3-0.7 1.9-0.2 0.2-1.1 1.1-1 1.4q0 0.1 0.1 0.2 1.5 1.1 3 2.1 1.6 1.2 3.5 1.9c2.6 0.9 5.3 1.2 8 1 2.6-0.3 5-1.2 7.3-2.4q1.7-0.9 3.2-2 0.8-0.6 1.6-1.2c0.2-0.2 1.1-1.2 1.3-1.2-0.8 0-1.6-1.5-1.9-2.2-0.4-0.9-0.6-1.9-0.7-2.9-0.3-2.1 0-4.1-0.1-6.2q0-3.1-0.1-6.2-0.1-1.5-0.2-3.1c0-0.7 0.2-2.2-0.2-2.8-1.9-3.3-7-5.7-10.4-6.4-7.5-1.5-12.3 4.1-12.9 10.3q0 0.6 0 1.2 0 1 0.1 2c0.3 2.4 0.2 4.7 0.2 7z"/><path class="f" d="m380.8 247.9c-5.3 1-10.3 2.4-15.7 1.6-1.7-0.3-5.7-1.4-8-2.7 0.1 3.3 0.4 6.6 0.5 9.9 6.3 1.1 12.8 1.7 18.2-1.6 2.5-1.4 5.2-4.3 5-7z"/><path class="q" d="m352.2 235.9c0.2 3.7 0.9 7.5 2.5 10.8 1.6 3.4 4.2 6.4 7.5 8 6.2 2.8 13.9 0.2 18.4-5 4.4-5.2 6-12.3 6.1-19.1 0-4.9-0.7-9.9-3.3-13.9-2.7-4.2-7.3-7-12.2-7.6-5-0.5-12.2 1.8-15.2 6.3-3.8 5.7-4.4 13.8-3.8 20.5z"/><path class="q" d="m391.8 234.8c0 2.7-2.2 4.9-4.9 4.9-2.7 0-4.8-2.2-4.8-4.9 0-2.7 2.2-4.9 4.9-4.9 2.6 0 4.8 2.2 4.8 4.9z"/><path class="q" d="m357.3 236.2c0 2.7-2.2 4.9-4.9 4.9-2.7 0-4.9-2.2-4.9-4.9 0-2.7 2.2-4.9 4.9-4.9 2.7 0 4.9 2.2 4.9 4.9z"/><path fill-rule="evenodd" class="o" d="m388.5 232.1c-1.3-0.4-2.7 0.5-3.2 1.7-0.6 1.2-0.4 2.7 0.2 3.9"/><path  d="m349.8 236.6c-0.6 0.1-1.7-0.5-2.1-0.9-0.6-0.6-0.4-1.5-0.4-2.4 0.2-2.1 0.7-4.1 0.4-6.2-0.2-1.7-1-3.5-0.8-5.2 0.1-1.8 1.1-3.4 1.8-5.1 0.6-1.7 0.9-3.5 1.8-5 1.4-2.2 3.9-3.5 6.4-4.2 2.5-0.7 5.1-1 7.6-1.8 1.8-0.6 3.7-1.5 5.5-1.1 1 0.3 1.9 0.9 2.7 1.5 2.1 1.5 3.4 3.1 4.2 5.5 1 2.7 0.2 6-2 7.7-2.4 2-5.9 3.2-8.9 3.8-2.7 0.5-5.5 1-7.9 2.3-2.8 1.6-4.8 4.2-5.9 7.2-0.4 1.2-0.9 3.8-2.4 3.9z"/><path  d="m379.3 219.5c0.7 1.2 0.9 2.5 1.6 3.7 0.7 1.4 1.4 3 1.8 4.6 0.1 0.4 0.2 0.9 0.2 1.4-0.1 0.4-0.2 0.9-0.2 1.4 0.1 0.4 0.2 0.8 0.5 0.9 0.4 0.1 0.7-0.1 1-0.3 1.1-0.7 2.2-1.3 3.4-1.2 0.7 0 1.3 0.2 2 0.2 2-0.1 1.6-2.4 1.8-3.7 0.1-0.6 0.3-1.1 0.4-1.7 0.2-1.2-0.1-2.5-0.4-3.7-0.4-1.2-0.7-2.5-1.3-3.5-0.6-1.1-1.5-1.9-2.2-2.9-0.8-1.1-1.3-2.4-2-3.6-0.7-1.2-1.6-2.4-2.9-2.9-0.6-0.2-1.2-0.3-1.9-0.4-3.6-0.4-7.4-1.5-11-0.6-1.2 0.3-2.4 0.8-3.1 1.9-0.3 0.5-0.4 1.1-0.3 1.6 0 0.3 0.4 2.2 0.7 2.2 0.2 0.3 0.4 0.5 0.6 0.7 0.4 0.2 0.9 0.2 1.3 0.2 3.7 0.3 7.2 2.1 9.5 4.9q0.3 0.4 0.5 0.8z"/><path fill-rule="evenodd" class="o" d="m366.7 231.8c0.2 0.5 0.2 1.1 0 1.6-0.2 0.5-0.5 1-0.8 1.4q-0.4 0.9-0.7 1.8c-0.6 1.6-0.1 3.1 1.6 3.6"/><path fill-rule="evenodd" class="o" d="m370.9 245.1c0-0.1 0.1 0 0 0.1-1 1.4-2.8 2.3-4.6 2.1-1.8-0.2-3.4-1.4-4.1-3"/><path class="u" d="m454.9 326.6c3.7 10.8 5.4 19.8-0.5 30.3-3 5.4-8.3 10-14.4 10.6-5.9 0.5-11.7-2.6-15.7-7.1-5.3-6-8-14.3-10.9-21.7-3.4-8.5-7-16.8-10.6-25.1-5.7-13.3-12.9-29.3-9.5-44.1 3.2-13.5 20-6.3 27.5-0.2 6.7 5.5 11.5 13.2 15.6 20.9 4.3 8 7.6 16.8 12.7 24.4 2.4 3.6 4.3 7.7 5.8 12z"/><path fill-rule="evenodd" class="o" d="m420.2 353.6c-6-17.2-10.7-34.9-14.1-52.8"/><path fill-rule="evenodd" class="o" d="m315.4 381.9c9.3-37.3 9.4-58.3 18.6-81.7"/><path class="q" d="m491.2 261c-0.8-0.5-1.8 0.3-2.4 1q-1.8 1.8-3.5 3.6c-0.5 0.5-1.2 1-1.7 0.5-0.4-0.4-0.1-1.1 0.3-1.6q2.6-3.8 5.3-7.5c0.5-0.7 1-1.5 0.9-2.4 0-0.8-0.9-1.7-1.7-1.4-0.3 0.2-0.5 0.4-0.7 0.7q-1.8 2.4-3.6 4.7c-0.6 0.7-2.7 4.5-3.8 3.5-0.9-0.9 1.7-3.9 2.3-4.6 1.4-1.8 2.9-3.5 3.9-5.7 0.2-0.4 0.4-0.9 0.4-1.4 0-0.4-0.2-1-0.7-1.2-0.4-0.2-0.9-0.1-1.3 0.1-0.3 0.3-0.6 0.6-0.9 1q-1.7 2.1-3.4 4.2c-0.9 1.1-2 2.9-3.4 3.3-0.4 0.1-0.9-0.1-1-0.5-0.1-0.3 0.1-0.6 0.2-0.9q1.8-3 3.6-6c0.3-0.5 0.6-1.1 0.6-1.7 0-0.6-0.4-1.3-1.1-1.3-0.4 0-0.9 0.3-1.2 0.7-3 3.2-5.1 7-7.9 10.3-1 1.1-5.1 7.7-6.6 4.1-1.2-2.9 0.9-6.2-1.8-8.7-0.5-0.5-1.3-0.7-1.9-0.3-0.7 0.4-0.7 1.4-0.6 2.2 0.3 1.8-0.6 3.2-0.9 5-1.9 11.1-5.1 22-9.2 32.5 5.9 4.4 11.9 9 17.9 13.3 0.7-9.6 1.5-20.3 8.6-26.8 5.2-4.9 10.6-9.7 15.1-15.3 0.4-0.5 0.8-1.1 0.9-1.7 0.1-0.7-0.1-1.5-0.7-1.7z"/><path class="u" d="m449.9 286.7c-1.9 0.8-3.4 2.4-4.8 4-12.1 14-18.7 36.4-19.2 54.8-0.1 5.1 0.4 10.3 2.7 14.8 2.4 4.5 7 8.1 12.1 8 2.3 0 4.5-0.7 6.5-1.7 16.5-8.3 19.8-30.4 23.4-46.4 1.3-5.7 2.4-11.8 0.8-17.5-2-7-7.9-12.5-14.5-15.5-1.5-0.7-3.1-1.2-4.8-1.1q-1.2 0.1-2.2 0.6z"/><path fill-rule="evenodd" class="o" d="m328.4 394c-1.5 3.8-3.7 7.2-6.7 9.9-3 2.6-6.8 4.4-10.8 4.5"/><path  d="m376.3 191.2c2.9 0.5 5.5 2.7 6.4 5.5 2.9 8.2-8.1 16.2-14.9 11.1-3.4-2.5-7.2-7.2-4.2-11.1 2.7-3.5 8.3-6.4 12.7-5.5z"/><path fill-rule="evenodd" class="k" d="m354.2 262.7c3 5 9.2 7.7 15.1 7.4 5.8-0.4 11.3-3.6 15.3-7.9"/><path fill-rule="evenodd" class="o" d="m440.2 297.3c-5.2 12.9-9.4 22.8-9.3 36.6"/><path fill-rule="evenodd" class="o" d="m476.3 257.1q2.4 2.9 4.7 5.8c1 1.2 2 2.6 1.7 4.1"/><path fill-rule="evenodd" class="o" d="m464.7 263.5q0.4 2.1 0.7 4.1"/><path fill-rule="evenodd" class="o" d="m405.6 393.5c5.6 5.3 13.4 8.4 21.1 8.2"/><path class="g" d="m366.2 312.6c-3.9-3.3-8.1-6.2-12.5-8.8-1.7-1-3.2 1.6-1.5 2.6q6.3 3.6 11.9 8.3c0.6 0.5 1.5 0.6 2.1 0 0.6-0.5 0.7-1.6 0-2.1z"/><path class="g" d="m387.7 335.1c-0.7-0.4-1.6-0.2-2 0.5q-2.1 3.4-4.2 6.7c-0.4 0.7-0.1 1.7 0.6 2.1 0.7 0.4 1.6 0.2 2-0.5q2.1-3.4 4.2-6.8c0.4-0.7 0.2-1.7-0.6-2z"/><path class="g" d="m349 337.4c-0.1-0.8-0.6-1.5-1.5-1.5-0.7 0-1.6 0.7-1.5 1.5q0.6 5.2 1.1 10.4c0.1 0.8 0.6 1.5 1.5 1.5 0.8 0 1.6-0.7 1.5-1.5q-0.5-5.2-1.1-10.4z"/><path class="g" d="m367.7 373.3c-0.2-0.8-1-1.3-1.8-1.1q-3.1 0.8-6.2 1.6c-0.8 0.2-1.3 1-1.1 1.8 0.3 0.8 1 1.3 1.9 1.1q3.1-0.8 6.2-1.6c0.7-0.2 1.3-1.1 1-1.8z"/><path class="g" d="m402.4 369.1q-1.3-4.1-2.6-8.3c-0.2-0.7-1-1.3-1.8-1-0.8 0.2-1.3 1-1.1 1.8q1.3 4.2 2.6 8.3c0.3 0.8 1.1 1.3 1.9 1.1 0.7-0.3 1.3-1.1 1-1.9z"/><path class="g" d="m385.3 300.2c-1.3-3.2-2.2-6.6-2.5-9.9-0.1-0.8-0.7-1.5-1.5-1.5-0.8 0-1.6 0.7-1.5 1.5 0.4 3.7 1.2 7.3 2.6 10.7 0.3 0.8 1 1.3 1.9 1.1 0.7-0.2 1.3-1.1 1-1.9z"/><path class="g" d="m406.9 275.5c-0.8-0.4-1.6-0.2-2.1 0.5q-1.5 2.3-3.1 4.7c-0.4 0.6-0.1 1.7 0.6 2 0.7 0.4 1.5 0.2 2-0.5q1.6-2.3 3.1-4.7c0.4-0.6 0.2-1.7-0.5-2z"/><path class="g" d="m437 354.2q-1.1-0.8-2.2-1.6-0.2-0.1-0.3-0.2 0 0-0.1 0-0.2-0.3-0.5-0.5-0.5-0.4-1.1-0.9-2-1.7-3.8-3.8c-0.5-0.6-1.6-0.6-2.1 0-0.6 0.6-0.6 1.5 0 2.1 2.5 2.9 5.4 5.4 8.6 7.5 0.6 0.4 1.7 0.1 2-0.6 0.4-0.7 0.2-1.6-0.5-2z"/><path class="g" d="m460.5 325.6c-0.7-3.4-2.1-6.7-3.9-9.7-0.4-0.6-1.3-0.9-2-0.5-0.7 0.4-1 1.3-0.6 2.1 1.8 2.8 2.9 5.6 3.6 8.9 0.2 0.7 1.1 1.3 1.9 1 0.8-0.2 1.2-1 1-1.8z"/><path class="g" d="m428.7 297.8c-0.4-0.6-1.4-1-2-0.5q-5.8 4.4-10 10.3c-0.4 0.7-0.1 1.7 0.6 2.1 0.7 0.4 1.6 0.1 2-0.6 1.3-1.7 2.6-3.3 4.1-4.9q1.1-1.2 2.3-2.3 0.7-0.5 1.3-1.1c0.4-0.3 0.9-0.7 1.2-0.9 0.6-0.5 0.9-1.3 0.5-2.1z"/><path class="g" d="m336 278.6q-0.4-0.5-0.9-0.7-1.6-0.5-3.1-1c-0.4-0.1-0.9 0-1.2 0.2-0.3 0.1-0.6 0.5-0.7 0.8-0.1 0.4-0.1 0.9 0.2 1.2q0.3 0.5 0.9 0.7 1.5 0.5 3.1 1c0.3 0.1 0.8 0.1 1.1-0.1 0.3-0.2 0.6-0.6 0.7-0.9 0.1-0.4 0.1-0.8-0.1-1.2z"/><path class="g" d="m359 277.3c-0.5-0.5-1.5-0.7-2.1 0q-3.6 4.4-7.2 8.8c-0.5 0.6-0.7 1.5 0 2.1 0.5 0.5 1.6 0.7 2.1 0q3.6-4.4 7.2-8.8c0.5-0.6 0.7-1.5 0-2.1z"/><path class="g" d="m309.8 298.6c-0.9-2.8-1.3-5.4-1.4-8.3 0-0.8-0.6-1.6-1.5-1.5-0.8 0-1.5 0.6-1.5 1.5 0.1 3.1 0.6 6.2 1.5 9.1 0.2 0.8 1 1.3 1.8 1.1 0.8-0.3 1.3-1.1 1.1-1.9z"/><path class="g" d="m320.4 310.7c-0.2-0.3-0.5-0.6-0.9-0.6-0.3-0.1-0.8-0.1-1.1 0.1q-1.4 1-2.6 2.2-1.1 1.1-2.1 2.5c-0.2 0.3-0.2 0.8-0.2 1.1 0.1 0.4 0.4 0.8 0.7 0.9 0.4 0.2 0.8 0.3 1.2 0.2 0.4-0.1 0.6-0.4 0.9-0.7q1.6-2 3.5-3.6 0.1 0 0.1 0c0.3-0.3 0.6-0.5 0.7-0.9 0.1-0.4 0-0.8-0.2-1.2z"/><path class="g" d="m307.1 340.1c-0.1-0.3-0.3-0.7-0.7-0.9q-1.8-0.8-3.6-1.5-0.3-0.2-0.6-0.2-0.3-0.1-0.6 0c-0.3 0.1-0.7 0.4-0.9 0.7-0.1 0.3-0.2 0.8-0.1 1.2 0.1 0.3 0.3 0.7 0.7 0.8q1.8 0.8 3.6 1.6 0.3 0.2 0.6 0.2 0.3 0 0.6 0c0.3-0.1 0.7-0.4 0.9-0.7 0.1-0.4 0.2-0.8 0.1-1.2z"/><path class="g" d="m311 362c-0.6-0.4-1.6-0.2-2 0.5-1.8 3.5-2.9 7.3-3.2 11.2-0.1 0.8 0.7 1.5 1.5 1.5 0.8 0 1.4-0.7 1.5-1.5 0.3-3.3 1.3-6.7 2.8-9.7 0.4-0.7 0.2-1.6-0.6-2z"/><path class="g" d="m290 378.5q-5.2-1.3-10.4-2.6c-0.8-0.2-1.6 0.2-1.8 1-0.2 0.8 0.2 1.7 1 1.9q5.2 1.3 10.4 2.6c0.8 0.2 1.6-0.3 1.8-1.1 0.3-0.8-0.2-1.6-1-1.8z"/><path class="g" d="m280.7 402.1c0-0.4-0.1-0.7-0.4-1-0.3-0.3-0.7-0.5-1.1-0.5-0.7 0.1-1.5 0.7-1.5 1.5q0.3 2.9 0.6 5.7c0 0.4 0.1 0.8 0.4 1.1 0.3 0.3 0.7 0.5 1.1 0.4 0.7 0 1.5-0.6 1.5-1.5q-0.3-2.8-0.6-5.7z"/><path class="g" d="m296.7 403.8c-0.8-0.2-1.5 0.3-1.8 1.1q-1 2.8-2.1 5.7c-0.2 0.7 0.3 1.6 1.1 1.8 0.8 0.2 1.5-0.3 1.8-1q1.1-2.9 2.1-5.7c0.3-0.8-0.3-1.7-1.1-1.9z"/><path class="g" d="m336.1 377.4q-1.3-3.6-2.6-7.3c-0.2-0.7-1-1.3-1.8-1-0.7 0.2-1.3 1.1-1.1 1.8q1.3 3.7 2.6 7.3c0.3 0.7 1.1 1.3 1.9 1 0.7-0.2 1.3-1 1-1.8z"/><path class="g" d="m450.3 337.9c-0.1-0.8-0.6-1.5-1.5-1.5-0.8 0-1.6 0.7-1.5 1.5q0.5 4.9 1 9.8c0 0.8 0.6 1.6 1.5 1.5 0.7 0 1.5-0.6 1.5-1.5q-0.5-4.9-1-9.8z"/><path class="g" d="m454.7 297.5c-0.2-0.8-1-1.2-1.8-1-3.2 0.6-6.2 1.6-9.2 2.9-0.7 0.3-0.9 1.4-0.5 2 0.5 0.8 1.3 0.9 2.1 0.5q-0.2 0.1 0 0 0.2-0.1 0.4-0.1 0.2-0.1 0.4-0.2 0.5-0.2 1.1-0.4 1-0.4 2.1-0.7 2.2-0.7 4.4-1.1c0.7-0.2 1.3-1.1 1-1.9z"/><g clip-path="url(#cp11)"><path  d="m279.8 330.7c1.9-1.9 5.2-2.2 7.4-0.7 2.2 1.6 3.1 4.8 1.9 7.2-1.1 2.4-4 4.3-3.6 7 0.3 1.8 2.1 3 2.9 4.7 1.3 3-1 6.3-2.2 9.4-0.4 1-0.6 2-1.2 2.8-1.5 2.5-4.6 3.5-7.5 3.5-2.9-0.1-5.8-0.8-8.6-0.9-2.9 0-6.1 0.9-7.7 3.3"/></g></g></svg>