<svg version="1.2" xmlns="http://www.w3.org/2000/svg" viewBox="0 0 3710 3710" width="3710" height="3710"><defs><linearGradient id="P" gradientUnits="userSpaceOnUse"/><linearGradient id="g1" x2="1" href="#P" gradientTransform="matrix(-2491.474,-3094.255,3128.452,-2519.009,3571.213,4081.411)"><stop stop-color="#dae3fe"/><stop offset="1" stop-color="#e9effd"/></linearGradient><linearGradient id="g2" x2="1" href="#P" gradientTransform="matrix(-5340.657,-427.251,427.251,-5340.657,3997.049,2030.143)"><stop stop-color="#d9c34b"/><stop offset="1" stop-color="#d9c34b"/></linearGradient><linearGradient id="g3" x2="1" href="#P" gradientTransform="matrix(-8612.641,4293.842,-4293.699,-8612.354,3873.141,724.546)"><stop stop-color="#d9c34b"/><stop offset="1" stop-color="#d9c34b"/></linearGradient><linearGradient id="g4" x2="1" href="#P" gradientTransform="matrix(-7401.879,5117.662,-5117.662,-7401.879,4760.898,-319.15)"><stop stop-color="#d9c34b"/><stop offset="1" stop-color="#d9c34b"/></linearGradient><linearGradient id="g5" x2="1" href="#P" gradientTransform="matrix(-2022.003,4315.476,-4315.505,-2022.016,3185.526,-1454.225)"><stop stop-color="#ff928e"/><stop offset="1" stop-color="#fe7062"/></linearGradient><linearGradient id="g6" x2="1" href="#P" gradientTransform="matrix(1009.919,333.867,-82.938,250.879,3018.356,2162.904)"><stop stop-color="#d9c34b"/><stop offset="1" stop-color="#d9c34b"/></linearGradient><linearGradient id="g7" x2="1" href="#P" gradientTransform="matrix(1017.144,336.256,-106.415,321.895,3087.864,2018.457)"><stop stop-color="#d9c34b"/><stop offset="1" stop-color="#d9c34b"/></linearGradient><linearGradient id="g8" x2="1" href="#P" gradientTransform="matrix(1060.831,535.777,-145.098,287.293,1574.307,1512.511)"><stop stop-color="#09005d"/><stop offset="1" stop-color="#1a0f91"/></linearGradient><linearGradient id="g9" x2="1" href="#P" gradientTransform="matrix(887.923,293.537,-82.195,248.631,1756.326,1803)"><stop stop-color="#09005d"/><stop offset="1" stop-color="#1a0f91"/></linearGradient><linearGradient id="g10" x2="1" href="#P" gradientTransform="matrix(-143.985,5.028,-2.449,-70.136,2294.331,3204.025)"><stop stop-color="#09005d"/><stop offset="1" stop-color="#1a0f91"/></linearGradient><linearGradient id="g11" x2="1" href="#P" gradientTransform="matrix(-36.691,5.044,-9.896,-71.988,2283.731,3147.988)"><stop stop-color="#febbba"/><stop offset="1" stop-color="#ff928e"/></linearGradient><linearGradient id="g12" x2="1" href="#P" gradientTransform="matrix(-22.374,142.326,-69.373,-10.906,3005.183,2952.443)"><stop stop-color="#09005d"/><stop offset="1" stop-color="#1a0f91"/></linearGradient><linearGradient id="g13" x2="1" href="#P" gradientTransform="matrix(-2.008,36.983,-72.592,-3.941,2948.154,2952.217)"><stop stop-color="#febbba"/><stop offset="1" stop-color="#ff928e"/></linearGradient><linearGradient id="g14" x2="1" href="#P" gradientTransform="matrix(59.06,19.44,-18.194,55.275,2242.218,1958.399)"><stop stop-color="#febbba"/><stop offset="1" stop-color="#ff928e"/></linearGradient><linearGradient id="g15" x2="1" href="#P" gradientTransform="matrix(274.21,529.378,-367.041,190.122,2675.542,2769.869)"><stop stop-color="#09005d"/><stop offset="1" stop-color="#1a0f91"/></linearGradient><linearGradient id="g16" x2="1" href="#P" gradientTransform="matrix(451.372,-558.185,693.605,560.878,1936.216,2972.164)"><stop stop-color="#ff928e"/><stop offset="1" stop-color="#fe7062"/></linearGradient><linearGradient id="g17" x2="1" href="#P" gradientTransform="matrix(326.33,66.564,-129.153,633.171,2291.56,2843.735)"><stop stop-color="#09005d"/><stop offset="1" stop-color="#1a0f91"/></linearGradient><linearGradient id="g18" x2="1" href="#P" gradientTransform="matrix(211.742,520.769,-483.716,196.676,2454.4,2012.607)"><stop stop-color="#febbba"/><stop offset="1" stop-color="#ff928e"/></linearGradient><linearGradient id="g19" x2="1" href="#P" gradientTransform="matrix(-15.679,196.341,-161.29,-12.88,2528.378,2112.489)"><stop stop-color="#febbba"/><stop offset="1" stop-color="#ff928e"/></linearGradient><linearGradient id="g20" x2="1" href="#P" gradientTransform="matrix(-106.01,-94.291,122.906,-138.182,2570.965,2201.094)"><stop stop-color="#09005d"/><stop offset="1" stop-color="#1a0f91"/></linearGradient><linearGradient id="g21" x2="1" href="#P" gradientTransform="matrix(-6.225,-136.347,139.661,-6.376,2575.661,2321.076)"><stop stop-color="#febbba"/><stop offset="1" stop-color="#ff928e"/></linearGradient><linearGradient id="g22" x2="1" href="#P" gradientTransform="matrix(36.266,7.397,-11.583,56.788,2774.401,2067.285)"><stop stop-color="#febbba"/><stop offset="1" stop-color="#ff928e"/></linearGradient></defs><style>.a{fill:url(#g1)}.b{fill:url(#g2)}.c{fill:#fff}.d{fill:url(#g3)}.e{fill:url(#g4)}.f{fill:url(#g5)}.g{fill:url(#g6)}.h{fill:url(#g7)}.i{fill:url(#g8)}.j{fill:url(#g9)}.k{fill:url(#g10)}.l{fill:url(#g11)}.m{fill:url(#g12)}.n{fill:url(#g13)}.o{fill:url(#g14)}.p{fill:url(#g15)}.q{fill:url(#g16)}.r{fill:url(#g17)}.s{fill:url(#g18)}.t{fill:url(#g19)}.u{fill:url(#g20)}.v{fill:url(#g21)}.w{fill:url(#g22)}</style><path class="a" d="m2885.8 2861.1c-57.2 60.3-111.4 99.1-154.2 129.8-502.9 360.9-1097.9 255.7-1224.4 230-186.7-37.9-547.7-111.2-808.7-418.2-394.9-464.3-333.4-1195.8-27.1-1678.7 56-88.4 351.9-578.6 953.4-657.3 364-47.5 788.3 48.4 1095.6 305.9 645 540.3 599.1 1632 165.4 2088.5z"/><path fill-rule="evenodd" class="b" d="m1569.3 2950.8c-616.6 0-1114.9-498.3-1114.9-1114.9 0-616.5 498.3-1114.9 1114.9-1114.9 616.5 0 1114.9 498.4 1114.9 1114.9 0 616.6-498.4 1114.9-1114.9 1114.9z"/><path fill-rule="evenodd" class="c" d="m2432.3 2624.3c-436 435.9-1140.8 435.9-1576.7 0-436-436-436-1140.8 0-1576.7 435.9-436 1140.7-436 1576.7 0 435.9 435.9 435.9 1140.7 0 1576.7z"/><path fill-rule="evenodd" class="d" d="m1643.9 2787.4c-526.2 0-951.5-425.3-951.5-951.5 0-526.2 425.3-951.5 951.5-951.5 526.2 0 951.6 425.3 951.6 951.5 0 526.2-425.4 951.5-951.6 951.5z"/><path class="c" d="m1643.9 2835.1c-550.9 0-999.1-448.2-999.1-999.2 0-550.9 448.2-999.2 999.1-999.2 551 0 999.2 448.3 999.2 999.2 0 551-448.2 999.2-999.2 999.2zm0-1950.7c-524.6 0-951.5 426.8-951.5 951.5 0 524.7 426.9 951.5 951.5 951.5 524.7 0 951.6-426.8 951.6-951.5 0-524.7-426.9-951.5-951.6-951.5z"/><path fill-rule="evenodd" class="e" d="m1643.9 2416c-320.8 0-580.1-259.3-580.1-580.1 0-320.8 259.3-580.1 580.1-580.1 320.8 0 580.1 259.3 580.1 580.1 0 320.8-259.3 580.1-580.1 580.1z"/><path class="c" d="m1643.9 2463.7c-346.1 0-627.7-281.6-627.7-627.8 0-346.1 281.6-627.7 627.7-627.7 346.2 0 627.8 281.6 627.8 627.7 0 346.2-281.6 627.8-627.8 627.8zm0-1160.2c-293.5 0-532.4 238.8-532.4 532.4 0 293.6 238.9 532.5 532.4 532.5 293.6 0 532.5-238.9 532.5-532.5 0-293.6-238.9-532.4-532.5-532.4z"/><path fill-rule="evenodd" class="f" d="m1643.9 2060.7c-124.2 0-224.7-100.5-224.7-224.8 0-124.3 100.5-224.7 224.7-224.7 124.3 0 224.8 100.4 224.8 224.7 0 124.3-100.5 224.8-224.8 224.8z"/><path class="c" d="m1643.9 2108.3c-150.2 0-272.4-122.2-272.4-272.4 0-150.2 122.2-272.4 272.4-272.4 150.2 0 272.4 122.2 272.4 272.4 0 150.2-122.2 272.4-272.4 272.4zm0-449.5c-97.6 0-177 79.5-177 177.1 0 97.7 79.4 177.1 177 177.1 97.7 0 177.1-79.4 177.1-177.1 0-97.6-79.4-177.1-177.1-177.1z"/><path class="g" d="m3196.6 2171l47.7 96.1-201.9-46.5c-66.2-15.2-122-59.3-152.1-120.1z"/><path class="h" d="m3203.3 2142.2l84.8-65.6-201.9-46.5c-66.1-15.2-135.6 0-189.3 41.5z"/><path fill-rule="evenodd" class="i" d="m3207.9 2138.2l-8 34.6-1310.3-301.7 7.9-34.6z"/><path class="j" d="m1958.3 1819.4c19.9 4.6-1.7 98.2-21.5 93.6l-301.5-108.5c-11.1-4-7.3-20.6 4.5-19.3z"/><path class="k" d="m2278.2 3169.5c0 0 16.1 23.2 16.9 55.8 0.2 7.7-6.1 14-13.7 14.3l-123.9 4.3c-5.8 0.2-8.4-7.2-3.8-10.7 22.9-17.3 67.9-49.6 100.8-62.9z"/><path class="l" d="m2281.3 3130l-3.2 47.6c-0.4 5.3-5 9.5-10.3 9-3.2-0.2-7.1-1.1-11.4-3-4.1-1.8-6.6-6-6.4-10.5l2.1-57.5z"/><path class="m" d="m2968.2 2961.8c0 0 25.9-11.4 58-6 7.6 1.2 12.6 8.5 11.4 16.1l-19.2 122.4c-0.9 5.8-8.7 6.9-11.2 1.7-12.7-25.7-35.9-76-42.7-110.8z"/><path class="n" d="m2930 2951.2l46.1 12.2c5.2 1.3 8.4 6.6 7 11.8-0.9 3.1-2.4 6.8-5.2 10.6-2.5 3.7-7.1 5.3-11.5 4.3l-56-13z"/><path class="o" d="m2298 1987.9c0 0-4.2-9.6-3.5-15.3 0.7-5.7 0.8-23.4-9.8-30.9 0 0-5.8 0.3-5.9 6.8-6.8-7.3-7.1-13.5-14.1-9.1-7 4.5-33.3 20.4-20.2 31 13.2 10.5 33.8 30.5 33.8 30.5z"/><path class="p" d="m2526 2753.9c0 0 23.5 187.1 90.6 194.3 67.1 7.1 324.2 44.2 324.2 44.2l7.1-38.5c0 0-148.5-90-237-88.6-44.3-65.7-33.5-247.2-33.5-247.2z"/><path class="q" d="m2802.2 2100.7c-7.9 208.6-117.4 227-117.4 227v266.8h-154.2c0 0-74.8-182.1-72.9-243-111.3-47.1-167.6-316.1-179.4-350.6 5.5-4.2 8.5-4 19.7-13 151.6 241.4 188.6 278.5 188.6 278.5h85.7c164.7-14.8 205.2-171.4 205.2-171.4z"/><path class="r" d="m2680 2594c0 0 12.3 130.7-245.2 232.6-62.8 117.1-145.3 335.4-145.3 335.4h-54.2c0 0 37.1-329.7 102.8-395.4 65.7-65.7 137.4-139.7 192.5-172 127.4-13.4 149.4-0.6 149.4-0.6z"/><path class="s" d="m2570.2 2169.1l28.4 100c0 0-48.5 26.1-84.4 19.1l-9.8-88.2z"/><path class="t" d="m2511.4 2096.5c-1 1.2-39.7 97.2-39.7 97.2l55.4 20.9 50.1-85.6c0 0-48.4-52.1-65.8-32.5z"/><path class="u" d="m2554.2 2140.3l-22.8 47.1q-0.5 0.9-1.2 1.7c-2.7 3-12.8 12.9-22.3 1.9-8.6-10-16.6-19-24.7-21.4-3.6-1-7.5 0.8-8.9 4.3-3.5 8.8-11 28.6-14.9 46.8-0.8 3.7 1.4 7.4 5 8.5 10.9 3.3 34 9.8 53.9 10.6 2.6 0.1 5.2-1.2 6.6-3.5 6.7-11.2 27.4-45.3 34.6-54 6.8-8 21-6.2 26.9-5 2 0.4 4 0 5.6-1.1 5.7-4 17-14.6 4.6-30.1-2.6-3.3-2-8 1.3-10.5 6.7-5 14.2-14.2 5.6-27.8-8.7-13.7-22.4-13.3-30.9-11.2-3.5 0.9-7-1-8.4-4.2-0.9-1.8-2.5-3.4-5.6-3.4-4.3-0.2-7.4-4.1-6.9-8.2 1.1-8.1-0.6-18.7-14.2-24.6-24-10.5-42.2 11.7-45.8 29.5-3.5 17.8 23.2 27.7 39.4 28.3 12.4 0.5 20.2 13.7 23.2 20 0.9 2 0.9 4.3-0.1 6.3z"/><path class="v" d="m2551 2199.4c0 0 7.6-30.7 20.7-30.7 13.1-0.1 24.5 12 9.7 28-18.5 19.9-30.4 2.7-30.4 2.7z"/><path class="w" d="m2807.3 2045.7c0 0-33.3-14.8-29 10 4.3 24.8-4.7 42.8 14.3 44.7 19 2 21.2-37.6 14.7-54.7z"/></svg>