<svg version="1.2" xmlns="http://www.w3.org/2000/svg" viewBox="0 0 500 500" width="500" height="500">
	<title>procurando</title>
	<defs>
		<linearGradient id="g1" x2="1" gradientUnits="userSpaceOnUse" gradientTransform="matrix(-32.687,8.474,-6.233,-24.043,92.681,174.531)">
			<stop offset="0" stop-color="#b8801e"/>
			<stop offset="1" stop-color="#f58960"/>
		</linearGradient>
		<linearGradient id="g2" x2="1" gradientUnits="userSpaceOnUse" gradientTransform="matrix(-29.055,19.975,-13.555,-19.717,108.512,230.675)">
			<stop offset="0" stop-color="#b8801e"/>
			<stop offset="1" stop-color="#f58960"/>
		</linearGradient>
		<linearGradient id="g3" x2="1" gradientUnits="userSpaceOnUse" gradientTransform="matrix(-26.028,-21.791,14.762,-17.633,105.472,169.827)">
			<stop offset="0" stop-color="#b8801e"/>
			<stop offset="1" stop-color="#f58960"/>
		</linearGradient>
		<linearGradient id="g4" x2="1" gradientUnits="userSpaceOnUse" gradientTransform="matrix(-36.319,0,0,-25.281,91.476,207.858)">
			<stop offset="0" stop-color="#b8801e"/>
			<stop offset="1" stop-color="#f58960"/>
		</linearGradient>
		<linearGradient id="g5" x2="1" gradientUnits="userSpaceOnUse" gradientTransform="matrix(-40.998,-27.341,8.833,-13.245,111.114,244.581)">
			<stop offset="0" stop-color="#b8801e"/>
			<stop offset="1" stop-color="#f58960"/>
		</linearGradient>
		<linearGradient id="g6" x2="1" gradientUnits="userSpaceOnUse" gradientTransform="matrix(-26.288,-55.884,14.759,-6.943,111.6,233.341)">
			<stop offset="0" stop-color="#b8801e"/>
			<stop offset="1" stop-color="#f58960"/>
		</linearGradient>
		<linearGradient id="g7" x2="1" gradientUnits="userSpaceOnUse" gradientTransform="matrix(-11.702,-48.017,10.993,-2.679,114.192,189.273)">
			<stop offset="0" stop-color="#b8801e"/>
			<stop offset="1" stop-color="#f58960"/>
		</linearGradient>
		<linearGradient id="g8" x2="1" gradientUnits="userSpaceOnUse" gradientTransform="matrix(-23,-9.28,4.499,-11.149,112.534,266.91)">
			<stop offset="0" stop-color="#b8801e"/>
			<stop offset="1" stop-color="#f58960"/>
		</linearGradient>
		<linearGradient id="g9" x2="1" gradientUnits="userSpaceOnUse" gradientTransform="matrix(32.687,8.474,-6.233,24.043,414.885,174.531)">
			<stop offset="0" stop-color="#b8801e"/>
			<stop offset="1" stop-color="#f58960"/>
		</linearGradient>
		<linearGradient id="g10" x2="1" gradientUnits="userSpaceOnUse" gradientTransform="matrix(29.055,19.975,-13.555,19.717,399.054,230.675)">
			<stop offset="0" stop-color="#b8801e"/>
			<stop offset="1" stop-color="#f58960"/>
		</linearGradient>
		<linearGradient id="g11" x2="1" gradientUnits="userSpaceOnUse" gradientTransform="matrix(26.028,-21.791,14.762,17.633,402.093,169.827)">
			<stop offset="0" stop-color="#b8801e"/>
			<stop offset="1" stop-color="#f58960"/>
		</linearGradient>
		<linearGradient id="g12" x2="1" gradientUnits="userSpaceOnUse" gradientTransform="matrix(36.319,0,0,25.281,416.09,207.858)">
			<stop offset="0" stop-color="#b8801e"/>
			<stop offset="1" stop-color="#f58960"/>
		</linearGradient>
		<linearGradient id="g13" x2="1" gradientUnits="userSpaceOnUse" gradientTransform="matrix(40.999,-27.341,8.833,13.245,396.452,244.581)">
			<stop offset="0" stop-color="#b8801e"/>
			<stop offset="1" stop-color="#f58960"/>
		</linearGradient>
		<linearGradient id="g14" x2="1" gradientUnits="userSpaceOnUse" gradientTransform="matrix(26.288,-55.884,14.759,6.943,395.965,233.341)">
			<stop offset="0" stop-color="#b8801e"/>
			<stop offset="1" stop-color="#f58960"/>
		</linearGradient>
		<linearGradient id="g15" x2="1" gradientUnits="userSpaceOnUse" gradientTransform="matrix(11.702,-48.017,10.993,2.679,393.374,189.273)">
			<stop offset="0" stop-color="#b8801e"/>
			<stop offset="1" stop-color="#f58960"/>
		</linearGradient>
		<linearGradient id="g16" x2="1" gradientUnits="userSpaceOnUse" gradientTransform="matrix(23,-9.281,4.499,11.149,395.032,266.91)">
			<stop offset="0" stop-color="#b8801e"/>
			<stop offset="1" stop-color="#f58960"/>
		</linearGradient>
		<linearGradient id="g17" x2="1" gradientUnits="userSpaceOnUse" gradientTransform="matrix(69.006,-133.774,159.384,82.216,225.718,256.446)">
			<stop offset="0" stop-color="#6656cc"/>
			<stop offset="1" stop-color="#7472d6"/>
		</linearGradient>
		<linearGradient id="g18" x2="1" gradientUnits="userSpaceOnUse" gradientTransform="matrix(11.179,0,0,11.179,247.669,287.946)">
			<stop offset="0" stop-color="#6656cc"/>
			<stop offset="1" stop-color="#7472d6"/>
		</linearGradient>
		<linearGradient id="g19" x2="1" gradientUnits="userSpaceOnUse" gradientTransform="matrix(0,41.079,-100.792,0,252.726,284.727)">
			<stop offset="0" stop-color="#a6aeb2"/>
			<stop offset="1" stop-color="#dbdcdd"/>
		</linearGradient>
		<linearGradient id="g20" x2="1" gradientUnits="userSpaceOnUse" gradientTransform="matrix(-0.442,-11.491,9.564,-0.368,252.685,173.412)">
			<stop offset="0" stop-color="#f4ba38"/>
			<stop offset="1" stop-color="#ffd349"/>
		</linearGradient>
		<linearGradient id="g21" x2="1" gradientUnits="userSpaceOnUse" gradientTransform="matrix(-0.442,-11.491,9.672,-0.372,269.269,172.774)">
			<stop offset="0" stop-color="#f4ba38"/>
			<stop offset="1" stop-color="#ffd349"/>
		</linearGradient>
		<linearGradient id="g22" x2="1" gradientUnits="userSpaceOnUse" gradientTransform="matrix(-0.442,-11.491,9.849,-0.379,236.721,174.026)">
			<stop offset="0" stop-color="#f4ba38"/>
			<stop offset="1" stop-color="#ffd349"/>
		</linearGradient>
		<linearGradient id="g23" x2="1" gradientUnits="userSpaceOnUse" gradientTransform="matrix(45.563,-14.214,37.498,120.2,386.502,233.663)">
			<stop offset="0" stop-color="#f4ba38"/>
			<stop offset="1" stop-color="#ffd349"/>
		</linearGradient>
		<linearGradient id="g24" x2="1" gradientUnits="userSpaceOnUse" gradientTransform="matrix(-17.121,-21.757,10.98,-8.64,386.939,222.525)">
			<stop offset="0" stop-color="#e85b7d"/>
			<stop offset="1" stop-color="#ff78af"/>
		</linearGradient>
		<linearGradient id="g25" x2="1" gradientUnits="userSpaceOnUse" gradientTransform="matrix(5.018,-9.234,12.057,6.553,367.458,196.144)">
			<stop offset="0" stop-color="#ef6f6f" stop-opacity="1"/>
			<stop offset="1" stop-color="#ef6f6f" stop-opacity="0"/>
		</linearGradient>
		<linearGradient id="g26" x2="1" gradientUnits="userSpaceOnUse" gradientTransform="matrix(-1.817,102.035,-40.87,-0.728,385.419,242.625)">
			<stop offset="0" stop-color="#7c45cc"/>
			<stop offset="1" stop-color="#ab6fd6"/>
		</linearGradient>
		<linearGradient id="g27" x2="1" gradientUnits="userSpaceOnUse" gradientTransform="matrix(70.154,-129.083,85.745,46.601,372.076,343.188)">
			<stop offset="0" stop-color="#6d5bb8" stop-opacity="1"/>
			<stop offset="1" stop-color="#604ab7" stop-opacity="0"/>
		</linearGradient>
		<linearGradient id="g28" x2="1" gradientUnits="userSpaceOnUse" gradientTransform="matrix(2.531,-4.657,.453,.246,380.207,290.035)">
			<stop offset="0" stop-color="#f99030" stop-opacity="1"/>
			<stop offset="1" stop-color="#f99030" stop-opacity="0"/>
		</linearGradient>
		<linearGradient id="g29" x2="1" gradientUnits="userSpaceOnUse" gradientTransform="matrix(-7.667,-13.017,11.237,-6.619,360.182,210.842)">
			<stop offset="0" stop-color="#afe3c0"/>
			<stop offset="1" stop-color="#c7ecc5"/>
		</linearGradient>
		<linearGradient id="g30" x2="1" gradientUnits="userSpaceOnUse" gradientTransform="matrix(20.434,-37.598,27.256,14.813,348.877,226.111)">
			<stop offset="0" stop-color="#e85b7d"/>
			<stop offset="1" stop-color="#ff78af"/>
		</linearGradient>
		<linearGradient id="g31" x2="1" gradientUnits="userSpaceOnUse" gradientTransform="matrix(-7.134,-51.718,45.875,-6.328,382.782,276.31)">
			<stop offset="0" stop-color="#f4ba38"/>
			<stop offset="1" stop-color="#ffd349"/>
		</linearGradient>
		<linearGradient id="g32" x2="1" gradientUnits="userSpaceOnUse" gradientTransform="matrix(-10.125,36.022,-7.072,-1.988,362.983,211.896)">
			<stop offset="0" stop-color="#ff911e" stop-opacity="1"/>
			<stop offset="1" stop-color="#fe931e" stop-opacity="0"/>
		</linearGradient>
		<linearGradient id="g33" x2="1" gradientUnits="userSpaceOnUse" gradientTransform="matrix(-12.484,-67.412,39.166,-7.253,370.458,269.022)">
			<stop offset="0" stop-color="#ff911e" stop-opacity="1"/>
			<stop offset="1" stop-color="#fe931e" stop-opacity="0"/>
		</linearGradient>
		<linearGradient id="g34" x2="1" gradientUnits="userSpaceOnUse" gradientTransform="matrix(4.572,0,0,6.753,153.633,243.575)">
			<stop offset="0" stop-color="#f99393"/>
			<stop offset="1" stop-color="#ffb0b4"/>
		</linearGradient>
		<linearGradient id="g35" x2="1" gradientUnits="userSpaceOnUse" gradientTransform="matrix(25.046,0,0,24.549,133.159,205.696)">
			<stop offset="0" stop-color="#e85b7d"/>
			<stop offset="1" stop-color="#ff78af"/>
		</linearGradient>
		<linearGradient id="g36" x2="1" gradientUnits="userSpaceOnUse" gradientTransform="matrix(-2.026,18.968,-11.802,-1.26,156.956,191.474)">
			<stop offset="0" stop-color="#ef6f6f" stop-opacity="1"/>
			<stop offset="1" stop-color="#ef6f6f" stop-opacity="0"/>
		</linearGradient>
		<linearGradient id="g37" x2="1" gradientUnits="userSpaceOnUse" gradientTransform="matrix(43.953,64.824,-18.702,12.68,132.151,274.078)">
			<stop offset="0" stop-color="#7c45cc"/>
			<stop offset="1" stop-color="#ab6fd6"/>
		</linearGradient>
		<linearGradient id="g38" x2="1" gradientUnits="userSpaceOnUse" gradientTransform="matrix(7.56,0,0,3.459,163.197,343.167)">
			<stop offset="0" stop-color="#e85b7d"/>
			<stop offset="1" stop-color="#ff78af"/>
		</linearGradient>
		<linearGradient id="g39" x2="1" gradientUnits="userSpaceOnUse" gradientTransform="matrix(35.846,76.931,-11.27,5.251,138.461,281.094)">
			<stop offset="0" stop-color="#6d5bb8" stop-opacity="1"/>
			<stop offset="1" stop-color="#604ab7" stop-opacity="0"/>
		</linearGradient>
		<linearGradient id="g40" x2="1" gradientUnits="userSpaceOnUse" gradientTransform="matrix(28.932,0,0,63.27,100.994,310.24)">
			<stop offset="0" stop-color="#7c45cc"/>
			<stop offset="1" stop-color="#ab6fd6"/>
		</linearGradient>
		<linearGradient id="g41" x2="1" gradientUnits="userSpaceOnUse" gradientTransform="matrix(6.654,0,0,4.055,99.859,342.16)">
			<stop offset="0" stop-color="#e85b7d"/>
			<stop offset="1" stop-color="#ff78af"/>
		</linearGradient>
		<linearGradient id="g42" x2="1" gradientUnits="userSpaceOnUse" gradientTransform="matrix(-18.672,82.121,-20.239,-4.602,119.536,277.284)">
			<stop offset="0" stop-color="#6d5bb8" stop-opacity="1"/>
			<stop offset="1" stop-color="#604ab7" stop-opacity="0"/>
		</linearGradient>
		<linearGradient id="g43" x2="1" gradientUnits="userSpaceOnUse" gradientTransform="matrix(8.834,0,0,16.592,164.851,220.363)">
			<stop offset="0" stop-color="#e85b7d"/>
			<stop offset="1" stop-color="#ff78af"/>
		</linearGradient>
		<linearGradient id="g44" x2="1" gradientUnits="userSpaceOnUse" gradientTransform="matrix(11.786,-18.783,9.784,6.139,162.119,219.152)">
			<stop offset="0" stop-color="#afe3c0"/>
			<stop offset="1" stop-color="#c7ecc5"/>
		</linearGradient>
		<linearGradient id="g45" x2="1" gradientUnits="userSpaceOnUse" gradientTransform="matrix(39.342,0,0,76.23,106.872,250.987)">
			<stop offset="0" stop-color="#f4ba38"/>
			<stop offset="1" stop-color="#ffd349"/>
		</linearGradient>
		<linearGradient id="g46" x2="1" gradientUnits="userSpaceOnUse" gradientTransform="matrix(13.369,-50.905,40.68,10.684,123.479,287.005)">
			<stop offset="0" stop-color="#ff911e" stop-opacity="1"/>
			<stop offset="1" stop-color="#fe931e" stop-opacity="0"/>
		</linearGradient>
		<linearGradient id="g47" x2="1" gradientUnits="userSpaceOnUse" gradientTransform="matrix(12.768,49.109,-57.699,15.002,122.674,211.988)">
			<stop offset="0" stop-color="#ff911e" stop-opacity="1"/>
			<stop offset="1" stop-color="#fe931e" stop-opacity="0"/>
		</linearGradient>
		<linearGradient id="g48" x2="1" gradientUnits="userSpaceOnUse" gradientTransform="matrix(35.912,0,0,32.906,134.939,231.635)">
			<stop offset="0" stop-color="#f4ba38"/>
			<stop offset="1" stop-color="#ffd349"/>
		</linearGradient>
		<linearGradient id="g49" x2="1" gradientUnits="userSpaceOnUse" gradientTransform="matrix(15.469,-27.438,79.634,44.894,143.243,244.729)">
			<stop offset="0" stop-color="#ff911e" stop-opacity="1"/>
			<stop offset="1" stop-color="#fe931e" stop-opacity="0"/>
		</linearGradient>
		<linearGradient id="g50" x2="1" gradientUnits="userSpaceOnUse" gradientTransform="matrix(22.469,0,0,29.268,240.138,247.103)">
			<stop offset="0" stop-color="#e85b7d"/>
			<stop offset="1" stop-color="#ff78af"/>
		</linearGradient>
		<linearGradient id="g51" x2="1" gradientUnits="userSpaceOnUse" gradientTransform="matrix(22.123,0,0,28.956,224.603,257.007)">
			<stop offset="0" stop-color="#a768dd"/>
			<stop offset="1" stop-color="#e290d4"/>
		</linearGradient>
		<linearGradient id="g52" x2="1" gradientUnits="userSpaceOnUse" gradientTransform="matrix(1.962,0,0,5.077,239.291,261.326)">
			<stop offset="0" stop-color="#9066dd" stop-opacity="1"/>
			<stop offset="1" stop-color="#8543dd" stop-opacity="0"/>
		</linearGradient>
		<linearGradient id="g53" x2="1" gradientUnits="userSpaceOnUse" gradientTransform="matrix(-1.493,53.003,-12.469,-0.351,209.949,314.275)">
			<stop offset="0" stop-color="#e85b7d"/>
			<stop offset="1" stop-color="#ff78af"/>
		</linearGradient>
		<linearGradient id="g54" x2="1" gradientUnits="userSpaceOnUse" gradientTransform="matrix(-1.493,53.003,-10.456,-0.295,233.687,314.943)">
			<stop offset="0" stop-color="#e85b7d"/>
			<stop offset="1" stop-color="#ff78af"/>
		</linearGradient>
		<linearGradient id="g55" x2="1" gradientUnits="userSpaceOnUse" gradientTransform="matrix(37.322,51.753,-49.819,35.927,199.738,275.154)">
			<stop offset="0" stop-color="#7c45cc"/>
			<stop offset="1" stop-color="#ab6fd6"/>
		</linearGradient>
		<linearGradient id="g56" x2="1" gradientUnits="userSpaceOnUse" gradientTransform="matrix(14.431,45.284,-68.47,21.82,211.232,267.249)">
			<stop offset="0" stop-color="#6d5bb8" stop-opacity="1"/>
			<stop offset="1" stop-color="#604ab7" stop-opacity="0"/>
		</linearGradient>
		<linearGradient id="g57" x2="1" gradientUnits="userSpaceOnUse" gradientTransform="matrix(-2.986,-29.114,30.245,-3.102,214.643,284.573)">
			<stop offset="0" stop-color="#a768dd"/>
			<stop offset="1" stop-color="#e290d4"/>
		</linearGradient>
		<linearGradient id="g58" x2="1" gradientUnits="userSpaceOnUse" gradientTransform="matrix(15.485,0,0,28.786,198.083,268.679)">
			<stop offset="0" stop-color="#9066dd" stop-opacity="1"/>
			<stop offset="1" stop-color="#8543dd" stop-opacity="0"/>
		</linearGradient>
		<linearGradient id="g59" x2="1" gradientUnits="userSpaceOnUse" gradientTransform="matrix(0,-23.809,77.133,0,222.01,271.017)">
			<stop offset="0" stop-color="#9066dd" stop-opacity="1"/>
			<stop offset="1" stop-color="#8543dd" stop-opacity="0"/>
		</linearGradient>
		<linearGradient id="g60" x2="1" gradientUnits="userSpaceOnUse" gradientTransform="matrix(17.692,0,0,19.291,200.696,277.987)">
			<stop offset="0" stop-color="#e85b7d"/>
			<stop offset="1" stop-color="#ff78af"/>
		</linearGradient>
		<linearGradient id="g61" x2="1" gradientUnits="userSpaceOnUse" gradientTransform="matrix(5.775,0,0,3.736,208.669,285.76)">
			<stop offset="0" stop-color="#ef6f6f" stop-opacity="1"/>
			<stop offset="1" stop-color="#ef6f6f" stop-opacity="0"/>
		</linearGradient>
		<linearGradient id="g62" x2="1" gradientUnits="userSpaceOnUse" gradientTransform="matrix(11.446,-28.863,17.242,6.837,212.508,251.716)">
			<stop offset="0" stop-color="#e85b7d"/>
			<stop offset="1" stop-color="#ff78af"/>
		</linearGradient>
		<linearGradient id="g63" x2="1" gradientUnits="userSpaceOnUse" gradientTransform="matrix(0,-21.012,30.118,0,297.304,406.7)">
			<stop offset="0" stop-color="#b8801e"/>
			<stop offset="1" stop-color="#f58960"/>
		</linearGradient>
		<linearGradient id="g64" x2="1" gradientUnits="userSpaceOnUse" gradientTransform="matrix(0,-16.701,23.94,0,338.661,352.306)">
			<stop offset="0" stop-color="#b8801e"/>
			<stop offset="1" stop-color="#f58960"/>
		</linearGradient>
		<linearGradient id="g65" x2="1" gradientUnits="userSpaceOnUse" gradientTransform="matrix(0,-14.826,21.251,0,141.149,355.378)">
			<stop offset="0" stop-color="#b8801e"/>
			<stop offset="1" stop-color="#f58960"/>
		</linearGradient>
		<linearGradient id="g66" x2="1" gradientUnits="userSpaceOnUse" gradientTransform="matrix(0,-12.903,10.287,0,340.065,405.278)">
			<stop offset="0" stop-color="#b8801e"/>
			<stop offset="1" stop-color="#f58960"/>
		</linearGradient>
	</defs>
	<style>
		.s0 { fill: #c9a8f4 } 
		.s1 { fill: url(#g1) } 
		.s2 { fill: #6442ce } 
		.s3 { fill: url(#g2) } 
		.s4 { fill: url(#g3) } 
		.s5 { fill: url(#g4) } 
		.s6 { fill: url(#g5) } 
		.s7 { fill: url(#g6) } 
		.s8 { fill: url(#g7) } 
		.s9 { fill: url(#g8) } 
		.s10 { fill: none;stroke: #ea8bef;stroke-linecap: round;stroke-miterlimit:10;stroke-width: 1 } 
		.s11 { fill: url(#g9) } 
		.s12 { fill: url(#g10) } 
		.s13 { fill: url(#g11) } 
		.s14 { fill: url(#g12) } 
		.s15 { fill: url(#g13) } 
		.s16 { fill: url(#g14) } 
		.s17 { fill: url(#g15) } 
		.s18 { fill: url(#g16) } 
		.s19 { fill: #dbdcdd } 
		.s20 { fill: url(#g17) } 
		.s21 { fill: #ffffff } 
		.s22 { fill: url(#g18) } 
		.s23 { fill: url(#g19) } 
		.s24 { fill: #e83867 } 
		.s25 { fill: #fffdfd } 
		.s26 { fill: #6545ba } 
		.s27 { opacity: .61;fill: #e3dce5 } 
		.s28 { fill: #42423f } 
		.s29 { opacity: .71;fill: url(#g20) } 
		.s30 { opacity: .71;fill: url(#g21) } 
		.s31 { opacity: .71;fill: url(#g22) } 
		.s32 { fill: #9b233f } 
		.s33 { fill: url(#g23) } 
		.s34 { fill: url(#g24) } 
		.s35 { fill: #ed4c76 } 
		.s36 { fill: url(#g25) } 
		.s37 { fill: url(#g26) } 
		.s38 { fill: url(#g27) } 
		.s39 { fill: url(#g28) } 
		.s40 { fill: #6149b7 } 
		.s41 { fill: #ba2744 } 
		.s42 { fill: url(#g29) } 
		.s43 { fill: url(#g30) } 
		.s44 { fill: url(#g31) } 
		.s45 { fill: url(#g32) } 
		.s46 { fill: url(#g33) } 
		.s47 { fill: #ba72ed } 
		.s48 { fill: url(#g34) } 
		.s49 { fill: #ef882b } 
		.s50 { fill: url(#g35) } 
		.s51 { fill: url(#g36) } 
		.s52 { fill: #fca128 } 
		.s53 { fill: url(#g37) } 
		.s54 { fill: url(#g38) } 
		.s55 { fill: url(#g39) } 
		.s56 { fill: url(#g40) } 
		.s57 { fill: url(#g41) } 
		.s58 { fill: url(#g42) } 
		.s59 { fill: url(#g43) } 
		.s60 { fill: url(#g44) } 
		.s61 { fill: url(#g45) } 
		.s62 { fill: url(#g46) } 
		.s63 { fill: url(#g47) } 
		.s64 { fill: url(#g48) } 
		.s65 { fill: url(#g49) } 
		.s66 { fill: url(#g50) } 
		.s67 { fill: url(#g51) } 
		.s68 { fill: url(#g52) } 
		.s69 { fill: #ff78af } 
		.s70 { fill: url(#g53) } 
		.s71 { fill: url(#g54) } 
		.s72 { fill: url(#g55) } 
		.s73 { fill: url(#g56) } 
		.s74 { fill: url(#g57) } 
		.s75 { fill: url(#g58) } 
		.s76 { fill: url(#g59) } 
		.s77 { fill: none;stroke: #2f2c93;stroke-miterlimit:10;stroke-width: .4 } 
		.s78 { fill: url(#g60) } 
		.s79 { fill: url(#g61) } 
		.s80 { fill: url(#g62) } 
		.s81 { fill: url(#g63) } 
		.s82 { fill: url(#g64) } 
		.s83 { fill: url(#g65) } 
		.s84 { fill: url(#g66) } 
		.s85 { fill: #e8f2dd } 
	</style>
	<g id="OBJECTS">
		<g>
			<g style="opacity: .24">
				<path fill-rule="evenodd" class="s0" d="m252.5 347.7c-37.2 0-67.4-5.9-67.4-13.3 0-7.3 30.2-13.3 67.4-13.3 37.3 0 67.4 6 67.4 13.3 0 7.4-30.1 13.3-67.4 13.3z"/>
				<path class="s0" d="m373 352.8c0 0-20.6 0.4-21.2 5.4-0.6 5.1 25.2 18 31.9 18.8 6.6 0.8 3.4-9.7 12.9-12.1 9.5-2.4 25.2-15.4-23.6-12.1z"/>
				<path class="s0" d="m203.1 385.5c0 0-11.7 4.8-8.9 10.5 2.8 5.6 10.9 1.6 25.2 10.8 14.4 9.3 31.3 9.7 29.7-3.8-1.6-13.5-17-21-46-17.5z"/>
				<path class="s0" d="m96.8 349.3c0 0 5.4 15.6 23.6 15.6 18.1 0 36.7-1.2 48.2 5.6 11.5 6.9 25.2 3.7 17.9-18.1 0 0-14.7-0.9-31.4-2.9-18.8-2.1-55.1-14.1-58.3-0.2z"/>
				<path class="s0" d="m220.4 94.3c-39.3-19.1-148.9-34.3-148.6 25.5 0.3 96.2 58.3 187 166.2 194.8 107.9 7.9 204.1-55.7 201.8-136.5-2.3-80.7-42.2-88-94.1-81.5-51.8 6.4-78.9 20.3-125.3-2.3z"/>
				<path class="s0" d="m275.5 76.1c-9.6-1.7-67.9-7.5-51.4 8.5 16.6 16.1 48.7 14.8 66.6 10.2 17.8-4.6-1.9-16.5-15.2-18.7z"/>
			</g>
			<g>
				<g>
					<path class="s1" d="m82.9 165.2c0 0-16.8-5.8-36.5 9.1 0 0 13 8.6 21.5 17 8.5 8.5 24.1-0.4 20.9-7.9 0 0 9.3-8.9-5.9-18.2z"/>
					<path class="s2" d="m89.8 188.4c0 0-15.1-7.9-31.3-11.5 0 0 16.6 1.6 30.1 9z"/>
					<path class="s3" d="m88.1 227.4c0 0-17.1 4.7-24.9 28.2 0 0 15.6-0.3 27.4 1.8 11.8 2.2 19.6-14 12.7-18.3 0 0 2.6-12.6-15.2-11.7z"/>
					<path class="s2" d="m106.9 242.6c0 0-16.9 2.1-32.2 8.2 0 0 14.5-8 29.9-9.5z"/>
					<path class="s4" d="m103.9 150.8c0 0-8.8-14.3-32.2-15.1 0 0 4.4 14.1 5.6 25.4 1.2 11.3 18 14 20.1 6.6 0 0 12.2-0.9 6.5-16.9z"/>
					<path class="s2" d="m88.6 150.8c0 0 20.2 20 33.1 59.9l-4.7 6.5c0 0-0.2-23.8-28.4-66.4z"/>
					<path class="s5" d="m76.7 194.7c0 0-15.9-7.8-37.3 4.7 0 0 11.9 10.1 19.3 19.5 7.5 9.4 24 2.4 21.7-5.4 0 0 10.3-7.7-3.7-18.8z"/>
					<path class="s2" d="m64.4 203.8c0 0 27.8 6.2 60 33.1l-3.9 5.6c0 0-9.5-17.7-56.1-38.7z"/>
					<g>
						<path class="s6" d="m114.1 253.2c0.2 0.7-0.5 1.4-1.2 1.2-5.2-1.1-22.2-5.9-32.8-21-7.6-10.9-17.1-14.2-23.3-15.2-1.2-0.1-1.3-1.8-0.1-2.1 14.8-3.3 49.9-6.3 57.4 37.1z"/>
						<path class="s7" d="m122.5 235.9c0 0-10.1-47-42.5-77.8-1-1-2.7 0-2.2 1.4 1.5 4.3 3.3 11.3 3.7 21.1 0.6 18.4 3.4 43.7 37.5 61.4z"/>
						<path class="s8" d="m122.6 197.8c-0.1-5-1.6-50.1-22.6-77.4-1.3-1.5-3.8-0.2-3.1 1.7 1.5 4.5 3 10.4 3.8 17.3 1.6 16-9.9 37 15.6 65.9 0.8 1 2.3 0.8 2.9-0.4l3.2-6.2q0.2-0.4 0.2-0.9z"/>
						<path class="s9" d="m122.4 258.3c0 0-20.2 4.5-41.7-4.4-1.6-0.7-3 1.4-1.7 2.6 3 2.9 6.1 6.1 8.3 9.2 6.4 8.8 23 15.8 39.3-1.7z"/>
						<path fill-rule="evenodd" class="s10" d="m124.5 189c0 0-11.7-8.9-14.9-30.1-3.2-21.2-7.1-29.3-7.1-29.3"/>
						<path fill-rule="evenodd" class="s10" d="m83.4 165.4c0 0 5.2 12.7 11.3 32 6 19.4 19.3 31.1 29.8 35.1"/>
						<path fill-rule="evenodd" class="s10" d="m122.5 264c0 0-22.6 8.1-39.1-7.5"/>
						<path fill-rule="evenodd" class="s10" d="m63.2 217.6c0 0 14.1-3.2 25.4 11.1 11.3 14.3 19.2 26.2 33.1 27.8"/>
					</g>
				</g>
				<g>
					<path class="s11" d="m424.7 165.2c0 0 16.8-5.8 36.5 9.1 0 0-13.1 8.6-21.6 17-8.5 8.5-24-0.4-20.8-7.9 0 0-9.4-8.9 5.9-18.2z"/>
					<path class="s2" d="m417.8 188.4c0 0 15.1-7.9 31.2-11.5 0 0-16.5 1.6-30 9z"/>
					<path class="s12" d="m419.4 227.4c0 0 17.2 4.7 25 28.2 0 0-15.6-0.3-27.4 1.8-11.8 2.2-19.6-14-12.7-18.3 0 0-2.7-12.6 15.1-11.7z"/>
					<path class="s2" d="m400.6 242.6c0 0 17 2.1 32.3 8.2 0 0-14.6-8-29.9-9.5z"/>
					<path class="s13" d="m403.6 150.8c0 0 8.9-14.3 32.3-15.1 0 0-4.4 14.1-5.6 25.4-1.3 11.3-18 14-20.1 6.6 0 0-12.2-0.9-6.6-16.9z"/>
					<path class="s2" d="m419 150.8c0 0-20.2 20-33.1 59.9l4.6 6.5c0 0 0.2-23.8 28.5-66.4z"/>
					<path class="s14" d="m430.8 194.7c0 0 16-7.8 37.4 4.7 0 0-11.9 10.1-19.4 19.5-7.4 9.4-23.9 2.4-21.6-5.4 0 0-10.4-7.7 3.6-18.8z"/>
					<path class="s2" d="m443.1 203.8c0 0-27.7 6.2-59.9 33.1l3.9 5.6c0 0 9.5-17.7 56-38.7z"/>
					<g>
						<path class="s15" d="m393.4 253.2c-0.1 0.7 0.6 1.4 1.3 1.2 5.2-1.1 22.2-5.9 32.7-21 7.7-10.9 17.1-14.2 23.4-15.2 1.2-0.1 1.2-1.8 0.1-2.1-14.9-3.3-49.9-6.3-57.5 37.1z"/>
						<path class="s16" d="m385.1 235.9c0 0 10.1-47 42.4-77.8 1.1-1 2.7 0 2.3 1.4-1.6 4.3-3.3 11.3-3.7 21.1-0.7 18.4-3.5 43.7-37.6 61.4z"/>
						<path class="s17" d="m385 197.8c0.1-5 1.6-50.1 22.6-77.4 1.2-1.5 3.7-0.2 3.1 1.7-1.5 4.5-3.1 10.4-3.8 17.3-1.7 16 9.9 37-15.6 65.9-0.8 1-2.3 0.8-2.9-0.4l-3.2-6.2q-0.2-0.4-0.2-0.9z"/>
						<path class="s18" d="m385.2 258.3c0 0 20.1 4.5 41.6-4.4 1.7-0.7 3 1.4 1.8 2.6-3.1 2.9-6.1 6.1-8.3 9.2-6.4 8.8-23.1 15.8-39.3-1.7z"/>
						<path fill-rule="evenodd" class="s10" d="m383.1 189c0 0 11.7-8.9 14.9-30.1 3.2-21.2 7-29.3 7-29.3"/>
						<path fill-rule="evenodd" class="s10" d="m424.2 165.4c0 0-5.2 12.7-11.3 32-6 19.4-19.4 31.1-29.8 35.1"/>
						<path fill-rule="evenodd" class="s10" d="m385.1 264c0 0 22.6 8.1 39.1-7.5"/>
						<path fill-rule="evenodd" class="s10" d="m444.4 217.6c0 0-14.1-3.2-25.4 11.1-11.3 14.3-19.2 26.2-33.1 27.8"/>
					</g>
				</g>
			</g>
			<g>
				<path class="s19" d="m385.1 300.7h-262.9c-2.6 0-4.7-2.1-4.7-4.6v-161.3c0-8.2 6.6-14.8 14.8-14.8h241.7c8.1 0 14.7 6.6 14.7 14.8v162.3c0 2-1.6 3.6-3.6 3.6z"/>
				<path class="s20" d="m388.7 276.2h-271.2v-142.5c0-7.6 6.2-13.7 13.8-13.7h243.7c7.6 0 13.7 6.1 13.7 13.7 0 0 0 142.5 0 142.5z"/>
				<path class="s21" d="m376 136.9v122.4c0 2.9-2.4 5.2-5.2 5.2h-236.1c-2.9 0-5.2-2.3-5.2-5.2v-122.4c0-2.9 2.3-5.2 5.2-5.2h236.1c2.8 0 5.2 2.3 5.2 5.2z"/>
				<path fill-rule="evenodd" class="s22" d="m253.3 293.5c-3.1 0-5.6-2.5-5.6-5.6 0-3 2.5-5.5 5.6-5.5 3 0 5.5 2.5 5.5 5.5 0 3.1-2.5 5.6-5.5 5.6z"/>
				<path fill-rule="evenodd" class="s23" d="m221.1 300.7h63.3v25.8h-63.3z"/>
				<path class="s19" d="m303.6 337.2h-100.6c0-6.8 5.4-12.3 12.2-12.3h76.1c6.8 0 12.3 5.5 12.3 12.3z"/>
				<g>
					<path class="s24" d="m224.5 191v14.4h-11c-4 0-7.3-3.2-7.3-7.2 0-2 0.8-3.8 2.2-5.1 1.3-1.3 3.1-2.1 5.1-2.1z"/>
					<g>
						<g>
							<path class="s24" d="m290.1 191h-65.6v14.4h65.6c2 0 3.8-0.8 5.1-2.1 1.3-1.3 2.1-3.1 2.1-5.1 0-4-3.2-7.2-7.2-7.2zm0 1c3.4 0 6.2 2.8 6.2 6.2 0 1.7-0.7 3.2-1.8 4.4-1.2 1.2-2.8 1.8-4.4 1.8h-64.6v-12.4c0 0 64.6 0 64.6 0z"/>
						</g>
					</g>
					<path class="s25" d="m216.2 195.1c-1.1-1.2-3-1.2-4.1-0.1-1.2 1.2-1.2 3-0.1 4.2 1 0.9 2.5 1.1 3.7 0.4l2.6 2.7c0.3 0.3 0.8 0.3 1.1 0 0.3-0.3 0.3-0.8 0-1.1l-2.7-2.7c0.6-1.1 0.4-2.5-0.5-3.4zm-0.6 3.5c-0.8 0.8-2.2 0.8-3 0-0.8-0.8-0.7-2.2 0.1-3 0.8-0.8 2.1-0.8 2.9 0.1 0.8 0.8 0.8 2.1 0 2.9z"/>
				</g>
				<path class="s26" d="m376 136.9v5.8h-246.5v-5.8c0-2.9 2.3-5.2 5.2-5.2h236.1c2.8 0 5.2 2.3 5.2 5.2z"/>
				<path class="s27" d="m291.4 254.9h-77.3c-1.6 0-2.9-1.3-2.9-2.9 0-1.6 1.3-2.9 2.9-2.9h77.3c1.6 0 3 1.3 3 2.9 0 1.6-1.4 2.9-3 2.9z"/>
				<g>
					<g>
						<path class="s28" d="m249.1 172.3l0.2 3.6c0 0.6 0.5 1 1.1 1h3.5c0.5 0 1-0.4 1.1-1l0.1-2.8z"/>
						<path class="s29" d="m258.5 166q0.3-0.9 0.3-1.9c0-3.6-2.9-6.5-6.5-6.5-3.6 0-6.5 2.9-6.5 6.5q0 1.4 0.5 2.5l2.8 6.4 6 0.1 2.6-5.4q0.5-0.7 0.8-1.7z"/>
						<path class="s21" d="m250.5 172h-0.1c-0.2 0-0.3-0.1-0.3-0.3v-3c0-0.2 0.1-0.3 0.3-0.3h0.1c0.1 0 0.3 0.1 0.3 0.3v3c0 0.2-0.2 0.3-0.3 0.3z"/>
						<path class="s21" d="m252.3 172h-0.1c-0.2 0-0.3-0.1-0.3-0.3v-6.5c0-0.1 0.1-0.3 0.3-0.3h0.1c0.1 0 0.3 0.2 0.3 0.3v6.5c0 0.2-0.2 0.3-0.3 0.3z"/>
						<path class="s21" d="m254.1 172c-0.2 0-0.3-0.1-0.3-0.3v-2.9c0-0.2 0.1-0.3 0.3-0.3 0.2 0 0.3 0.1 0.3 0.3v2.9c0 0.2-0.1 0.3-0.3 0.3z"/>
					</g>
					<g>
						<path class="s28" d="m263.8 172.5l-1.1 2.9c-0.2 0.5 0 1 0.5 1.2l2.7 1.2c0.4 0.2 1 0 1.2-0.4l1.1-2.2z"/>
						<path class="s30" d="m273.4 170.9q0.5-0.6 0.9-1.4c1.2-2.8 0-6.1-2.8-7.4-2.8-1.3-6.1 0-7.4 2.8q-0.5 1.1-0.5 2.2v6l4.6 2.1 3.9-3.3q0.7-0.4 1.2-1z"/>
						<path class="s21" d="m264.9 172.7c-0.2-0.1-0.2-0.2-0.2-0.3l1.1-2.4c0.1-0.1 0.2-0.2 0.3-0.1h0.1c0.1 0.1 0.2 0.2 0.1 0.3l-1 2.4c-0.1 0.1-0.2 0.2-0.4 0.1z"/>
						<path class="s21" d="m266.4 173.4l-0.1-0.1c-0.1 0-0.2-0.2-0.1-0.3l2.2-5.1c0.1-0.1 0.2-0.1 0.4-0.1v0.1c0.2 0 0.2 0.2 0.2 0.3l-2.3 5c-0.1 0.2-0.2 0.2-0.3 0.2z"/>
						<path class="s21" d="m267.8 174c-0.1 0-0.2-0.2-0.1-0.3l1-2.3c0-0.1 0.2-0.2 0.3-0.1 0.2 0 0.2 0.2 0.2 0.3l-1.1 2.3c0 0.1-0.2 0.2-0.3 0.1z"/>
					</g>
					<g>
						<path class="s28" d="m242.2 172.5l1.4 2.8c0.3 0.4 0.1 1-0.3 1.2l-2.6 1.5c-0.4 0.3-1 0.1-1.3-0.3l-1.3-2z"/>
						<path class="s31" d="m232.5 172q-0.6-0.6-1.1-1.4c-1.5-2.6-0.6-6 2-7.6 2.7-1.6 6.1-0.7 7.7 2q0.6 1 0.7 2.1l0.7 6-4.4 2.6-4.2-2.8q-0.8-0.4-1.4-0.9z"/>
						<path class="s21" d="m241.1 172.9l0.1-0.1c0.1 0 0.1-0.2 0-0.3l-1.3-2.3c0-0.1-0.2-0.1-0.3-0.1l-0.1 0.1c-0.1 0.1-0.2 0.2-0.1 0.3l1.3 2.3c0.1 0.1 0.3 0.1 0.4 0.1z"/>
						<path class="s21" d="m239.7 173.7l0.1-0.1c0.1-0.1 0.2-0.2 0.1-0.3l-2.8-4.8c-0.1-0.1-0.2-0.2-0.4-0.1-0.2 0.1-0.2 0.3-0.1 0.4l2.8 4.8c0.1 0.1 0.2 0.1 0.3 0.1z"/>
						<path class="s21" d="m238.4 174.4c0.1 0 0.2-0.2 0.1-0.3l-1.3-2.2c-0.1-0.1-0.2-0.1-0.3-0.1-0.2 0.1-0.2 0.3-0.1 0.4l1.2 2.2c0.1 0.1 0.3 0.1 0.4 0z"/>
					</g>
				</g>
			</g>
			<g>
				<path class="s32" d="m352.7 204.9q-0.2 0.1-0.4 0.1c-2 0-3.7-2.6-3.7-5.7 0-3.2 1.7-5.7 3.7-5.7q0.2 0 0.4 0c-1.8 0.3-3.3 2.8-3.3 5.7 0 2.9 1.5 5.3 3.3 5.6z"/>
				<path class="s33" d="m384.9 212.7c0 0 8.9 0.4 12.6 7.1 3.8 6.8 8.8 22.3 6.9 25.3-1.9 3-11.6 8.1-11.6 8.1z"/>
				<path class="s34" d="m366 194.8c0 4.5 0.3 13.5 2.2 15.3q0 0.1 0.1 0.1c1.8 1.4 3.9-0.1 4.3-0.4q0.1-0.1 0.1-0.1c0 0 1.8 4.5 1.3 5.8l9.9-1.8c0 0-2.6-4-4.4-6.6-1.4-2-5.3-9.9-7.1-13.7q-0.2-0.4-0.3-0.7c-0.4-0.8-0.7-1.3-0.7-1.3l-2.6 0.4-2.8 0.4c0 0 0 1 0 2.6z"/>
				<path class="s35" d="m368.2 210.1q0 0.1 0.1 0.1c1.8 1.4 3.9-0.1 4.3-0.4 0.4-1.6 0.3-3.1 0.3-3.1-1.6 3-3.5 3.5-4.7 3.4z"/>
				<path class="s36" d="m366 194.8c1.8 0.7 4.1 0.7 4.1 0.7l2.3-2.1 0.5-0.5-0.8-0.2-3.3-0.9-2.8 0.4c0 0 0 1 0 2.6z"/>
				<path class="s37" d="m366 295.7c0.2 4.6 7 33.3 6.6 49.5h8c0 0-0.2-28.4-1.8-38.7-1.5-9.9-0.3-12.2 1.6-16.6q0.1-0.3 0.2-0.5 0.4-0.9 0.8-1.8 0 0 0 0c1.9-4.4 3.9-8.9 3.9-8.9 0 0 0 0.4 0 1-0.2 3.8-0.8 18.9 0 22.5 0.9 4.2 8.3 37.3 9.1 45.5h7.7c0 0-1.2-25.6-3.5-37.7-2.4-12 0.2-21.3 2.7-32 2.5-10.8 1.5-22.6 1.5-22.6l-31.4 3.9c0 0-5.7 31.9-5.4 36.4z"/>
				<path class="s38" d="m385.3 279.7c-0.2 3.8-0.8 18.9 0 22.5 0.9 4.2 8.3 37.3 9.1 45.5h0.2l1.4-0.7c0 0-0.3-21.7-2.9-27.4-2.6-5.7-5.8-14.6-5.1-20.7 0.8-6.1 4.7-24.8 0-32.9 0 0-0.2 6.6-2.7 13.7z"/>
				<path class="s39" d="m380.4 289.9q0.1-0.3 0.2-0.5 0.4-0.9 0.8-1.8-0.6 0.9-1 2.3z"/>
				<path class="s40" d="m372.7 348.8c0 0-1 2.5-4.1 3.5-3.1 1.1-7.6 2.5-7.7 3.7-0.1 1.2 16.8 0.6 17.9 0.5 1.2-0.1 2-4.2 0.5-8.6z"/>
				<path class="s40" d="m395.1 348.6c0 0 0.7 1.5-2.9 2.8-3.6 1.3-6.5 4.2-5.6 4.8 0.9 0.7 13.5 0.8 14.9 0.6 1.5-0.3 0.3-8-0.3-8.9z"/>
				<path fill-rule="evenodd" class="s41" d="m354.6 210.1h-1.6v-6.1h1.6z"/>
				<path class="s41" d="m349.1 199.3c0 3.2 1.9 5.8 4.3 5.8 2.3 0 4.3-2.6 4.3-5.8 0-3.2-2-5.8-4.3-5.8-2.4 0-4.3 2.6-4.3 5.8z"/>
				<path class="s42" d="m349.9 199.3c0 2.6 1.5 4.8 3.5 4.8 1.9 0 3.5-2.2 3.5-4.8 0-2.6-1.6-4.8-3.5-4.8-2 0-3.5 2.2-3.5 4.8z"/>
				<path class="s43" d="m350.8 210.6c0 0.5 1.4 3.9 1.5 4.7 0.2 0.7 0.3 10.6 0.3 10.6l3.2-0.5 1.9-0.3c0 0-1.3-10.9-1.3-11.9 0-1.1 1-2 0.5-3.8q0-0.1-0.1-0.2c-0.5-1.7-1.5-2.7-1.5-3.8 0-1.2-0.5-1.2-0.7-0.5-0.3 0.6 0.1 4.1 0.1 4.1 0 0-1.4-0.4-1.7-1-0.3-0.7-0.1-2.9-0.1-2.9 0 0-0.9-0.1-1.1 0.4-0.1 0.5-1 4.6-1 5.1z"/>
				<path class="s35" d="m355.8 225.4l1.9-0.3c0 0-1.3-10.9-1.3-11.9 0-1.1 1-2 0.5-3.8q0-0.1-0.1-0.2c0 0.8-0.2 1.8-0.8 2.6-1.2 1.3-0.5 1.8 0 5.5 0.4 3.3-0.1 7.2-0.2 8.1z"/>
				<path class="s44" d="m352.2 223.3c0 0 0.9 13.6 2 16.9 0.4 1.4 0.5 2.5 0.9 3.4 0.4 1 1.1 1.6 3.2 1.7 3.8 0.1 9-13.5 9-13.5 0 0 7.1 11.1 4.1 27.5l7.4 1 24.2 3.3c0 0 0.1-22.9-3.8-35.9-3.9-13-9.6-13.9-12.3-14.8-2.8-0.9-14.8 0.5-20.9 4.7-2.8 1.9-4.8 5.4-6 7.8-0.7 1.4-1 2.5-1 2.5l-0.6-2.8-0.5-2.7z"/>
				<path class="s45" d="m356.9 233l3.1-7.6c-0.7 1.4-1 2.5-1 2.5l-0.6-2.8z"/>
				<path class="s46" d="m355.1 243.6c0.4 1 1.1 1.6 3.2 1.7 3.8 0.1 9-13.5 9-13.5 0 0 7.1 11.1 4.1 27.5l7.4 1c-1.7-4.3-1.2-12.6-3-19.3-2.3-8.7-9.8-15.1-9.8-15.1 0.8 3.1-0.5 5.9-2.8 8.7-2.2 2.9-1.4 5.6-3.2 8.3-1.2 1.8-3.5 1.2-4.9 0.7z"/>
				<path fill-rule="evenodd" class="s47" d="m381.4 344.9h-10.2l0.5 4.3h8.9z"/>
				<path fill-rule="evenodd" class="s47" d="m403.4 344.9h-10.3l0.5 4.3h9z"/>
				<path class="s41" d="m371.8 201.5c0 0 0.9 8.3 5.5 8.2 4.5-0.1 6.3-0.4 5.3-4-1-3.7 2.1-9 1-13-1-4-4.3-2.5-4.3-2.5 0 0-0.1-3.5-2.6-4-2.4-0.5-4.5-0.3-8.6 1.3-4.2 1.5-6.8 1.5-6.8 1.5 0 0 1.6 0.8 2.9 0.8 0 0-2.4 0.4-3.8 0 0 0 2.6 4 9.1 4.2 0 0-0.7 3.6 1.4 6.2 0 0-0.3-3.8 1.2-3.5 1.4 0.3 2.7 5.3-0.3 4.8z"/>
			</g>
			<g>
				<path class="s48" d="m153.8 247h4.4l-2.2-6.8c0 0-3.1 1.7-2.2 6.8z"/>
				<path class="s49" d="m113.9 228.7c0 0-3.3 7.2 2.3 10.9 5.7 3.7 23.3 10.9 38.2 10.1v-8.4c0 0-7.1 1-17.7-2.9-10.5-4-22.8-9.7-22.8-9.7z"/>
				<path class="s50" d="m150.5 213.5q-0.1 0.1-0.2 0.2c-1.4 1-3.8-2.1-4.3-2.7q-0.1-0.1-0.1-0.1c0 0-2.4 3.5-3.2 6.3-0.7 2.9-9.5-3.4-9.5-3.4l12.5-19.3 10.3-1.1 2.2 1.9c0 0 0.1 12.7-7.7 18.2z"/>
				<path class="s51" d="m155 195.8c0 0 2.5 2.3 3 3.3 0 0-1.5-5.3-2.5-6-1-0.8-0.5 2.7-0.5 2.7z"/>
				<path class="s35" d="m150.5 213.5q-0.1 0.1-0.2 0.2c-1.4 1-3.8-2.1-4.3-2.7l-0.3-5.3h2.1c0 0-0.3 5.6 2.7 7.8z"/>
				<path class="s52" d="m144.3 233.6c0 0-3.9 21.8 3.2 44.5l-15.1-9.3 10-40.9z"/>
				<path class="s53" d="m169.5 341.4c-0.6 0.5-1.5 0.7-2.4 0.7-1.4 0.1-3-0.3-3.9-0.6-5.3-11.8-13-37.7-14.9-39.7-2.1-2.1-13.7-16.3-13.7-16.3l1.3-9.1 2-15.5c0 0 19.9 31.6 21.4 34.8 1.3 2.7 8 35.9 10.2 45.7z"/>
				<path class="s40" d="m187.5 352.4c-1.3 0.6-21.8 0.4-23-0.7-1.1-1-0.4-5.6-0.1-7.1 3 0.5 5.2 0.2 6.4-0.1 3 1.7 18 7.4 16.7 7.9z"/>
				<path class="s54" d="m170.8 344.5c-1.2 0.3-3.4 0.6-6.4 0.1q0.1-0.4 0.1-0.4-0.6-1.2-1.3-2.7c1.5 0.5 4.5 1.1 6.3-0.1 0.4 1.7 0.6 2.7 0.7 2.8q0.1 0.1 0.6 0.3z"/>
				<path class="s55" d="m167.1 342.1c-1.4 0.1-3-0.3-3.9-0.6-5.3-11.8-13-37.7-14.9-39.7-2.1-2.1-13.7-16.3-13.7-16.3l1.3-9.1c0 0.1 5.5 12.2 11.5 17.2 6 5 6.3 6.1 7.5 14.1 1.2 7.8 8 28.9 12.2 34.4z"/>
				<path class="s40" d="m114 352.4c-11.8 0-16 0.6-16.2-2.3-0.2-1.8 1.1-5.1 2.1-7.5 2.4 1 4.7 1.6 4.7 1.6l0.6-0.3q-0.2 0.3-0.2 0.3c0 0 13.4 5.3 15.4 5.9 2 0.6 5.4 2.3-6.4 2.3z"/>
				<path class="s56" d="m129.6 303.1c-0.6 3.2-17.9 30.6-23.1 38.8-1.1-0.1-2.2-0.4-3.1-0.7-0.9-0.3-1.8-0.7-2.4-1.1 0.1-0.4 8.6-26.2 16.2-36.8 0 0-5.5-17.2-6.1-23q-0.1-0.3 0-0.6c0.9-4.3 18.5 5.3 18.5 5.3 0 0 0.7 14.3 0 18.1z"/>
				<path class="s57" d="m106.5 341.9c-0.6 0.9-1 1.6-1.3 2l-0.6 0.3c0 0-2.3-0.6-4.7-1.6 0.6-1.4 1.1-2.5 1.1-2.5q0 0 0 0c1.3 0.8 3.1 1.6 5.5 1.8z"/>
				<path class="s58" d="m119.5 305.6c-3.5 3-4.6 11.1-8.2 17.5-3.6 6.2-7 10.7-7.9 18.1-0.9-0.3-1.8-0.7-2.4-1.1 0.1-0.4 8.6-26.2 16.2-36.8 0 0-5.5-17.2-6.1-23q-0.1-0.3 0-0.6l7.1 0.8c0 0 0.2 10.5 1.6 15.7 1.2 4.6 3.8 6-0.3 9.4z"/>
				<path fill-rule="evenodd" class="s32" d="m170.8 209.1l1.2 0.2-1.1 7.6-1.2-0.2z"/>
				<path fill-rule="evenodd" class="s41" d="m170.4 209l1.2 0.1-1.1 7.7-1.2-0.2z"/>
				<path class="s32" d="m176.2 203.8c-0.9 4.2-3.2 7.4-5.1 7q-0.2 0-0.4-0.1c-1.6-0.9-2.2-4.4-1.4-8.4 0.8-3.9 2.8-6.9 4.6-7q0.2 0 0.5 0c1.8 0.4 2.7 4.2 1.8 8.5z"/>
				<path class="s41" d="m175.3 203.6c-0.8 3.9-2.8 6.9-4.6 7.1-1.6-0.9-2.2-4.4-1.4-8.4 0.8-3.9 2.8-6.9 4.6-7 1.6 0.8 2.2 4.3 1.4 8.3z"/>
				<path class="s59" d="m173.7 216.1c-0.1 0.8-1.3-0.5-1.3-0.5 0 0 0 1.7-0.3 3.2q0 0 0 0c-0.1 0.9-0.4 1.9-0.8 2.2-0.9 1-2 1.5-2 1.5l-0.7 5.4-0.1 0.8-1.3-1.9-2.3-3.3c0 0 3.5-10.2 3.6-10.8 0.1-0.6 2.6-0.9 3.5-0.4 0.8 0.5 1.8 3.1 1.7 3.8z"/>
				<path class="s35" d="m172.1 218.8c-0.1 0.9-0.4 1.9-0.8 2.2-0.9 1-2 1.5-2 1.5l-0.7 5.4-1.4-1.1 1.3-4.3h-1.3c0 0 4-1.8 4.9-3.7z"/>
				<path class="s60" d="m174.7 203.5c-0.8 3.7-2.5 6.4-3.8 6.1-1.4-0.3-1.9-3.4-1.1-7.1 0.7-3.7 2.5-6.4 3.8-6.1 1.4 0.3 1.9 3.5 1.1 7.1z"/>
				<path class="s61" d="m146.2 218.8l-0.8 12.8c0 0-4.5 5.9-4.9 22.8-0.3 17-0.6 31.5-2.1 33.7-2.7 4-32.2-5-31.5-10 0.2-1.3 4-19.3 7-33.6 2-9.6 3.7-17.4 3.7-17.4 0 0 3.8-13.4 14.9-14.2 3.4-0.2 6 0.3 7.9 1 4.6 1.7 5.8 4.9 5.8 4.9z"/>
				<path class="s62" d="m123.3 263.9c0 0 4.9 1.8 10.3 1.7 0 0-0.8 12.8-2.2 13.6-1.3 0.9-8.7 0-9.8-2.5-1.1-2.6 1.7-12.8 1.7-12.8z"/>
				<path class="s63" d="m140.4 213.9c0 0-2.7 1.4-3.4 12.2-0.7 9.3-10.9 22.4-23.1 18.4 2-9.6 3.7-17.4 3.7-17.4 0 0 3.8-13.4 14.9-14.2 3.4-0.2 6 0.3 7.9 1z"/>
				<path class="s41" d="m158 199.1c0 0 2.8-4.2 1.7-7.8-0.6-2-3-1.8-3-1.8 0 0-3.4-8.4-12.9-3.6-6.8 3.6-3.6 9.4-17.1 16.5-13.6 7.1-13.3 7.3-15.6 14-2.4 6.6 2.8 17.5 11.1 17.2 8.4-0.4 10-7 12.1-14 2.1-7 4.3-8.6 7.6-9.2 3.3-0.7 4.9-2.2 5.9-4.9 0 0-2.4-1.6-1.6-3.7 0.7-2.1 3.7-3 3.2 1.2 0 0 5.4-2.3 6.7-8.1 0 0 1.4 1.8 1.9 4.2z"/>
				<path class="s64" d="m170.9 228.8c0 0-5.7 16.3-6.6 17.7q0 0.1-0.1 0.2c-1.1 1.2-5 2-6.7 0.7-1.9-1.3-20.5-17.8-21.4-19.4-0.6-1.2-1.7-5.1-0.8-8.2 0.3-1 0.8-2 1.5-2.7 3.2-2.9 6.1-1.9 7.4-0.7 1.1 1 10.3 13.1 13.4 17.2 0.6 0.8 1 1.3 1 1.3l0.9-2 4.8-9.9z"/>
				<path fill-rule="evenodd" class="s21" d="m162.3 239.6l-3.7-4.7 0.9-2z"/>
				<path class="s65" d="m164.2 246.7c-1.1 1.2-5 2-6.7 0.7-1.9-1.3-20.5-17.8-21.4-19.4-0.6-1.2-1.7-5.1-0.8-8.2 0.5 2.5 2 6.5 6 9.1 6 3.9 7.8 5 11 10.3 3 5 6.4 8.2 11.9 7.5z"/>
			</g>
			<g>
				<path class="s41" d="m220.4 241.5c0 0 9-0.5 10.5-5.4 1.5-4.8-1.1-8.3-2.3-14.8-1.3-6.5-3.4-9.7-6.1-7.3 0 0-4-4.9-7.9-0.8-3.8 4.1-3.8 9.4-8.7 16.5-3.3 4.7 0.6 11.3 9.7 11.1z"/>
				<path class="s66" d="m255.9 234.6c-2 0.4-0.2 4.5-0.7 5.3-0.4 0.6-4.2 0.2-5.5 0q0 0 0 0-0.5 0-0.5 0c0 0-1.5 18-2.9 21.8l-0.8-0.4-5.4-2.9c0 0 3.1-8.7 4.6-13.9 1.5-5.3 3.5-10.9 5.3-10.9 1.7 0 11-0.7 12.4-1.1 1.4-0.4-4.5 1.8-6.5 2.1z"/>
				<path class="s35" d="m249.7 239.9q-0.5 0-0.5 0c0 0-1.5 18-2.9 21.8l-0.8-0.4-1.6-1.5c0 0 1.8 0.5 2.8-8.9 1-9.6 1.5-11.3 2.9-11q0 0 0.1 0z"/>
				<path class="s67" d="m246.7 260.4c0 0-3.3 10.4-4.9 11.1-1.7 0.6-11.4-7.6-11.4-7.6l-5.8-21.4c4 0 6.9 4.3 9.9 9.3 1.3 2 2.6 4.5 3.5 6.2v0.1q0.1 0 0.1 0.1c0.7 1.3 1.2 2.2 1.2 2.2v-0.1l0.7-1.5 0.6-1.5z"/>
				<path fill-rule="evenodd" class="s68" d="m241.3 263.9l-2-3.6 0.7-1.5z"/>
				<path class="s40" d="m200.8 379.7l1.1 13.4h1.2v-7.6c0 0 1 6.5 3.3 7.5 2.4 1 7.7 1.2 8.5-0.1 0.7-1.4-8.1-5.6-9.5-12 0 0-2.5 1.1-4.6-1.2z"/>
				<path class="s69" d="m202.7 382.8c0 0 1.3 0.2 2.5-0.4 0 0 1.6 4.9 5.3 7.2 2.3 1.5-5 4.3-7.8-6.8z"/>
				<path class="s40" d="m226.9 379.7l1.2 13.4h1.1v-7.6c0 0 1 6.5 3.3 7.5 2.4 1 7.8 1.2 8.5-0.1 0.7-1.4-8.2-6.2-9.6-12.6 0 0-2.4 1.7-4.5-0.6z"/>
				<path class="s69" d="m228.8 382.8c0 0 1.3 0.2 2.5-0.4 0 0 1.6 4.9 5.3 7.2 2.4 1.5-4.9 4.3-7.8-6.8z"/>
				<path class="s70" d="m217.7 315.7q0 0 0 0.1 0 0 0 0.1c0 0.4-0.2-0.4-1.3 5.7-0.2 1.2-0.6 2.8-1 4.7-0.9 3.9-2.2 8.8-3.1 12.3-4.3 15.2-6.9 42.7-6.9 42.7-3.5 1.5-4.5-0.2-4.5-0.2-1.7-13.9 2.4-42.8 3.2-47.2 0.2-1.6 0.3-4.5 0.3-7.6 0-2.6-0.1-5.3-0.2-7.3-0.1-1.9-0.2-3.2-0.2-3.2z"/>
				<path class="s71" d="m240.3 323.1c-0.1 5.6-1.2 13.4-3.7 25.7-3.9 20.1-5.2 31.9-5.2 31.9-2.3 2.3-4.5-0.1-4.5-0.1-2.2-19.8 3.9-40 2.8-45.9-0.4-2.3-1-5.5-1.4-8.4q0 0 0 0c-0.4-2.5-0.7-6.3-1-9.2-0.2-2.6-0.4-4.5-0.4-4.5 0 0 2.7 3.4 6.5 2.8 3.2-0.5 6.3-0.3 6.6 2.3q0.2 1.1 0.2 2.4 0.1 1.3 0.1 3z"/>
				<path class="s35" d="m217.7 315.8q0 0 0 0.1c0 0.4-0.2-0.4-1.3 5.7-0.2 1.2-0.6 2.8-1 4.7h-11c0-2.6-0.1-5.3-0.2-7.3z"/>
				<path class="s35" d="m240.3 323.1l-12 3.2q0 0 0 0c-0.4-2.5-0.7-6.3-1-9.2 1.5-0.6 3.9-1.3 6.1-1.7l6.8 4.7q0.1 1.3 0.1 3z"/>
				<path class="s72" d="m241.3 320.7c-22.1 6.9-38.5 1.8-38.5 1.8 1.4-6.5 2-11.9 2.3-16.7 0.5-9.2 0-16.4 2.3-25.2l25-2.6h0.4q0.1 0.1 0.1 0.1c1 2.6 2 5.3 2.8 8 4.8 16.3 5.6 34.6 5.6 34.6z"/>
				<path class="s73" d="m235.7 286.1c-2.6 2.4-8 4.9-19.3 10-5.6 2.5-9.1 6-11.3 9.7 0.5-9.2 0-16.4 2.3-25.2l25-2.6q0.3 0.1 0.5 0.1c1 2.6 2 5.3 2.8 8z"/>
				<path class="s74" d="m231.4 265c-1 5.6 1.8 14.2 1.8 14.2-6.2 4.9-14.2 4.8-19.6 3.9-3.7-0.6-6.2-1.6-6.2-1.6 0.6-14-3.8-20.1-3.8-20.1l-2.2 2.9-0.7 0.9 3.5 3.1-3.5 6.6c0 0-8.2-4.7-9.1-5.7-0.9-1-0.7-1.9 0-4.3 0.8-2.5 11.6-20.3 13.9-21.4 2.4-1.2 4.8-1 4.8-1 8.2 4.4 13.3 0.2 13.3 0.2 1.9-0.1 2.7-0.1 3.7 0.9 1 1 4.9 6.2 5.9 9.2 0.4 1.2 0.3 2.6 0 4.1-0.2 1.6-0.8 3.5-1.3 5.7q-0.2 1.1-0.5 2.4z"/>
				<path class="s75" d="m207.4 281.5c0.6-14-3.8-20.1-3.8-20.1l-2.2 2.9-3.3 3.7 8.1-13.7c0 0 4.7 9.7 5.1 17.7 0.3 6.2 0.3 8.9 2.3 11.1-3.7-0.6-6.2-1.6-6.2-1.6z"/>
				<path class="s76" d="m233.2 256.9c-0.2 1.6-0.8 3.5-1.3 5.7-1.4 0.8-3.2 1.2-5.1 0.4-3.1-1.4-5.6 0-8.9 0.7-3.4 0.8-7.1-3.6-7.1-3.6 0 0 4.9 2.6 7.1 1.5 2.1-1.1 3.8-2 8.9-1.1 3.3 0.6 5.4-1.8 6.4-3.6z"/>
				<path fill-rule="evenodd" class="s77" d="m238.1 258.2l-0.1 0.2"/>
				<path class="s78" d="m218.4 283.5c-0.2 1.9-2.5 4-3.8 4.1q-0.1 0-0.2 0c-1.2-0.1-2.9-1.8-4.7-2-2-0.1-0.7-1.6 1.1-1.6q0.6 0 1.1-0.1 0 0 0 0 0.2 0 0.3-0.1 0 0 0 0 0 0 0 0c1-0.3 1.7-0.7 1.7-0.7l-0.3-0.2-12.9-8 1.1-2 2.4-4.6c0 0 7.4 7.5 9.3 9.1 1.9 1.6 5 4.3 4.9 6.1z"/>
				<path class="s79" d="m214.4 287.6c-1.2-0.1-2.9-1.8-4.7-2-2-0.1-0.7-1.6 1.1-1.6q0.6 0 1.1-0.1c-0.6 0.2-1.5 0.6 0.7 1.5 1.6 0.6 1.9 1.5 1.8 2.2z"/>
				<path fill-rule="evenodd" class="s35" d="m213.6 282.9l-12.9-8 1.1-2 13.7 10.1z"/>
				<path class="s80" d="m225.4 242.7c0 0 0.3 5.9-5 6.6q-0.7 0.1-1.6 0.1c-7-0.4-10-6.9-10-6.9 0 0 1 0.1 2.2 0.1 1.3 0 2.9-0.1 3.1-0.5 0.5-0.8 0.3-10.8 0.3-10.8 0 0-0.9 0.7-1.3-0.3-0.5-1.3-1.6-4.9 0.2-4.9 1.9 0 2 2.9 2 2.9 0 0 4.6-3.7 6.3-8.1 0.4-1 0.6-2 0.7-3 0 0 1 5 4.5 6.6q0 0 0 0.2c0 1.6 0.2 9.8-2.4 12.4-0.5 0.5-1.1 0.7-1.6 0.7q0 0 0 0c-0.8 0.1-1.4-0.1-1.4-0.1 0 0 0 1 0.2 2.2 0.1 1.3 0.4 2.7 0.9 2.8 1 0.1 2.9 0 2.9 0z"/>
				<path class="s35" d="m221.4 237.7c0 0 0 1 0.2 2.2-3.3-1.3-5.4-5.3-5.4-5.3 3.1 2.6 5.2 3.2 6.6 3.2-0.8 0.1-1.4-0.1-1.4-0.1z"/>
				<path class="s35" d="m226.8 224.7c-2.2-0.4-4.1-2.4-5.2-3.8 0.4-1 0.6-2 0.7-3 0 0 1 5 4.5 6.6q0 0 0 0.2z"/>
				<path class="s35" d="m220.4 249.3q-0.7 0.1-1.6 0.1c-7-0.4-10-6.9-10-6.9 0 0 1 0.1 2.2 0.1 0.9 1.7 3.9 6.6 9.4 6.7z"/>
			</g>
			<g>
				<path class="s81" d="m289.3 403c0 0-9.2-4.4-8.5-8.3 0.6-3.8 3.9-1.7 8.5 1.1 4.7 2.9 3.7-2.2 4-7.9 0.3-5.7 2.3-8.4 5.3-8 3 0.5 0.8 9.4 4.1 9.1 3.4-0.3 2.9 2.7 2.7 6.4-0.1 3.6 2.3 2.7 3.7 0.5 1.4-2.3 8.3-4.3 2.5 7.1 0 0-22.3 0-22.3 0z"/>
				<path class="s82" d="m345 349.4c0 0 7.3-3.6 6.8-6.6-0.5-3-3.1-1.4-6.8 0.9-3.7 2.3-2.9-1.8-3.2-6.3-0.2-4.6-1.8-6.7-4.2-6.4-2.4 0.4-0.6 7.5-3.2 7.2-2.7-0.2-2.3 2.2-2.2 5.1 0.1 2.9-1.8 2.2-2.9 0.4-1.1-1.8-6.6-3.4-2 5.7z"/>
				<path class="s83" d="m135.5 352.8c0 0-6.5-3.2-6-5.9 0.4-2.7 2.8-1.2 6 0.8 3.3 2 2.6-1.5 2.8-5.6 0.3-4 1.6-5.9 3.7-5.6 2.2 0.3 0.6 6.6 3 6.4 2.3-0.2 2 1.9 1.9 4.5-0.1 2.6 1.6 1.9 2.6 0.3 1-1.6 5.8-3 1.8 5.1 0 0-15.8 0-15.8 0z"/>
				<path class="s84" d="m343.1 403c0 0 2.9-2.5 2.6-4.6-0.3-2.2-2.3-1-4.1 0.7-1.7 1.7-2.3-2.9-2.3-5.9 0-4.1-2.6-6.1-3.3-2.5-0.7 3.2-1.6 12.3-1.6 12.3 0 0 8.7 0 8.7 0z"/>
			</g>
			<path class="s85" d=""/>
		</g>
	</g>
</svg>