<svg version="1.2" xmlns="http://www.w3.org/2000/svg" viewBox="0 0 750 500" width="750" height="500">
	<title>viagem-cachorro</title>
	<defs>
		<linearGradient id="g1" x2="1" gradientUnits="userSpaceOnUse" gradientTransform="matrix(347.337,243.236,-221.969,316.968,186.4,162.849)">
			<stop offset="0" stop-color="#8ab9fd"/>
			<stop offset="1" stop-color="#0056e9"/>
		</linearGradient>
		<linearGradient id="g2" x2="1" gradientUnits="userSpaceOnUse" gradientTransform="matrix(-7.706,-54.295,59.591,-8.458,642.772,465.712)">
			<stop offset="0" stop-color="#53b0b1"/>
			<stop offset="1" stop-color="#6acad8"/>
		</linearGradient>
		<linearGradient id="g3" x2="1" gradientUnits="userSpaceOnUse" gradientTransform="matrix(0,-82.475,131.204,0,185.381,453.228)">
			<stop offset="0" stop-color="#53b0b1"/>
			<stop offset="1" stop-color="#6acad8"/>
		</linearGradient>
		<linearGradient id="g4" x2="1" gradientUnits="userSpaceOnUse" gradientTransform="matrix(0,103.83,-72.388,0,219.581,315.88)">
			<stop offset="0" stop-color="#e4816f"/>
			<stop offset="1" stop-color="#e25e52"/>
		</linearGradient>
		<linearGradient id="g5" x2="1" gradientUnits="userSpaceOnUse" gradientTransform="matrix(0,79.832,-58.478,0,210.32,345.636)">
			<stop offset="0" stop-color="#e4816f"/>
			<stop offset="1" stop-color="#e25e52"/>
		</linearGradient>
		<linearGradient id="g6" x2="1" gradientUnits="userSpaceOnUse" gradientTransform="matrix(31.517,38.81,-34.272,27.832,227.654,282.851)">
			<stop offset="0" stop-color="#8ab9fd"/>
			<stop offset="1" stop-color="#0056e9"/>
		</linearGradient>
		<linearGradient id="g7" x2="1" gradientUnits="userSpaceOnUse" gradientTransform="matrix(31.565,38.87,-23.545,19.121,246.98,267.031)">
			<stop offset="0" stop-color="#8ab9fd"/>
			<stop offset="1" stop-color="#0056e9"/>
		</linearGradient>
		<linearGradient id="g8" x2="1" gradientUnits="userSpaceOnUse" gradientTransform="matrix(-4.552,-32.067,11.497,-1.632,515.865,146.146)">
			<stop offset="0" stop-color="#53b0b1"/>
			<stop offset="1" stop-color="#6acad8"/>
		</linearGradient>
		<linearGradient id="g9" x2="1" gradientUnits="userSpaceOnUse" gradientTransform="matrix(6,-36.204,10.954,1.815,646.616,204.586)">
			<stop offset="0" stop-color="#53b0b1"/>
			<stop offset="1" stop-color="#6acad8"/>
		</linearGradient>
		<linearGradient id="g10" x2="1" gradientUnits="userSpaceOnUse" gradientTransform="matrix(-12.602,-88.784,310.812,-44.115,238.423,144.828)">
			<stop offset="0" stop-color="#53b0b1"/>
			<stop offset="1" stop-color="#6acad8"/>
		</linearGradient>
		<linearGradient id="g11" x2="1" gradientUnits="userSpaceOnUse" gradientTransform="matrix(21.158,-84.896,20.846,5.195,560.289,446.455)">
			<stop offset="0" stop-color="#e6832c"/>
			<stop offset="1" stop-color="#e9a347"/>
		</linearGradient>
		<linearGradient id="g12" x2="1" gradientUnits="userSpaceOnUse" gradientTransform="matrix(113.018,0,0,160.237,444.511,374.889)">
			<stop offset="0" stop-color="#e6832c"/>
			<stop offset="1" stop-color="#e9a347"/>
		</linearGradient>
		<linearGradient id="g13" x2="1" gradientUnits="userSpaceOnUse" gradientTransform="matrix(6.686,0,0,36.882,486.869,405.143)">
			<stop offset="0" stop-color="#e6832c"/>
			<stop offset="1" stop-color="#e9a347"/>
		</linearGradient>
		<linearGradient id="g14" x2="1" gradientUnits="userSpaceOnUse" gradientTransform="matrix(36.04,0,0,17.7,496.049,419.413)">
			<stop offset="0" stop-color="#e6832c"/>
			<stop offset="1" stop-color="#e9a347"/>
		</linearGradient>
		<linearGradient id="g15" x2="1" gradientUnits="userSpaceOnUse" gradientTransform="matrix(3.042,0,0,17.25,467.769,404.918)">
			<stop offset="0" stop-color="#e6832c"/>
			<stop offset="1" stop-color="#e9a347"/>
		</linearGradient>
		<linearGradient id="g16" x2="1" gradientUnits="userSpaceOnUse" gradientTransform="matrix(23.396,0,0,39.823,478.293,337.574)">
			<stop offset="0" stop-color="#e6832c"/>
			<stop offset="1" stop-color="#e9a347"/>
		</linearGradient>
		<linearGradient id="g17" x2="1" gradientUnits="userSpaceOnUse" gradientTransform="matrix(26.232,-82.263,39.543,12.61,414.831,221.981)">
			<stop offset="0" stop-color="#914713"/>
			<stop offset="1" stop-color="#af6145"/>
		</linearGradient>
		<linearGradient id="g18" x2="1" gradientUnits="userSpaceOnUse" gradientTransform="matrix(-53.229,-79.206,90.284,-60.673,304.831,211.286)">
			<stop offset="0" stop-color="#914713"/>
			<stop offset="1" stop-color="#af6145"/>
		</linearGradient>
		<linearGradient id="g19" x2="1" gradientUnits="userSpaceOnUse" gradientTransform="matrix(-10.697,121.484,-151.881,-13.373,352.162,94.933)">
			<stop offset="0" stop-color="#8ab9fd"/>
			<stop offset="1" stop-color="#0056e9"/>
		</linearGradient>
		<linearGradient id="g20" x2="1" gradientUnits="userSpaceOnUse" gradientTransform="matrix(95.064,52.58,-43.552,78.743,341.095,343.628)">
			<stop offset="0" stop-color="#914713"/>
			<stop offset="1" stop-color="#af6145"/>
		</linearGradient>
		<linearGradient id="g21" x2="1" gradientUnits="userSpaceOnUse" gradientTransform="matrix(74.635,41.28,-57.578,104.101,284.385,356.195)">
			<stop offset="0" stop-color="#914713"/>
			<stop offset="1" stop-color="#af6145"/>
		</linearGradient>
		<linearGradient id="g22" x2="1" gradientUnits="userSpaceOnUse" gradientTransform="matrix(-11.843,97.034,-92.671,-11.31,365.842,268.098)">
			<stop offset="0" stop-color="#e6832c"/>
			<stop offset="1" stop-color="#e9a347"/>
		</linearGradient>
		<linearGradient id="g23" x2="1" gradientUnits="userSpaceOnUse" gradientTransform="matrix(26.232,-82.263,20.444,6.519,412.88,221.359)">
			<stop offset="0" stop-color="#914713"/>
			<stop offset="1" stop-color="#af6145"/>
		</linearGradient>
		<linearGradient id="g24" x2="1" gradientUnits="userSpaceOnUse" gradientTransform="matrix(-55.593,-82.724,33.163,-22.287,304.149,211.148)">
			<stop offset="0" stop-color="#914713"/>
			<stop offset="1" stop-color="#af6145"/>
		</linearGradient>
		<linearGradient id="g25" x2="1" gradientUnits="userSpaceOnUse" gradientTransform="matrix(-8.756,-48.515,34.973,-6.312,372.238,188.605)">
			<stop offset="0" stop-color="#914713"/>
			<stop offset="1" stop-color="#af6145"/>
		</linearGradient>
		<linearGradient id="g26" x2="1" gradientUnits="userSpaceOnUse" gradientTransform="matrix(19.604,98.019,-106.442,21.288,354.299,169.697)">
			<stop offset="0" stop-color="#875fa7"/>
			<stop offset="1" stop-color="#582792"/>
		</linearGradient>
		<linearGradient id="g27" x2="1" gradientUnits="userSpaceOnUse" gradientTransform="matrix(-49.457,0,0,-26.001,349.797,442.505)">
			<stop offset="0" stop-color="#e6832c"/>
			<stop offset="1" stop-color="#e9a347"/>
		</linearGradient>
		<linearGradient id="g28" x2="1" gradientUnits="userSpaceOnUse" gradientTransform="matrix(15.39,-36.112,31.741,13.527,408.256,458.374)">
			<stop offset="0" stop-color="#e6832c"/>
			<stop offset="1" stop-color="#e9a347"/>
		</linearGradient>
		<linearGradient id="g29" x2="1" gradientUnits="userSpaceOnUse" gradientTransform="matrix(-50.777,-75.558,60.024,-40.338,302.248,208.045)">
			<stop offset="0" stop-color="#914713"/>
			<stop offset="1" stop-color="#af6145"/>
		</linearGradient>
		<linearGradient id="g30" x2="1" gradientUnits="userSpaceOnUse" gradientTransform="matrix(-13.74,94.46,-75.569,-10.992,380.234,193.869)">
			<stop offset="0" stop-color="#e4816f"/>
			<stop offset="1" stop-color="#e25e52"/>
		</linearGradient>
		<linearGradient id="g31" x2="1" gradientUnits="userSpaceOnUse" gradientTransform="matrix(-12.082,83.06,-59.236,-8.616,388.186,196.084)">
			<stop offset="0" stop-color="#e4816f"/>
			<stop offset="1" stop-color="#e25e52"/>
		</linearGradient>
		<linearGradient id="g32" x2="1" gradientUnits="userSpaceOnUse" gradientTransform="matrix(9,12,-11.249,8.437,456.296,184.799)">
			<stop offset="0" stop-color="#8ab9fd"/>
			<stop offset="1" stop-color="#0056e9"/>
		</linearGradient>
		<linearGradient id="g33" x2="1" gradientUnits="userSpaceOnUse" gradientTransform="matrix(17.107,17.107,-15.327,15.327,135.739,285.852)">
			<stop offset="0" stop-color="#e4816f"/>
			<stop offset="1" stop-color="#e25e52"/>
		</linearGradient>
		<linearGradient id="g34" x2="1" gradientUnits="userSpaceOnUse" gradientTransform="matrix(18.192,19.723,-19.724,18.192,493.381,73.277)">
			<stop offset="0" stop-color="#e4816f"/>
			<stop offset="1" stop-color="#e25e52"/>
		</linearGradient>
		<linearGradient id="g35" x2="1" gradientUnits="userSpaceOnUse" gradientTransform="matrix(8.372,9.077,-9.076,8.371,186.878,150.278)">
			<stop offset="0" stop-color="#e4816f"/>
			<stop offset="1" stop-color="#e25e52"/>
		</linearGradient>
		<linearGradient id="g36" x2="1" gradientUnits="userSpaceOnUse" gradientTransform="matrix(9.88,9.88,-9.88,9.88,293.801,254.555)">
			<stop offset="0" stop-color="#8ab9fd"/>
			<stop offset="1" stop-color="#0056e9"/>
		</linearGradient>
		<linearGradient id="g37" x2="1" gradientUnits="userSpaceOnUse" gradientTransform="matrix(-15.818,-15.818,15.819,-15.819,623.999,383.427)">
			<stop offset="0" stop-color="#e6832c"/>
			<stop offset="1" stop-color="#e9a347"/>
		</linearGradient>
		<linearGradient id="g38" x2="1" gradientUnits="userSpaceOnUse" gradientTransform="matrix(17.001,18.432,-18.432,17.001,277.435,399.117)">
			<stop offset="0" stop-color="#e4816f"/>
			<stop offset="1" stop-color="#e25e52"/>
		</linearGradient>
		<linearGradient id="g39" x2="1" gradientUnits="userSpaceOnUse" gradientTransform="matrix(7.45,7.451,-7.451,7.45,663.443,261.382)">
			<stop offset="0" stop-color="#e4816f"/>
			<stop offset="1" stop-color="#e25e52"/>
		</linearGradient>
		<linearGradient id="g40" x2="1" gradientUnits="userSpaceOnUse" gradientTransform="matrix(4.056,4.056,-4.056,4.056,521.838,291.476)">
			<stop offset="0" stop-color="#e4816f"/>
			<stop offset="1" stop-color="#e25e52"/>
		</linearGradient>
		<linearGradient id="g41" x2="1" gradientUnits="userSpaceOnUse" gradientTransform="matrix(16.997,0,0,16.997,612.297,233.512)">
			<stop offset="0" stop-color="#8ab9fd"/>
			<stop offset="1" stop-color="#0056e9"/>
		</linearGradient>
		<linearGradient id="g42" x2="1" gradientUnits="userSpaceOnUse" gradientTransform="matrix(7.729,7.729,-7.729,7.729,604.178,207.616)">
			<stop offset="0" stop-color="#8ab9fd"/>
			<stop offset="1" stop-color="#0056e9"/>
		</linearGradient>
	</defs>
	<style>
		tspan { white-space:pre } 
		.s0 { opacity: .1;fill: url(#g1) } 
		.s1 { fill: none;stroke: #ffffff;stroke-linecap: round;stroke-linejoin: round } 
		.s2 { fill: url(#g2) } 
		.s3 { fill: url(#g3) } 
		.s4 { fill: #000000 } 
		.s5 { fill: url(#g4) } 
		.s6 { opacity: .5;fill: url(#g5) } 
		.s7 { fill: none;stroke: #000000;stroke-miterlimit:10;stroke-width: .5 } 
		.s8 { fill: url(#g6) } 
		.s9 { fill: url(#g7) } 
		.s10 { fill: none;stroke: #000000;stroke-linecap: round;stroke-miterlimit:10;stroke-width: .5 } 
		.s11 { fill: url(#g8) } 
		.s12 { fill: url(#g9) } 
		.s13 { fill: url(#g10) } 
		.s14 { fill: url(#g11) } 
		.s15 { fill: url(#g12) } 
		.s16 { fill: url(#g13) } 
		.s17 { fill: url(#g14) } 
		.s18 { fill: url(#g15) } 
		.s19 { fill: url(#g16) } 
		.s20 { fill: none;stroke: #000000;stroke-miterlimit:10 } 
		.s21 { fill: none;stroke: #000000;stroke-linecap: round;stroke-linejoin: round } 
		.s22 { fill: url(#g17) } 
		.s23 { fill: url(#g18) } 
		.s24 { fill: #ffffff;stroke: #000000;stroke-miterlimit:10;stroke-width: .5 } 
		.s25 { opacity: .3;fill: url(#g19) } 
		.s26 { fill: url(#g20) } 
		.s27 { fill: url(#g21) } 
		.s28 { fill: url(#g22) } 
		.s29 { fill: url(#g23) } 
		.s30 { fill: url(#g24) } 
		.s31 { fill: url(#g25) } 
		.s32 { fill: url(#g26) } 
		.s33 { fill: url(#g27) } 
		.s34 { fill: url(#g28) } 
		.s35 { fill: none;stroke: #000000;stroke-linecap: round;stroke-linejoin: round;stroke-width: .5 } 
		.s36 { fill: url(#g29) } 
		.s37 { fill: none;stroke: #ffffff;stroke-linecap: round;stroke-linejoin: round;stroke-width: .5 } 
		.s38 { fill: url(#g30) } 
		.s39 { opacity: .6;fill: url(#g31) } 
		.s40 { fill: #ffffff } 
		.s41 { fill: none;stroke: #000000;stroke-linecap: round;stroke-miterlimit:10 } 
		.s42 { fill: url(#g32) } 
		.s43 { fill: url(#g33) } 
		.s44 { fill: url(#g34) } 
		.s45 { fill: url(#g35) } 
		.s46 { fill: url(#g36) } 
		.s47 { fill: url(#g37) } 
		.s48 { fill: url(#g38) } 
		.s49 { fill: url(#g39) } 
		.s50 { fill: url(#g40) } 
		.s51 { opacity: .1;fill: url(#g41) } 
		.s52 { opacity: .1;fill: url(#g42) } 
		.t53 { font-size: 18px;fill: #ffffff;font-weight: bold;font-family: "' Montserrat" } 
		.t54 { font-size: 20px;fill: #ffffff;font-weight: bold;font-family: "' Montserrat" } 
	</style>
	<g id="BACKGROUND">
		<g>
			<path class="s0" d="m612.9 278.1c0-62.2-50.6-100.7-113.7-117.4-51.3-13.5-64.7-28.9-117.4-39.4-83.1-16.7-152.6 15.7-193 62.4-60 69.4-54.1 192.9 21.3 232.4 21 11 63.8 22.8 110.2 14.1 38.3-7.2 49-24.7 76.8-26.6 26.9-1.8 53.5 10.9 80.5 11.5 88.7 1.7 135.3-79.1 135.3-137z"/>
		</g>
	</g>
	<g id="OBJECTS">
		<g>
			<path fill-rule="evenodd" class="s1" d="m565.5 256.3l-18.9 18.8v66.9h-16.6v-129.4h-53.9v75.7h-14.3v-13.2h-34.2v59.9h-20.5"/>
			<path fill-rule="evenodd" class="s1" d="m476.1 222h29.9v4.1h-29.9"/>
			<path fill-rule="evenodd" class="s1" d="m476.1 233.4h29.9v4.2h-29.9"/>
			<path fill-rule="evenodd" class="s1" d="m476.1 244.9h29.9v4.2h-29.9"/>
			<path fill-rule="evenodd" class="s1" d="m476.1 256.4h29.9v4.1h-29.9"/>
			<path fill-rule="evenodd" class="s1" d="m476.1 267.8h29.9v4.2h-29.9"/>
			<path fill-rule="evenodd" class="s1" d="m431.7 275.1l3.8-4.4h18.5l3.7 4.3"/>
			<path fill-rule="evenodd" class="s1" d="m441.6 270.7v-9.1h6.2v9.1"/>
			<path fill-rule="evenodd" class="s1" d="m307.2 306.4h-17.2v-26.9h-52.4v-73.7h-49v39.1l-19.2 19.2"/>
			<path fill-rule="evenodd" class="s1" d="m198.3 214.9h39.3v5.1h-39.3z"/>
			<path fill-rule="evenodd" class="s1" d="m198.3 234.1h39.3v5.1h-39.3z"/>
			<path fill-rule="evenodd" class="s1" d="m198.3 253.3h39.3v5.1h-39.3z"/>
			<path fill-rule="evenodd" class="s1" d="m198.3 272.5h39.3v5.1h-39.3z"/>
		</g>
		<g>
			<path class="s2" d="m612.9 455.5c0 0 4.2-45.5 18.4-46.5 8-0.6 7 16.9-1.2 30.6 0 0 18.2-27.1 27.2-20.3 10.4 7.9-17.8 26.1-17.8 26.1 0 0 24.9-14.6 27.7-6.9 3 8.2-19.4 12-19.4 12 0 0 17.3-2.8 20.5 5z"/>
			<path class="s3" d="m260.4 455.5c0 0-40.4-98-63-94.2-23 3.8 16.5 69.3 16.5 69.3 0 0-57.3-70.9-70.2-57.2-11.4 11.9 30.7 48.3 30.7 48.3 0 0-51.8-24-57.5-10.1-6.5 15.9 57.9 32 57.9 32 0 0-40.2-6.9-53-3.3-12.8 3.6-11.4 15.2-11.4 15.2z"/>
		</g>
		<g>
			<g>
				<g>
					<g>
						<path fill-rule="evenodd" class="s4" d="m194.1 306.4h84v138.2h-84z"/>
						<path fill-rule="evenodd" class="s5" d="m267.8 306.4l-22.8 31.9 4.3 106.3h-73.6l-4.3-106.3 22.8-31.9z"/>
						<path fill-rule="evenodd" class="s4" d="m189.1 444.6h11.1v10.9h-11.1z"/>
						<path fill-rule="evenodd" class="s4" d="m256.6 444.6h11.2v10.9h-11.2z"/>
					</g>
					<g>
						<path fill-rule="evenodd" class="s4" d="m212.4 226h3.9v80.4h-3.9z"/>
						<path fill-rule="evenodd" class="s4" d="m210.3 303.7h8.1v2.7h-8.1z"/>
						<path fill-rule="evenodd" class="s4" d="m249.9 226h3.9v80.4h-3.9z"/>
						<path fill-rule="evenodd" class="s4" d="m247.8 303.7h8.1v2.7h-8.1z"/>
					</g>
					<path fill-rule="evenodd" class="s4" d="m207 223.6h52.2v7.1h-52.2z"/>
					<path fill-rule="evenodd" class="s6" d="m171.4 338.3h73.6l4.3 106.3h-73.6z"/>
					<g>
						<path fill-rule="evenodd" class="s7" d="m192.2 437.5l-3.8-92h-7.9l3.8 92z"/>
						<path fill-rule="evenodd" class="s7" d="m208.1 437.5l-3.7-92h-7.9l3.7 92z"/>
						<path fill-rule="evenodd" class="s7" d="m224.1 437.5l-3.7-92h-7.9l3.7 92z"/>
						<path fill-rule="evenodd" class="s7" d="m240.1 437.5l-3.7-92h-7.9l3.7 92z"/>
					</g>
				</g>
				<g>
					<path class="s8" d="m249.9 273.2c0 0-18.4 1.9-24.7 18.6-3.3 9-2.8 22.2 5 31.2 5.9 6.9 19.7 13.1 25.2 7.6 4.1-4.1 2.6-10.5-4.1-18.4-6.5-7.6-1.4-13.4-1.4-13.4 0 0 0-25.6 0-25.6z"/>
					<path class="s9" d="m253.8 273.1c0 0 10.7-1 21.3 7.7 10.4 8.5 12.8 24.2 6.8 27.6-7.1 4.1-13-5.5-18.7-9.6-4.9-3.5-9.4-1.6-9.4-1.6z"/>
					<path class="s10" d="m243 329.6c0 0 8.2 3.2 11.6-1.6 3.2-4.4-2.5-11.9-5.3-15.3-2.1-2.5-8.4-11.5-3.6-18.7 5.2-8.1 15-5.5 21 0.2 3.9 3.6 7.8 10.1 12.7 10 4.9-0.1 4.3-5.6 4.1-6.6"/>
				</g>
			</g>
			<g>
				<path fill-rule="evenodd" class="s4" d="m573.6 82.6h11.2v372.4h-11.2z"/>
				<path fill-rule="evenodd" class="s4" d="m640.8 135.1l-131 7.3-1.6-29.6 131-7.3 10.2 14.3z"/>
				<path fill-rule="evenodd" class="s11" d="m518.2 141.9l-8.4 0.5-1.6-29.6 8.3-0.5z"/>
				<path fill-rule="evenodd" class="s4" d="m506.5 186.4l145.4 17.1 3.9-32.9-145.4-17.1-12.4 15.2z"/>
				<path fill-rule="evenodd" class="s12" d="m655.8 170.6l-3.9 32.9-8.5-1 3.9-32.9z"/>
			</g>
			<g>
				<path class="s13" d="m92.6 70.1c4.4-0.7 8.8-0.1 12.9 1.7 13.7 6.2 51.3 23.2 52.8 23.5 1.9 0.4 154.3-45.5 169.4-45.5 10.7 0 19.8 5.6 24.6 10.2 19.7 1.2 26.7 14.1 24.5 21.8-2.4 8.3-11.9 13.6-41.1 22.3-29.2 8.8-177.1 42.1-196.6 44-19.4 2-37.5-2-38.8-5.2-1-2.3-0.5-7.2-0.2-9.5 0.1-1.1 0.8-2.1 1.8-2.6 2.1-1.1 19.7-4 18.1-9.6-3.3-11.1-39.8-45.5-39.8-47.3-0.1-1.1 6.5-2.9 12.4-3.8z"/>
				<path class="s4" d="m158.3 95.3c0 0-9.7 3-12.4 3.3-2.8 0.3-46.8-24.3-51.5-25.2-4.7-0.9-13.2 2-13.2 2-0.7-0.8-1-1.3-1-1.5-0.1-1.1 6.5-2.9 12.4-3.8 4.4-0.7 8.8-0.1 12.9 1.7 13.7 6.2 51.3 23.2 52.8 23.5z"/>
				<path class="s4" d="m322.9 98.4c1-0.2 0.9-1.7-0.2-1.7-11.9-0.5-37.9-2.8-71.7-13.6-16.7-5.3-38.6-22-46.8-29.6-8.8-8-21.1-10.8-32.4-7.2l-6.1 1.9c-1.6 0.5-2.2 2.4-1.3 3.8 4.8 7.3 18.8 27.8 35.3 43.1 9.9 9.2 19.8 14.6 27.3 17.8 7.1 3 17.7 4.6 25.3 2.9z"/>
				<path class="s4" d="m352.3 60.1c0 0-4.7-0.7-23.3 5.2-4 1.3-8.3 0.9-11.5-1.9l-4.8-4.2c-0.7-0.6-0.3-1.6 0.5-2 5.8-3.4 21.9-6.3 25.1-5.6 6 2 10.9 5.4 14 8.5z"/>
				<path class="s4" d="m204.1 83.1c0 0-14.8 4.2-16.9 5-2.2 0.8-5.2 2.9-4.2 8.4 0.9 4.4 4.7 5.5 7.1 5.8 4.1 0.5 17.5-3.2 23.3-5"/>
				<path class="s4" d="m178.7 56.3c0 0-10.3 2.8-11.7 3.4-1.5 0.6-3.6 2-2.9 5.8 0.6 3 3.2 3.8 4.9 4 2.8 0.3 12.1-2.2 16.1-3.5"/>
				<path class="s7" d="m279 70.7c0.4 4.2 1.5 13.2 4.8 19.8 0.6 1.1 1.9 1.7 3.1 1.4 2.5-0.7 6.6-1.8 9.2-2.5 1.5-0.3 2.3-1.8 1.9-3.3-1-4-3-12-3.8-18.6-0.2-1.6-1.8-2.7-3.4-2.3-2.9 0.8-7.3 2-9.8 2.7-1.3 0.3-2.1 1.5-2 2.8z"/>
				<g>
					<path class="s7" d="m260 77.2c0.3 1.6 0.7 3.5 1.3 5.4 0.7 1.8 2.8 2.8 4.7 2.3l0.1-0.1c2-0.6 3.2-2.6 2.6-4.7-0.3-1.3-0.7-2.8-1-4.3-0.4-2.2-2.7-3.6-4.8-3l-0.2 0.1c-1.9 0.5-3 2.4-2.7 4.3z"/>
					<path class="s7" d="m246.6 81c0.3 1.6 0.7 3.5 1.4 5.3 0.6 1.9 2.7 2.9 4.6 2.3h0.1c2-0.6 3.2-2.7 2.7-4.7-0.4-1.3-0.8-2.8-1.1-4.3-0.4-2.2-2.7-3.6-4.8-3l-0.2 0.1c-1.9 0.5-3 2.4-2.7 4.3z"/>
					<path class="s7" d="m233.2 84.8c0.3 1.6 0.7 3.5 1.4 5.3 0.7 1.9 2.7 2.9 4.6 2.3h0.1c2.1-0.6 3.2-2.7 2.7-4.7-0.4-1.3-0.7-2.8-1.1-4.3-0.4-2.3-2.6-3.6-4.8-3l-0.1 0.1c-1.9 0.5-3.1 2.4-2.8 4.3z"/>
					<path class="s7" d="m219.9 88.6c0.2 1.5 0.7 3.5 1.3 5.3 0.7 1.9 2.7 2.9 4.6 2.3h0.2c2-0.6 3.1-2.7 2.6-4.7-0.3-1.3-0.7-2.8-1-4.4-0.5-2.2-2.7-3.5-4.9-2.9h-0.1c-1.9 0.6-3.1 2.5-2.7 4.4z"/>
					<path class="s7" d="m206.5 92.3c0.2 1.6 0.7 3.6 1.3 5.4 0.7 1.9 2.8 2.9 4.7 2.3h0.1c2-0.6 3.2-2.7 2.6-4.7-0.3-1.3-0.7-2.9-1-4.4-0.5-2.2-2.7-3.6-4.9-2.9h-0.1c-1.9 0.6-3.1 2.4-2.7 4.3z"/>
					<path class="s7" d="m193.1 94.6c0.3 1.6 0.7 5 1.3 6.9 0.7 1.8 2.8 2.8 4.7 2.3l0.1-0.1c2-0.5 3.2-2.6 2.6-4.6-0.3-1.3-0.7-2.9-1-4.4-0.4-2.2-2.7-3.6-4.8-2.9h-0.2c-1.9 0.6-3 0.9-2.7 2.8z"/>
					<path class="s7" d="m179.7 99.9c0.3 1.6 0.7 3.5 1.4 5.4 0.6 1.8 2.7 2.8 4.6 2.3l0.1-0.1c2-0.6 3.2-2.6 2.7-4.7-0.4-1.3-0.8-2.8-1.1-4.3-0.4-2.2-2.6-3.6-4.8-3l-0.2 0.1c-1.9 0.5-3 2.4-2.7 4.3z"/>
					<path class="s7" d="m166.3 103.7c0.3 1.6 0.7 3.5 1.4 5.3 0.7 1.9 2.7 2.9 4.6 2.3h0.1c2.1-0.6 3.2-2.7 2.7-4.7-0.4-1.3-0.7-2.8-1-4.3-0.5-2.2-2.7-3.6-4.9-3l-0.1 0.1c-1.9 0.5-3.1 2.4-2.8 4.3z"/>
					<path class="s7" d="m107.7 138c0 0 18.8 3.3 30.6 2 11.7-1.4 208.2-47.6 218.9-51.2 10.8-3.6 15.9-8.5 16.3-12.3"/>
				</g>
			</g>
			<g>
				<path class="s14" d="m588.6 376.7c-4.1 5.8-11.6 11.9-11.1 24 1.2 29.7 0 49.8-19.5 54.3h-11.4v-6.3c0 0 15-1.1 18.6-12 5-15.1-8.2-33 1.9-66 1.9-6.4 4-5 3.6-1.9 0.1-0.7 1.2-5.8 4.8-8.6 4-2.9 2.3 1.7 2.3 1.7 0 0 4.6-4 9-3.8 1.8 0 2.4 0.5 2.4 1 0 0.6-0.9 1.3-0.9 1.3 1.6 0.4 3 1.2 3.9 2.6 1.8 2.7 1.4 6.6-3.6 13.7z"/>
				<path class="s4" d="m460.6 396.3c0 0-4.3 18.4-5.9 21.4-1 1.9-4 13.3-6.2 21.5-1.1 4.3-2.9 8.4-5.7 11.8-0.9 1.1-1.6 2.4-1.9 3.9h15.8c0 0 3.1-3.2 0.4-6.2l19-33.8z"/>
				<path class="s4" d="m493.6 415.8c0 0-5.4 11.5-5.9 18.5-0.5 7.1 3.4 10.3 3.4 10.3 0 0-6.1 0.8-9.9 5-2.2 2.5-2.8 5.4-2.8 5.4h34.7l4.4-33.2"/>
				<path class="s15" d="m550.6 447.3q0.5-0.8 1-1.5c5.5-8.5 11.5-28.2-3.7-48.5-13.6-18.3-18.5-11.6-32.4-25.4-13.9-13.7-14.1-30.8-14.1-30.8 0 0 6.4-11.8 6.1-14.6-0.3-2.5-9.8-11.9-14.2-19.4-0.9-1.5-2.4-2.5-4.2-2.6-3.7-0.2-10.7-0.9-20.8-3.8-15.3-4.3-16.8-6.4-18.8-5.8-1.9 0.5-3.4 3.4-3.6 4.8 0 0-1.5 6.6 0.6 13.2 2.1 6.6 13.2 16.5 17.6 20.8-1.5 2.2-9.2 7.8-13 11.9-2.9 3.2-3.1 5.6 1.1 4.4-5.9 7.5-11.2 24.9-4.8 19.2-1.3 13 2.6 25.1 10.6 33.6 5.8 6.2 11.6 10.7 11.6 10.7l-4.8 27.4c-0.6 3-1.6 6-3.4 8.5-0.9 1.3-1.8 3.2-2 5.6h16.2c0 0 1.1-1.8 1.3-3.4 0.1-1.5-0.7-2.9-0.7-2.9l10.7-27.7c0.1 0.1 1.3 1.1 3.5 2.6 1.5 1 3.4 2.1 5.6 3.4q1.1 0.6 2.3 1.3c-0.2 7.4 3.7 14.8 7 16.7-4.6 1.5-11.2 4.1-11.2 10h55.9c0 0 3.2-3.3 0.6-7.7z"/>
				<path class="s16" d="m492.5 415c-0.8 2.1-1.6 5.8-2.1 8.6-2.2-1.5-3.4-2.5-3.5-2.6l3-6.5c0 0 1.8-4.3 1.3-6.7-0.5-2.3-1.7-15.4-1.6-21.1 0 0 1.1 13.3 3 19.2 1.3 4.1 1.3 5.2-0.1 9.1z"/>
				<path class="s17" d="m532.1 414.7c-0.6-0.2-11.8-3.6-22.5-1.6-11 2.1-11.3 15.2-11.3 15.2q-1.2-0.7-2.3-1.3c0.3-3.7 1.8-12.7 12.1-15.6 10.7-3 23.4 3 24 3.3z"/>
				<path class="s4" d="m450.3 302.9c0 0-3.6-1.7-4-4.5-0.4-2.8 4.5-6.9 6.1-4.6 2.6 3.6 3.1 10.9-2.1 9.1z"/>
				<path class="s18" d="m470.8 405.1c-0.1 2.2-1.2 8.4-1.2 8.4 0 0-0.7-0.5-1.8-1.5 0.5-1.8 1.1-3.8 1.3-5.1 0.5-2.9 0.5-10.6 0.5-10.6 0 0 1.3 6.7 1.2 8.8z"/>
				<path class="s10" d="m507.1 444.6c0 0 8.2-3.2 17.8-2.9"/>
				<path class="s4" d="m483.1 345.5c-6.6 1.3-18-0.5-25.2-6.1l3.4-4.4c0 0 6.8 4.6 20 5.1q0.1 0.2 0.1 0.4c0.5 1.8 1.1 3.5 1.7 5z"/>
				<path class="s19" d="m501.7 344.4q0 0 0 0c-1.1 2-2.6 4.9-3.6 7.2-2.2 4.9-4.6 5.9-6.4 3.9 0 0-0.4 3.1-3.3 1.6-3-1.5-3.9-5.4-3.9-5.4 0 0-0.3 1.7-1.9 0.9-1.6-0.8-10.4-21.4 2.9-34.9-0.3 0.5-7.5 10.3-4.1 22.8 3.6 12.9 10.6 21.2 20 0.6 0 0 0 1.2 0.3 3.3z"/>
				<path class="s4" d="m469 350.1q0.3-0.6 0.2-1.5c-0.2-0.9-0.9-1.7-1.8-2-1-0.2-1.9 0.1-2.5 0.7-0.7 0.8-1.6 1.2-2.7 1.2l-0.8-0.1c-1-0.1-1.9-0.6-2.5-1.5-0.5-0.6-1.4-1-2.4-0.9-0.9 0.1-1.7 0.8-2 1.7q-0.2 0.8 0.1 1.5c0.2 0.7 0.1 1.5-0.2 2.2q-0.3 0.6-0.2 1.4c0.2 1 0.9 1.8 1.8 2 0.9 0.3 1.8 0 2.4-0.6 0.7-0.8 1.7-1.2 2.7-1.2l0.9 0.1c1 0.1 1.9 0.6 2.5 1.5 0.5 0.6 1.4 1 2.3 0.9 1-0.1 1.8-0.8 2.1-1.8q0.2-0.7-0.1-1.4c-0.2-0.7-0.2-1.5 0.2-2.2z"/>
				<path class="s20" d="m463.7 342c0 0-2.4 2.7-1.8 7.2"/>
				<path class="s21" d="m472.1 308.1c0 0 1.8 2.4 4.8 3.1 3 0.6 4.4-1.4 4.4-1.4"/>
			</g>
		</g>
		<g>
			<path class="s22" d="m437.2 132.3c0 0 3.6 9.3 5 13.1 0.8 2.4-1.2 14.1-1.2 14.1l-8.3-11.8z"/>
			<path class="s4" d="m432.7 147.7l7.3 10.3 0.1-5.1c0 0-0.4-2.6-0.8-4.8-0.5-2.2-0.1-5-0.3-7.4-0.4-2.6-2.7-3.2-2.7-3.2 0 0-0.1-0.3-0.5-0.3z"/>
			<path class="s23" d="m261 125.4c0 0-6.9 11.3-7.8 12.7-0.5 0.6-2.5 12.3-1.9 14.1 0.5 1.9 11.6-3.6 11.6-3.6l3.1-2.8z"/>
			<path class="s4" d="m254.7 152.1c3.4-1.1 8.2-3.5 8.2-3.5l3.1-2.8-3.8-15.7c-0.9 0.4-1.8 1.1-2.3 2.9-0.4 1.5-0.8 12.2-0.8 12.2l-1.3 3.3c0 0-2.3 2.1-3.1 3.6z"/>
			<g>
				<path fill-rule="evenodd" class="s24" d="m377.1 91.4l68.2 16.6-37.2 129.6-36-10.7z"/>
				<path fill-rule="evenodd" class="s24" d="m377.1 91.4l-72.6 13.8 20.1 122.4 47.5-0.7z"/>
				<path fill-rule="evenodd" class="s24" d="m304.5 105.2l-49 2.6 34.5 129.8 34.6-10.1z"/>
			</g>
			<path fill-rule="evenodd" class="s25" d="m323.5 220.7l49.6-0.7 30.3 9.1 33.4-116.1-59.9-14.6-71.6 13.6-41 2.2 30.5 114.9z"/>
			<path class="s26" d="m367.9 332.1c0 0 5 15.7 5.9 18.3 1 2.6 36.2 76.4 36.2 76.4l17.6-5.7c0 0-15.3-67.2-26.9-77.1l-3.1-14.2c-10.2-3.9-20.3-4-29.7 2.3z"/>
			<path class="s27" d="m321.4 436.3l20 0.4c0 0 4.5-52.1 3.8-64.9-0.7-12.8-2.3-21-2.3-21l3.7-19.7c-10.3-6.3-20.8-7.9-29.9-4.4-0.9 6.8-2.1 15.4-2.5 21.1-0.5 6.8 7.2 88.5 7.2 88.5z"/>
			<path class="s28" d="m385.4 260.4c0 0 6.2 12.2 6.2 19.9 0 7.8 1.3 16.1 1.3 16.1l7.6 40.9c0 0-15.4 6.3-36.3 6.1l-6.4-38-1.2 0.4-2.3 38.1c0 0-28.6 2.8-40.1-4.5 0 0 3-25.8 4.2-35.4 3.5-28.5 8.9-49.1 8.9-49.1z"/>
			<path class="s4" d="m363 302.9c0 0-1.3 1.3-2.7 1.9-1.1 0.4-2.5 0.6-2.5 0.6l1.7 10.1z"/>
			<path class="s10" d="m356.6 305.8l3.1-0.8c0 0 4.8-1.3 6.8-8.3"/>
			<path class="s29" d="m408.1 201.4c7.3-15.9 18-32.4 18-32.4 0.5-2.1 1-6.4 2-11.2 0.7-3.1 3-6.1 3-6.1 0 0-0.9-6.9 1.2-10.5 2.3-3.9 6.2-2.5 5.7 1.5-0.6 5.1 1.1 8 1.1 8 0 0 3 4.9 2.8 7.7-0.4 5.1-5.4 14.1-5.4 14.1 0 0-7.3 50.1-17 55.9-7.5 4.5-19.3-5.4-19.3-5.4 0 0 5.5-16.4 7.9-21.6z"/>
			<path class="s30" d="m310 193.5l-7.8 2.8-29.6-35.9-11.6 5.6c0 0 14.8 33.2 29.5 49.7 5.8 6.4 25.1 1.8 25.1 1.8z"/>
			<path class="s31" d="m355.5 135.5c-3.2 4.3-5.9 10.7-8.5 20-2.7 9.3 0.8 13.9 10.6 16.1 0 3.9-0.4 12.3-0.4 12.3l-3.1 2.1c0 0 2 2.1 9.8 2.8 7.9 0.8 16.4-5.8 16.4-5.8l-4-0.8-2.5-11.8c0 0 10.5-9.1 12-21.8 1.6-12.7-20.6-26.3-30.3-13.1z"/>
			<path class="s32" d="m369.6 185.5c-8.4 1.2-12.4-1.6-12.4-1.6 0 0-3.4 0.6-7.4 0.5-5.1-0.2-7.6-1.3-11.7-1.1-5.1 0.3-31.2 11-31.2 11-3.3 11.5 7.4 30.2 7.4 30.2l20.8-4.4c-4.1 13.1-7.3 25.2-11.2 46.1 0 0 6 8.7 31.4 10.6 23.1 1.8 37.5-5.8 37.5-5.8 0 0-8.6-28.2-6.7-33.9 1.9-5.6 4.7-13.7 4.7-13.7l8.9 7.1c14.2-5.7 17-21.1 17-21.1 0 0-17.4-22.5-22.5-26.4-3.9-2.9-10.7-1.6-12.8-1.2-2.4 0.6-5.1 0.4-5.1 0.4 0 0-1.6 2.6-6.7 3.3z"/>
			<path class="s4" d="m371.9 116.1c4.6 1.3 8.3 5.8 7.7 10.5 1.5-2 4.1-2.3 5.5-1.7 1.4 0.7 1.2 2.8-0.4 4 2.4-0.6 6.7-1.6 9.5 1.6 1.7 2 1.2 6-2.3 7.3 3.7 1.6 8 7.2 8.9 11.4 0.6 2.5 0.8 10.7-11.1 9.2 2.6 4 1.6 10.6-1.6 11.8-2.3 0.9-4.9 0-6.1-1.1-0.1 1.8-1.8 3.4-3.9 3.4-1.6 0-3-0.5-4-1.8-1.3 2.1-4.1 3.1-6.5 3-5.6-0.3-6.8-4.2-6.9-5.6-5.1-1.8-5.7-6.1-6-8.8-0.3-3 1.6-6.8 3.4-7.4-2.4 0.6-5.3-1.2-5.8-3-0.7-2.3 0.1-4.5 1.2-5.6-2.1-0.2-7.4-1.7-7.9-7.2-0.6-6.1 3.1-8.9 5.3-9.2-0.7-0.8-0.8-2.5-0.5-3.5 1-4 6.2-4.2 9.8-3.4 2.1-4 7.6-5.1 11.7-3.9z"/>
			<path class="s33" d="m346.2 437c0 0-0.7-5.3-4-6.4-3.2-1-9.8-1.1-13.7 0.4-2.8 1.1-3.4 4.7-3.4 4.7l-3.7 0.1-0.6-6c0 0-4.4-1-5.6 0.7-0.6 0.8 1.1 4.6 1.7 5.7-1.8 0.1-8.8-0.1-12.7 4.3-3.3 3.6-3.5 8.1-3.1 11.2-1.3 1.6-0.5 3.8-0.5 3.8h49.1c0 0 0.4-2.4-0.6-3.8 0.9-3.9 1.4-10.1-2.9-14.7z"/>
			<path class="s34" d="m441.3 436.3c0 0 0.5-2.7-1.6-6.8-2.9-5.8-9.8-8.4-9.8-8.4 0 0-0.5-4.1-4-3.9-3.5 0.1-9.8 2.6-11.5 3.9-1.7 1.4-0.8 4.5-0.8 4.5l-3.6 1.2-3.1-6.5c0 0-3.7 0.7-4.6 2.8-1 2.1 5.3 5.8 5.3 5.8l-1.5 6.4c0 0-7.4-0.8-11.6 2.5-3.5 2.6-4.4 8.7-3.6 13.9-0.8 0.6-0.7 2.6-0.3 3.8h30.2z"/>
			<path fill-rule="evenodd" class="s35" d="m348 451.7h-45.9"/>
			<path class="s4" d="m437.1 455.5c0 0 1-3.7 2-7.9 1.1-4.6 2.2-9.7 2.2-11.6 0-2.1-1.7-4-5.2-4.7-3.9-0.7-9.2 1-11 4.7-4 7.9-7.8 19.5-7.8 19.5z"/>
			<path class="s35" d="m439.6 430.3c0 0-2.2-2.4-6.8-2.3-5.2 0.1-8.3 1.6-10.1 5-1.7 3.2-8.1 18.7-8.1 18.7h-22.8"/>
			<path class="s36" d="m272.6 160.4c0 0-0.1-4-1.1-8.8-0.4-2.1-1.9-4.2-3.4-8.1-0.7-5.9-0.7-8-2-10.2-1.1-1.9-4-2.3-5-0.3-0.8 1.4-0.3 13.2-0.3 13.2l-9.5 6c0.6 2.7 4.4 7.3 9.7 13.8z"/>
			<g>
				<path class="s4" d="m370 207.4c0 0-2.1-15.5-14.3-24.1 0 0-6.8 0.4-9.6 0.7 0 0 5 7.8 6.2 24.9z"/>
				<path class="s4" d="m379.7 212.3c0 0 11.9-10.5 17.2-10.5 0 0 9.2 4.2 10.2 6.1 8.1 15.4 2.2 61.6-6.1 69.2-8.2 7.6-14.6 9.2-14.6 9.2z"/>
				<path class="s37" d="m396.9 216.9c0 0 0.3-5-0.5-8.7"/>
				<path class="s38" d="m405.5 218.1c0 0-32.3-17.1-48.2-18.9 0 0-10.3 0.1-16.5 11.2 0 0-10.8 59.9-10.4 64.7 0.1 1.3 8.9 16.4 13.3 17.6 18.8 4.9 52.6-2.3 57.3-2.3 6.5 0 12.9-63.6 4.5-72.3z"/>
				<path class="s39" d="m346.6 275.8c0.2 2.1 18.5 12.1 56.5 12.5 5.6-11 9.9-62.4 2.4-70.2 0 0-31.7-16.7-47.7-18.8 0.5 4.5 0.9 13.1-0.5 25-2 18.3-10.9 48.6-10.7 51.5z"/>
				<path class="s4" d="m414.2 248.6c-0.1-1.1-0.8-2.3-1.8-2.6-5.8-2.1-28-9.3-35.8-9.3-3.1-0.1-12.7 4-15.1 5.8-2.4 1.8-7.6 25.3-6.7 39.3 0.1 0.4 4.8 7.3 13.1 8.5 15 2.3 36.2 2.3 37.8 1.9 3-0.8 9.2-32.6 8.5-43.6z"/>
				<path class="s4" d="m331.2 233.5c0 0 0 12.3 7.2 25.5l-2.5 7.5c0 0-6.3-11.7-8.4-24 0.6-4.1 3.7-9 3.7-9z"/>
				<path fill-rule="evenodd" class="s4" d="m337.7 255.2l-3 12.9 1.5 2.1 4.5-11z"/>
				<path class="s37" d="m374.6 240.4c0 0-8.5 18.3-8.1 47.9"/>
				<path class="s37" d="m413.2 250.5c0 0-6.3 13.3-10.1 15-1.1 0.4-21.4-4.2-22.3-4.8-2.1-1.2-4.4-20-4.4-20 0 0-0.2-2-1.8-1.9-1.6 0.1-10.9 3.8-12.2 4.8"/>
				<path class="s40" d="m395.3 260.2c0 0-0.5 7.7 2.3 13.5l-9.3 1.4c0 0-2.1-6.7 1.5-16.2z"/>
				<path class="s41" d="m349.1 201.8c0 0 1.2 16.6-3.9 31.7"/>
				<path class="s4" d="m347 231l0.1 0.1c0.3 0.2 0.5 0.5 0.5 0.9l2.1 9.5c0.2 0.8-0.3 1.6-1.1 1.8-1 0.2-2.5 0.4-3.8 0.3-0.8-0.1-1.4-0.9-1.3-1.7l1.2-9.8c0-0.5 0.3-0.9 0.6-1.1 0.5-0.3 1.2-0.3 1.7 0z"/>
			</g>
		</g>
		<g>
			<g>
				<path fill-rule="evenodd" class="s42" d="m455.4 197.7l17.7-4.7-13-12.9z"/>
				<path fill-rule="evenodd" class="s4" d="m546.4 375.3l10.6 2.3-3.2-10.4z"/>
				<path fill-rule="evenodd" class="s43" d="m138.3 303.3l22.3-7.5-17.6-15.6z"/>
			</g>
			<g>
				<path class="s44" d="m502.5 70.1c-7.2 0-13.1 5.8-13.1 13.1 0 7.2 5.9 13 13.1 13 7.2 0 13-5.8 13-13 0-7.3-5.8-13.1-13-13.1zm0 21.1c-4.5 0-8.1-3.6-8.1-8 0-4.5 3.6-8.1 8.1-8.1 4.4 0 8 3.6 8 8.1 0 4.4-3.6 8-8 8z"/>
				<path class="s45" d="m197.1 154.8c0 3.3-2.7 6-6 6-3.3 0-6-2.7-6-6 0-3.3 2.7-6 6-6 3.3 0 6 2.7 6 6z"/>
				<path class="s46" d="m302.7 258.9c0 2.5-2.1 4.5-4.6 4.5-2.5 0-4.5-2-4.5-4.5 0-2.5 2-4.5 4.5-4.5 2.5 0 4.6 2 4.6 4.5z"/>
				<path class="s47" d="m621.4 371.2c0 5.3-4.3 9.6-9.6 9.6-5.4 0-9.7-4.3-9.7-9.6 0-5.3 4.3-9.6 9.7-9.6 5.3 0 9.6 4.3 9.6 9.6z"/>
				<path class="s48" d="m285.9 396.2c-6.7 0-12.1 5.4-12.1 12.1 0 6.8 5.4 12.2 12.1 12.2 6.8 0 12.2-5.4 12.2-12.2 0-6.7-5.4-12.1-12.2-12.1zm0 22.6c-5.7 0-10.4-4.7-10.4-10.5 0-5.7 4.7-10.4 10.4-10.4 5.8 0 10.5 4.7 10.5 10.4 0 5.8-4.7 10.5-10.5 10.5z"/>
				<path class="s4" d="m243.4 58.8c0 1.1-0.9 2-2 2-1.1 0-2-0.9-2-2 0-1.2 0.9-2.1 2-2.1 1.1 0 2 0.9 2 2.1z"/>
				<path class="s49" d="m671.2 264.5c0 2.5-2.1 4.6-4.7 4.6-2.5 0-4.6-2.1-4.6-4.6 0-2.6 2.1-4.7 4.6-4.7 2.6 0 4.7 2.1 4.7 4.7z"/>
				<path class="s4" d="m629.3 150.9c0 2.4-1.9 4.3-4.2 4.3-2.4 0-4.3-1.9-4.3-4.3 0-2.4 1.9-4.3 4.3-4.3 2.3 0 4.2 1.9 4.2 4.3z"/>
				<path fill-rule="evenodd" class="s4" d="m471.6 125.8c-3.4 0-6.2-2.8-6.2-6.2 0-3.4 2.8-6.2 6.2-6.2 3.5 0 6.3 2.8 6.3 6.2 0 3.4-2.8 6.2-6.3 6.2z"/>
				<path class="s50" d="m526 293.1c0 1.4-1.1 2.6-2.5 2.6-1.4 0-2.6-1.2-2.6-2.6 0-1.4 1.2-2.5 2.6-2.5 1.4 0 2.5 1.1 2.5 2.5z"/>
				<path class="s51" d="m629.3 233.5c0 4.7-3.8 8.5-8.5 8.5-4.7 0-8.5-3.8-8.5-8.5 0-4.7 3.8-8.5 8.5-8.5 4.7 0 8.5 3.8 8.5 8.5z"/>
				<path class="s52" d="m611.8 212.6c0 1.4-1.2 2.6-2.6 2.6-1.5 0-2.7-1.2-2.7-2.6 0-1.5 1.2-2.6 2.7-2.6 1.4 0 2.6 1.1 2.6 2.6z"/>
				<path class="s40" d="m408.1 94.2c0 2-1.6 3.7-3.6 3.7-2 0-3.6-1.7-3.6-3.7 0-2 1.6-3.6 3.6-3.6 2 0 3.6 1.6 3.6 3.6z"/>
				<path class="s40" d="m149.4 268.2c0 2-1.5 3.5-3.4 3.5-1.9 0-3.5-1.5-3.5-3.5 0-1.9 1.6-3.4 3.5-3.4 1.9 0 3.4 1.5 3.4 3.4z"/>
				<path class="s40" d="m455.6 155.2c0 1.3-1.1 2.3-2.3 2.3-1.3 0-2.4-1-2.4-2.3 0-1.3 1.1-2.3 2.4-2.3 1.2 0 2.3 1 2.3 2.3z"/>
				<path class="s4" d="m87.7 275.1c0 2.5-2 4.4-4.4 4.4-2.5 0-4.5-1.9-4.5-4.4 0-2.5 2-4.5 4.5-4.5 2.4 0 4.4 2 4.4 4.5z"/>
			</g>
		</g>
		<g>
			<path fill-rule="evenodd" class="s41" d="m53.4 455.5h643.2"/>
			<path fill-rule="evenodd" class="s41" d="m383.7 461.9h209.5"/>
			<path fill-rule="evenodd" class="s41" d="m296.4 461.9h65.1"/>
			<path fill-rule="evenodd" class="s41" d="m175.2 461.9h102.9"/>
		</g>
	</g>
	<g id="TEXTS">
		<text id="New York" style="transform: matrix(.999,-0.055,.055,.999,533.851,131.596)" >
			<tspan x="0" y="0" class="t53">New York
</tspan>
		</text>
		<text id="Tokyo" style="transform: matrix(.993,.117,-0.117,.993,544.08,180.184)" >
			<tspan x="0" y="0" class="t54">Tokyo
</tspan>
		</text>
	</g>
</svg>